G04 #@! TF.FileFunction,Soldermask,Top*
%FSLAX46Y46*%
G04 Gerber Fmt 4.6, Leading zero omitted, Abs format (unit mm)*
G04 Created by KiCad (PCBNEW 4.0.7) date 07/03/20 06:06:01*
%MOMM*%
%LPD*%
G01*
G04 APERTURE LIST*
%ADD10C,0.100000*%
%ADD11C,1.600000*%
%ADD12O,1.600000X1.600000*%
%ADD13R,1.400000X1.700000*%
%ADD14R,2.000000X2.000000*%
%ADD15C,2.000000*%
%ADD16R,1.600000X1.600000*%
%ADD17R,3.500000X1.800000*%
%ADD18R,1.700000X1.400000*%
%ADD19R,1.550000X0.600000*%
%ADD20R,3.500000X2.000000*%
%ADD21R,7.000000X7.000000*%
%ADD22C,1.998980*%
%ADD23C,5.600000*%
%ADD24R,3.500000X3.500000*%
%ADD25R,1.700000X1.700000*%
%ADD26O,1.700000X1.700000*%
%ADD27R,3.800000X2.000000*%
%ADD28R,1.500000X2.000000*%
%ADD29R,1.750000X0.450000*%
%ADD30R,2.150000X1.700000*%
%ADD31R,1.300000X1.550000*%
%ADD32R,2.300000X0.500000*%
%ADD33R,2.500000X2.000000*%
%ADD34C,0.900000*%
%ADD35C,1.501140*%
%ADD36R,0.900000X1.200000*%
%ADD37R,0.900000X0.800000*%
%ADD38C,1.700000*%
%ADD39R,0.300000X1.600000*%
%ADD40R,2.200000X2.200000*%
%ADD41O,2.200000X2.200000*%
%ADD42R,1.300000X1.700000*%
%ADD43R,0.800000X0.900000*%
G04 APERTURE END LIST*
D10*
D11*
X139620000Y-68370000D03*
D12*
X139620000Y-58210000D03*
D13*
X135198000Y-73406000D03*
X137598000Y-73406000D03*
D10*
G36*
X135878198Y-103516827D02*
X134746827Y-104648198D01*
X133615456Y-103516827D01*
X134746827Y-102385456D01*
X135878198Y-103516827D01*
X135878198Y-103516827D01*
G37*
G36*
X137504544Y-105143173D02*
X136373173Y-106274544D01*
X135241802Y-105143173D01*
X136373173Y-104011802D01*
X137504544Y-105143173D01*
X137504544Y-105143173D01*
G37*
D14*
X143960000Y-77510000D03*
D15*
X143960000Y-72510000D03*
D16*
X127254000Y-75064000D03*
X127254000Y-72764000D03*
D17*
X124020000Y-67240000D03*
X119020000Y-67240000D03*
D11*
X142810000Y-58170000D03*
D12*
X142810000Y-68330000D03*
D18*
X131950000Y-77420000D03*
X131950000Y-75020000D03*
D19*
X129600000Y-65965000D03*
X129600000Y-67235000D03*
X129600000Y-68505000D03*
X129600000Y-69775000D03*
X135000000Y-69775000D03*
X135000000Y-68505000D03*
X135000000Y-67235000D03*
X135000000Y-65965000D03*
D20*
X201825000Y-116500000D03*
X201825000Y-121080000D03*
D21*
X209225000Y-118800000D03*
D16*
X178380000Y-59240000D03*
X180680000Y-59240000D03*
D13*
X171310000Y-52420000D03*
X168910000Y-52420000D03*
D16*
X173870000Y-50120000D03*
X173870000Y-52420000D03*
X166460000Y-50130000D03*
X166460000Y-52430000D03*
D22*
X121920000Y-74676000D03*
X121920000Y-79756000D03*
D23*
X211000000Y-44000000D03*
X119000000Y-44000000D03*
X119000000Y-131000000D03*
X211000000Y-131000000D03*
D22*
X213001260Y-61490000D03*
X202841260Y-61490000D03*
D10*
G36*
X172013173Y-90318198D02*
X170881802Y-89186827D01*
X172013173Y-88055456D01*
X173144544Y-89186827D01*
X172013173Y-90318198D01*
X172013173Y-90318198D01*
G37*
G36*
X170386827Y-91944544D02*
X169255456Y-90813173D01*
X170386827Y-89681802D01*
X171518198Y-90813173D01*
X170386827Y-91944544D01*
X170386827Y-91944544D01*
G37*
D24*
X202850000Y-82150000D03*
X208850000Y-82150000D03*
X205850000Y-86850000D03*
D16*
X196670000Y-59470000D03*
X196670000Y-57170000D03*
X195850000Y-49740000D03*
D11*
X195850000Y-47740000D03*
D16*
X178380000Y-62130000D03*
X180680000Y-62130000D03*
X178370000Y-55070000D03*
X180670000Y-55070000D03*
X178410000Y-52530000D03*
X180710000Y-52530000D03*
D10*
G36*
X150561827Y-107906802D02*
X151693198Y-109038173D01*
X150561827Y-110169544D01*
X149430456Y-109038173D01*
X150561827Y-107906802D01*
X150561827Y-107906802D01*
G37*
G36*
X152188173Y-106280456D02*
X153319544Y-107411827D01*
X152188173Y-108543198D01*
X151056802Y-107411827D01*
X152188173Y-106280456D01*
X152188173Y-106280456D01*
G37*
D16*
X148336000Y-65532000D03*
D11*
X148336000Y-63032000D03*
D16*
X190140000Y-49740000D03*
D11*
X190140000Y-47740000D03*
D25*
X183000000Y-43000000D03*
D26*
X185540000Y-43000000D03*
X188080000Y-43000000D03*
X190620000Y-43000000D03*
X193160000Y-43000000D03*
X195700000Y-43000000D03*
X198240000Y-43000000D03*
X200780000Y-43000000D03*
X203320000Y-43000000D03*
X205860000Y-43000000D03*
D25*
X168000000Y-132000000D03*
D26*
X170540000Y-132000000D03*
X173080000Y-132000000D03*
X175620000Y-132000000D03*
X178160000Y-132000000D03*
X180700000Y-132000000D03*
X183240000Y-132000000D03*
X185780000Y-132000000D03*
X188320000Y-132000000D03*
X190860000Y-132000000D03*
D25*
X126000000Y-132000000D03*
D26*
X128540000Y-132000000D03*
X131080000Y-132000000D03*
X133620000Y-132000000D03*
X136160000Y-132000000D03*
X138700000Y-132000000D03*
X141240000Y-132000000D03*
X143780000Y-132000000D03*
X146320000Y-132000000D03*
X148860000Y-132000000D03*
D25*
X126000000Y-43000000D03*
D26*
X128540000Y-43000000D03*
X131080000Y-43000000D03*
X133620000Y-43000000D03*
X136160000Y-43000000D03*
X138700000Y-43000000D03*
X141240000Y-43000000D03*
X143780000Y-43000000D03*
X146320000Y-43000000D03*
X148860000Y-43000000D03*
D13*
X195680000Y-53100000D03*
X198080000Y-53100000D03*
D27*
X153550000Y-128300000D03*
D28*
X153550000Y-122000000D03*
X151250000Y-122000000D03*
X155850000Y-122000000D03*
D29*
X192120000Y-61645000D03*
X192120000Y-60995000D03*
X192120000Y-60345000D03*
X192120000Y-59695000D03*
X192120000Y-59045000D03*
X192120000Y-58395000D03*
X192120000Y-57745000D03*
X192120000Y-57095000D03*
X192120000Y-56445000D03*
X192120000Y-55795000D03*
X192120000Y-55145000D03*
X192120000Y-54495000D03*
X192120000Y-53845000D03*
X192120000Y-53195000D03*
X184920000Y-53195000D03*
X184920000Y-53845000D03*
X184920000Y-54495000D03*
X184920000Y-55145000D03*
X184920000Y-55795000D03*
X184920000Y-56445000D03*
X184920000Y-57095000D03*
X184920000Y-57745000D03*
X184920000Y-58395000D03*
X184920000Y-59045000D03*
X184920000Y-59695000D03*
X184920000Y-60345000D03*
X184920000Y-60995000D03*
X184920000Y-61645000D03*
D30*
X162700000Y-123350000D03*
X162700000Y-125850000D03*
X162700000Y-128350000D03*
X166900000Y-128350000D03*
X166900000Y-125850000D03*
X166900000Y-123350000D03*
D31*
X164800000Y-123000000D03*
X164800000Y-128700000D03*
D27*
X191775000Y-110850000D03*
D28*
X191775000Y-117150000D03*
X194075000Y-117150000D03*
X189475000Y-117150000D03*
D27*
X182275000Y-110850000D03*
D28*
X182275000Y-117150000D03*
X184575000Y-117150000D03*
X179975000Y-117150000D03*
D27*
X182375000Y-79350000D03*
D28*
X182375000Y-73050000D03*
X180075000Y-73050000D03*
X184675000Y-73050000D03*
D32*
X207390000Y-55330000D03*
X207390000Y-54530000D03*
X207390000Y-53730000D03*
X207390000Y-52930000D03*
X207390000Y-52130000D03*
D33*
X207490000Y-58180000D03*
X212990000Y-58180000D03*
X207490000Y-49280000D03*
X212990000Y-49280000D03*
D34*
X209990000Y-55930000D03*
X209990000Y-51530000D03*
D32*
X207125000Y-108700000D03*
X207125000Y-107900000D03*
X207125000Y-107100000D03*
X207125000Y-106300000D03*
X207125000Y-105500000D03*
D33*
X207225000Y-111550000D03*
X212725000Y-111550000D03*
X207225000Y-102650000D03*
X212725000Y-102650000D03*
D34*
X209725000Y-109300000D03*
X209725000Y-104900000D03*
D35*
X172570940Y-55470000D03*
X167689060Y-55470000D03*
X165251005Y-87376005D03*
X161798995Y-83923995D03*
D13*
X201310000Y-57720000D03*
X198910000Y-57720000D03*
X202500000Y-54930000D03*
X200100000Y-54930000D03*
D25*
X186500000Y-65900000D03*
D26*
X189040000Y-65900000D03*
X191580000Y-65900000D03*
D36*
X213400000Y-64800000D03*
X213400000Y-67000000D03*
D18*
X202300000Y-68200000D03*
X202300000Y-65800000D03*
X198600000Y-65800000D03*
X198600000Y-68200000D03*
D13*
X208900000Y-67000000D03*
X211300000Y-67000000D03*
D37*
X204800000Y-66050000D03*
X204800000Y-67950000D03*
X206800000Y-67000000D03*
D10*
G36*
X164206334Y-99564555D02*
X164595243Y-99953464D01*
X163463872Y-101084835D01*
X163074963Y-100695926D01*
X164206334Y-99564555D01*
X164206334Y-99564555D01*
G37*
G36*
X163640648Y-98998870D02*
X164029557Y-99387779D01*
X162898186Y-100519150D01*
X162509277Y-100130241D01*
X163640648Y-98998870D01*
X163640648Y-98998870D01*
G37*
G36*
X163074963Y-98433184D02*
X163463872Y-98822093D01*
X162332501Y-99953464D01*
X161943592Y-99564555D01*
X163074963Y-98433184D01*
X163074963Y-98433184D01*
G37*
G36*
X162509278Y-97867499D02*
X162898187Y-98256408D01*
X161766816Y-99387779D01*
X161377907Y-98998870D01*
X162509278Y-97867499D01*
X162509278Y-97867499D01*
G37*
G36*
X161943592Y-97301813D02*
X162332501Y-97690722D01*
X161201130Y-98822093D01*
X160812221Y-98433184D01*
X161943592Y-97301813D01*
X161943592Y-97301813D01*
G37*
G36*
X161377907Y-96736128D02*
X161766816Y-97125037D01*
X160635445Y-98256408D01*
X160246536Y-97867499D01*
X161377907Y-96736128D01*
X161377907Y-96736128D01*
G37*
G36*
X160812221Y-96170443D02*
X161201130Y-96559352D01*
X160069759Y-97690723D01*
X159680850Y-97301814D01*
X160812221Y-96170443D01*
X160812221Y-96170443D01*
G37*
G36*
X160246536Y-95604757D02*
X160635445Y-95993666D01*
X159504074Y-97125037D01*
X159115165Y-96736128D01*
X160246536Y-95604757D01*
X160246536Y-95604757D01*
G37*
G36*
X157064555Y-95993666D02*
X157453464Y-95604757D01*
X158584835Y-96736128D01*
X158195926Y-97125037D01*
X157064555Y-95993666D01*
X157064555Y-95993666D01*
G37*
G36*
X156498870Y-96559352D02*
X156887779Y-96170443D01*
X158019150Y-97301814D01*
X157630241Y-97690723D01*
X156498870Y-96559352D01*
X156498870Y-96559352D01*
G37*
G36*
X155933184Y-97125037D02*
X156322093Y-96736128D01*
X157453464Y-97867499D01*
X157064555Y-98256408D01*
X155933184Y-97125037D01*
X155933184Y-97125037D01*
G37*
G36*
X155367499Y-97690722D02*
X155756408Y-97301813D01*
X156887779Y-98433184D01*
X156498870Y-98822093D01*
X155367499Y-97690722D01*
X155367499Y-97690722D01*
G37*
G36*
X154801813Y-98256408D02*
X155190722Y-97867499D01*
X156322093Y-98998870D01*
X155933184Y-99387779D01*
X154801813Y-98256408D01*
X154801813Y-98256408D01*
G37*
G36*
X154236128Y-98822093D02*
X154625037Y-98433184D01*
X155756408Y-99564555D01*
X155367499Y-99953464D01*
X154236128Y-98822093D01*
X154236128Y-98822093D01*
G37*
G36*
X153670443Y-99387779D02*
X154059352Y-98998870D01*
X155190723Y-100130241D01*
X154801814Y-100519150D01*
X153670443Y-99387779D01*
X153670443Y-99387779D01*
G37*
G36*
X153104757Y-99953464D02*
X153493666Y-99564555D01*
X154625037Y-100695926D01*
X154236128Y-101084835D01*
X153104757Y-99953464D01*
X153104757Y-99953464D01*
G37*
G36*
X154236128Y-101615165D02*
X154625037Y-102004074D01*
X153493666Y-103135445D01*
X153104757Y-102746536D01*
X154236128Y-101615165D01*
X154236128Y-101615165D01*
G37*
G36*
X154801814Y-102180850D02*
X155190723Y-102569759D01*
X154059352Y-103701130D01*
X153670443Y-103312221D01*
X154801814Y-102180850D01*
X154801814Y-102180850D01*
G37*
G36*
X155367499Y-102746536D02*
X155756408Y-103135445D01*
X154625037Y-104266816D01*
X154236128Y-103877907D01*
X155367499Y-102746536D01*
X155367499Y-102746536D01*
G37*
G36*
X155933184Y-103312221D02*
X156322093Y-103701130D01*
X155190722Y-104832501D01*
X154801813Y-104443592D01*
X155933184Y-103312221D01*
X155933184Y-103312221D01*
G37*
G36*
X156498870Y-103877907D02*
X156887779Y-104266816D01*
X155756408Y-105398187D01*
X155367499Y-105009278D01*
X156498870Y-103877907D01*
X156498870Y-103877907D01*
G37*
G36*
X157064555Y-104443592D02*
X157453464Y-104832501D01*
X156322093Y-105963872D01*
X155933184Y-105574963D01*
X157064555Y-104443592D01*
X157064555Y-104443592D01*
G37*
G36*
X157630241Y-105009277D02*
X158019150Y-105398186D01*
X156887779Y-106529557D01*
X156498870Y-106140648D01*
X157630241Y-105009277D01*
X157630241Y-105009277D01*
G37*
G36*
X158195926Y-105574963D02*
X158584835Y-105963872D01*
X157453464Y-107095243D01*
X157064555Y-106706334D01*
X158195926Y-105574963D01*
X158195926Y-105574963D01*
G37*
G36*
X159115165Y-105963872D02*
X159504074Y-105574963D01*
X160635445Y-106706334D01*
X160246536Y-107095243D01*
X159115165Y-105963872D01*
X159115165Y-105963872D01*
G37*
G36*
X159680850Y-105398186D02*
X160069759Y-105009277D01*
X161201130Y-106140648D01*
X160812221Y-106529557D01*
X159680850Y-105398186D01*
X159680850Y-105398186D01*
G37*
G36*
X160246536Y-104832501D02*
X160635445Y-104443592D01*
X161766816Y-105574963D01*
X161377907Y-105963872D01*
X160246536Y-104832501D01*
X160246536Y-104832501D01*
G37*
G36*
X160812221Y-104266816D02*
X161201130Y-103877907D01*
X162332501Y-105009278D01*
X161943592Y-105398187D01*
X160812221Y-104266816D01*
X160812221Y-104266816D01*
G37*
G36*
X161377907Y-103701130D02*
X161766816Y-103312221D01*
X162898187Y-104443592D01*
X162509278Y-104832501D01*
X161377907Y-103701130D01*
X161377907Y-103701130D01*
G37*
G36*
X161943592Y-103135445D02*
X162332501Y-102746536D01*
X163463872Y-103877907D01*
X163074963Y-104266816D01*
X161943592Y-103135445D01*
X161943592Y-103135445D01*
G37*
G36*
X162509277Y-102569759D02*
X162898186Y-102180850D01*
X164029557Y-103312221D01*
X163640648Y-103701130D01*
X162509277Y-102569759D01*
X162509277Y-102569759D01*
G37*
G36*
X163074963Y-102004074D02*
X163463872Y-101615165D01*
X164595243Y-102746536D01*
X164206334Y-103135445D01*
X163074963Y-102004074D01*
X163074963Y-102004074D01*
G37*
G36*
X143602082Y-99500000D02*
X142400000Y-100702082D01*
X141197918Y-99500000D01*
X142400000Y-98297918D01*
X143602082Y-99500000D01*
X143602082Y-99500000D01*
G37*
D38*
X140603949Y-97703949D02*
X140603949Y-97703949D01*
X140603949Y-101296051D02*
X140603949Y-101296051D01*
X138807898Y-99500000D02*
X138807898Y-99500000D01*
X138807898Y-103092102D02*
X138807898Y-103092102D01*
X137011846Y-101296051D02*
X137011846Y-101296051D01*
D25*
X131040000Y-87010000D03*
D26*
X131040000Y-89550000D03*
X133580000Y-87010000D03*
X133580000Y-89550000D03*
X136120000Y-87010000D03*
X136120000Y-89550000D03*
D13*
X182620000Y-105110000D03*
X185020000Y-105110000D03*
X185150000Y-102450000D03*
X187550000Y-102450000D03*
D18*
X192350000Y-95100000D03*
X192350000Y-97500000D03*
D10*
G36*
X169538173Y-84218198D02*
X168406802Y-83086827D01*
X169538173Y-81955456D01*
X170669544Y-83086827D01*
X169538173Y-84218198D01*
X169538173Y-84218198D01*
G37*
G36*
X167911827Y-85844544D02*
X166780456Y-84713173D01*
X167911827Y-83581802D01*
X169043198Y-84713173D01*
X167911827Y-85844544D01*
X167911827Y-85844544D01*
G37*
G36*
X166113173Y-80768198D02*
X164981802Y-79636827D01*
X166113173Y-78505456D01*
X167244544Y-79636827D01*
X166113173Y-80768198D01*
X166113173Y-80768198D01*
G37*
G36*
X164486827Y-82394544D02*
X163355456Y-81263173D01*
X164486827Y-80131802D01*
X165618198Y-81263173D01*
X164486827Y-82394544D01*
X164486827Y-82394544D01*
G37*
D39*
X165775000Y-110050000D03*
X165125000Y-110050000D03*
X164475000Y-110050000D03*
X163825000Y-110050000D03*
X163825000Y-113450000D03*
X164475000Y-113450000D03*
X165125000Y-113450000D03*
X165775000Y-113450000D03*
D16*
X156420000Y-118240000D03*
X154120000Y-118240000D03*
X170300000Y-125640000D03*
X170300000Y-123340000D03*
D18*
X170300000Y-116050000D03*
X170300000Y-113650000D03*
X159350000Y-118575000D03*
X159350000Y-116175000D03*
D13*
X167000000Y-120050000D03*
X164600000Y-120050000D03*
D18*
X159350000Y-123100000D03*
X159350000Y-125500000D03*
D16*
X170350000Y-108200000D03*
X168050000Y-108200000D03*
X150150000Y-118250000D03*
D11*
X147650000Y-118250000D03*
D40*
X185975000Y-87925000D03*
D41*
X196135000Y-87925000D03*
D16*
X191750000Y-122050000D03*
D11*
X194250000Y-122050000D03*
D16*
X174550000Y-125430000D03*
D11*
X174550000Y-122930000D03*
D16*
X202270000Y-126630000D03*
D11*
X204770000Y-126630000D03*
D16*
X194050000Y-125450000D03*
X191750000Y-125450000D03*
X183310000Y-123550000D03*
X181010000Y-123550000D03*
X204570000Y-130860000D03*
X202270000Y-130860000D03*
D18*
X187890000Y-119710000D03*
X187890000Y-122110000D03*
D13*
X177270000Y-117150000D03*
X174870000Y-117150000D03*
D42*
X184590000Y-96300000D03*
X181090000Y-96300000D03*
X196480000Y-102680000D03*
X199980000Y-102680000D03*
D16*
X149606000Y-75050000D03*
X149606000Y-77350000D03*
D36*
X213400000Y-69550000D03*
X213400000Y-71750000D03*
X213400000Y-74400000D03*
X213400000Y-76600000D03*
D13*
X194775000Y-73650000D03*
X197175000Y-73650000D03*
X207700000Y-76600000D03*
X210100000Y-76600000D03*
D18*
X140800000Y-107500000D03*
X140800000Y-105100000D03*
D25*
X212300000Y-97250000D03*
D26*
X212300000Y-94710000D03*
X212300000Y-92170000D03*
X212300000Y-89630000D03*
D25*
X176425000Y-111950000D03*
D26*
X176425000Y-109410000D03*
X176425000Y-106870000D03*
D13*
X187650000Y-73050000D03*
X190050000Y-73050000D03*
D43*
X200475000Y-73350000D03*
X202375000Y-73350000D03*
X201425000Y-71350000D03*
D13*
X207700000Y-71775000D03*
X210100000Y-71775000D03*
M02*
