M48
;DRILL file {KiCad 4.0.7} date 07/03/20 06:06:09
;FORMAT={-:-/ absolute / inch / decimal}
FMAT,2
INCH,TZ
T1C0.016
T2C0.031
T3C0.032
T4C0.039
T5C0.039
T6C0.043
T7C0.126
T8C0.035
%
G90
G05
M72
T1
X5.0098Y-3.0453
X5.2953Y-4.6319
X5.4242Y-3.0069
X5.6358Y-4.0266
X5.6594Y-4.1496
X5.7096Y-3.3012
X5.7343Y-4.9104
X5.8553Y-3.8386
X5.8553Y-3.936
X5.8553Y-4.0266
X5.8553Y-4.1043
X5.8553Y-4.2205
X5.9272Y-3.6929
X5.9281Y-3.1398
X5.9724Y-4.0866
X6.0031Y-2.7067
X6.0902Y-4.1961
X6.0965Y-4.9311
X6.1348Y-5.1594
X6.188Y-4.5728
X6.215Y-4.0453
X6.2315Y-4.787
X6.2327Y-3.8728
X6.2476Y-2.7067
X6.2799Y-5.0531
X6.3337Y-4.4695
X6.3453Y-3.9846
X6.3455Y-4.6319
X6.3455Y-4.7372
X6.3947Y-4.3406
X6.4087Y-3.789
X6.413Y-4.7783
X6.4203Y-4.1339
X6.4882Y-2.7953
X6.4911Y-4.6319
X6.4921Y-3.9882
X6.5Y-3.6988
X6.501Y-4.2018
X6.5187Y-4.5719
X6.5315Y-3.8396
X6.5748Y-3.6093
X6.5856Y-3.7884
X6.5945Y-3.0807
X6.5949Y-4.3457
X6.5949Y-4.4929
X6.6171Y-3.5167
X6.6299Y-3.7362
X6.6457Y-4.6795
X6.7028Y-3.9882
X6.7047Y-2.1476
X6.7175Y-3.8307
X6.7343Y-3.2116
X6.811Y-4.3228
X6.8465Y-4.1585
X6.8799Y-3.7608
X6.8957Y-2.3317
X6.8957Y-2.4449
X6.9203Y-2.1516
X6.9528Y-3.7618
X6.9547Y-3.8543
X6.9675Y-1.9537
X6.9892Y-3.9951
X7.0226Y-2.5315
X7.125Y-3.3839
X7.1565Y-4.4587
X7.1663Y-2.6437
X7.1722Y-3.9163
X7.2087Y-4.9596
X7.2913Y-4.4587
X7.3494Y-4.9341
X7.3504Y-2.2756
X7.3524Y-3.0236
X7.3652Y-2.7303
X7.3819Y-1.811
X7.3927Y-2.501
X7.4055Y-2.126
X7.4281Y-4.4587
X7.4301Y-3.8927
X7.4331Y-2.4094
X7.437Y-2.0906
X7.4449Y-2.2087
X7.4488Y-4.1801
X7.4764Y-3.6191
X7.5364Y-4.0482
X7.5522Y-2.685
X7.5719Y-2.7805
X7.5787Y-4.4587
X7.5807Y-2.8484
X7.6106Y-2.6382
X7.624Y-3.564
X7.6614Y-2.0276
X7.6673Y-3.8858
X7.6988Y-4.4587
X7.726Y-2.4866
X7.728Y-2.6382
X7.7539Y-4.1752
X7.7982Y-2.8071
X7.878Y-4.3602
X7.889Y-2.6378
X7.9252Y-4.1693
X7.9508Y-2.9961
X7.9921Y-4.3593
X8.0551Y-4.1427
X8.0575Y-2.0701
X8.2425Y-2.4827
X8.2669Y-2.1126
X8.2815Y-2.9291
X8.3815Y-2.0469
X8.3815Y-2.1815
T2
X5.4969Y-2.2917
X5.4969Y-2.6917
X5.6224Y-2.2902
X5.6224Y-2.6902
X5.813Y-4.6555
X5.84Y-2.4816
X5.84Y-2.58
X5.9114Y-4.6555
X6.872Y-4.8398
X6.872Y-4.9382
X7.4858Y-1.8795
X7.4858Y-1.9583
X7.5492Y-4.8051
X7.6476Y-4.8051
X7.7106Y-1.8795
X7.7106Y-1.9583
X7.9634Y-4.9854
X8.0618Y-4.9854
T3
X6.37Y-3.3041
X6.5059Y-3.44
X6.6019Y-2.1839
X6.7941Y-2.1839
T4
X4.9606Y-1.6929
X4.9606Y-5.1969
X5.0606Y-1.6929
X5.0606Y-5.1969
X5.1591Y-3.4256
X5.1591Y-3.5256
X5.1606Y-1.6929
X5.1606Y-5.1969
X5.2591Y-3.4256
X5.2591Y-3.5256
X5.2606Y-1.6929
X5.2606Y-5.1969
X5.3591Y-3.4256
X5.3591Y-3.5256
X5.3606Y-1.6929
X5.3606Y-5.1969
X5.3942Y-3.988
X5.4606Y-1.6929
X5.4606Y-5.1969
X5.4649Y-3.9173
X5.4649Y-4.0587
X5.5356Y-3.8466
X5.5356Y-3.988
X5.5606Y-1.6929
X5.5606Y-5.1969
X5.6063Y-3.9173
X5.6606Y-1.6929
X5.6606Y-5.1969
X5.6677Y-2.8547
X5.6677Y-3.0516
X5.7606Y-1.6929
X5.7606Y-5.1969
X5.8606Y-1.6929
X5.8606Y-5.1969
X6.6142Y-5.1969
X6.7142Y-5.1969
X6.8142Y-5.1969
X6.9142Y-5.1969
X6.9459Y-4.2075
X6.9459Y-4.3075
X6.9459Y-4.4075
X7.0142Y-5.1969
X7.1142Y-5.1969
X7.2047Y-1.6929
X7.2142Y-5.1969
X7.3047Y-1.6929
X7.3142Y-5.1969
X7.3425Y-2.5945
X7.4047Y-1.6929
X7.4142Y-5.1969
X7.4425Y-2.5945
X7.5047Y-1.6929
X7.5142Y-5.1969
X7.5425Y-2.5945
X7.6047Y-1.6929
X7.7047Y-1.6929
X7.8047Y-1.6929
X7.9047Y-1.6929
X8.0047Y-1.6929
X8.1047Y-1.6929
X8.3583Y-3.5287
X8.3583Y-3.6287
X8.3583Y-3.7287
X8.3583Y-3.8287
T5
X4.8Y-2.94
X4.8Y-3.14
X7.9859Y-2.4209
X8.3859Y-2.4209
T6
X7.3219Y-3.4616
X7.7219Y-3.4616
T7
X4.685Y-1.7323
X4.685Y-5.1575
X8.3071Y-1.7323
X8.3071Y-5.1575
T8
X8.2569Y-4.1299
X8.2569Y-4.3031
X8.2673Y-2.0287
X8.2673Y-2.202
T4
X7.9862Y-3.2736G85X7.9862Y-3.1949
G05
X8.1437Y-3.4193G85X8.065Y-3.4193
G05
X8.2224Y-3.2736G85X8.2224Y-3.1949
G05
T0
M30
