G04 #@! TF.FileFunction,Soldermask,Bot*
%FSLAX46Y46*%
G04 Gerber Fmt 4.6, Leading zero omitted, Abs format (unit mm)*
G04 Created by KiCad (PCBNEW 4.0.7) date 07/03/20 06:06:01*
%MOMM*%
%LPD*%
G01*
G04 APERTURE LIST*
%ADD10C,0.100000*%
%ADD11C,1.600000*%
%ADD12O,1.600000X1.600000*%
%ADD13R,2.000000X2.000000*%
%ADD14C,2.000000*%
%ADD15C,1.998980*%
%ADD16C,5.600000*%
%ADD17R,3.500000X3.500000*%
%ADD18R,1.600000X1.600000*%
%ADD19R,1.700000X1.700000*%
%ADD20O,1.700000X1.700000*%
%ADD21C,0.900000*%
%ADD22C,1.501140*%
%ADD23C,1.700000*%
%ADD24R,2.200000X2.200000*%
%ADD25O,2.200000X2.200000*%
G04 APERTURE END LIST*
D10*
D11*
X139620000Y-68370000D03*
D12*
X139620000Y-58210000D03*
D13*
X143960000Y-77510000D03*
D14*
X143960000Y-72510000D03*
D11*
X142810000Y-58170000D03*
D12*
X142810000Y-68330000D03*
D15*
X121920000Y-74676000D03*
X121920000Y-79756000D03*
D16*
X211000000Y-44000000D03*
X119000000Y-44000000D03*
X119000000Y-131000000D03*
X211000000Y-131000000D03*
D15*
X213001260Y-61490000D03*
X202841260Y-61490000D03*
D17*
X202850000Y-82150000D03*
X208850000Y-82150000D03*
X205850000Y-86850000D03*
D18*
X195850000Y-49740000D03*
D11*
X195850000Y-47740000D03*
D18*
X148336000Y-65532000D03*
D11*
X148336000Y-63032000D03*
D18*
X190140000Y-49740000D03*
D11*
X190140000Y-47740000D03*
D19*
X183000000Y-43000000D03*
D20*
X185540000Y-43000000D03*
X188080000Y-43000000D03*
X190620000Y-43000000D03*
X193160000Y-43000000D03*
X195700000Y-43000000D03*
X198240000Y-43000000D03*
X200780000Y-43000000D03*
X203320000Y-43000000D03*
X205860000Y-43000000D03*
D19*
X168000000Y-132000000D03*
D20*
X170540000Y-132000000D03*
X173080000Y-132000000D03*
X175620000Y-132000000D03*
X178160000Y-132000000D03*
X180700000Y-132000000D03*
X183240000Y-132000000D03*
X185780000Y-132000000D03*
X188320000Y-132000000D03*
X190860000Y-132000000D03*
D19*
X126000000Y-132000000D03*
D20*
X128540000Y-132000000D03*
X131080000Y-132000000D03*
X133620000Y-132000000D03*
X136160000Y-132000000D03*
X138700000Y-132000000D03*
X141240000Y-132000000D03*
X143780000Y-132000000D03*
X146320000Y-132000000D03*
X148860000Y-132000000D03*
D19*
X126000000Y-43000000D03*
D20*
X128540000Y-43000000D03*
X131080000Y-43000000D03*
X133620000Y-43000000D03*
X136160000Y-43000000D03*
X138700000Y-43000000D03*
X141240000Y-43000000D03*
X143780000Y-43000000D03*
X146320000Y-43000000D03*
X148860000Y-43000000D03*
D21*
X209990000Y-55930000D03*
X209990000Y-51530000D03*
X209725000Y-109300000D03*
X209725000Y-104900000D03*
D22*
X172570940Y-55470000D03*
X167689060Y-55470000D03*
X165251005Y-87376005D03*
X161798995Y-83923995D03*
D19*
X186500000Y-65900000D03*
D20*
X189040000Y-65900000D03*
X191580000Y-65900000D03*
D10*
G36*
X143602082Y-99500000D02*
X142400000Y-100702082D01*
X141197918Y-99500000D01*
X142400000Y-98297918D01*
X143602082Y-99500000D01*
X143602082Y-99500000D01*
G37*
D23*
X140603949Y-97703949D02*
X140603949Y-97703949D01*
X140603949Y-101296051D02*
X140603949Y-101296051D01*
X138807898Y-99500000D02*
X138807898Y-99500000D01*
X138807898Y-103092102D02*
X138807898Y-103092102D01*
X137011846Y-101296051D02*
X137011846Y-101296051D01*
D19*
X131040000Y-87010000D03*
D20*
X131040000Y-89550000D03*
X133580000Y-87010000D03*
X133580000Y-89550000D03*
X136120000Y-87010000D03*
X136120000Y-89550000D03*
D18*
X150150000Y-118250000D03*
D11*
X147650000Y-118250000D03*
D24*
X185975000Y-87925000D03*
D25*
X196135000Y-87925000D03*
D18*
X191750000Y-122050000D03*
D11*
X194250000Y-122050000D03*
D18*
X174550000Y-125430000D03*
D11*
X174550000Y-122930000D03*
D18*
X202270000Y-126630000D03*
D11*
X204770000Y-126630000D03*
D19*
X212300000Y-97250000D03*
D20*
X212300000Y-94710000D03*
X212300000Y-92170000D03*
X212300000Y-89630000D03*
D19*
X176425000Y-111950000D03*
D20*
X176425000Y-109410000D03*
X176425000Y-106870000D03*
M02*
