G04 #@! TF.FileFunction,Copper,L2,Bot,Signal*
%FSLAX46Y46*%
G04 Gerber Fmt 4.6, Leading zero omitted, Abs format (unit mm)*
G04 Created by KiCad (PCBNEW 4.0.7) date 07/03/20 06:06:01*
%MOMM*%
%LPD*%
G01*
G04 APERTURE LIST*
%ADD10C,0.100000*%
%ADD11C,1.600000*%
%ADD12O,1.600000X1.600000*%
%ADD13R,2.000000X2.000000*%
%ADD14C,2.000000*%
%ADD15C,1.998980*%
%ADD16C,5.600000*%
%ADD17R,3.500000X3.500000*%
%ADD18R,1.600000X1.600000*%
%ADD19R,1.700000X1.700000*%
%ADD20O,1.700000X1.700000*%
%ADD21C,1.501140*%
%ADD22C,1.700000*%
%ADD23R,2.200000X2.200000*%
%ADD24O,2.200000X2.200000*%
%ADD25C,0.600000*%
%ADD26C,0.250000*%
%ADD27C,0.254000*%
G04 APERTURE END LIST*
D10*
D11*
X139620000Y-68370000D03*
D12*
X139620000Y-58210000D03*
D13*
X143960000Y-77510000D03*
D14*
X143960000Y-72510000D03*
D11*
X142810000Y-58170000D03*
D12*
X142810000Y-68330000D03*
D15*
X121920000Y-74676000D03*
X121920000Y-79756000D03*
D16*
X211000000Y-44000000D03*
X119000000Y-44000000D03*
X119000000Y-131000000D03*
X211000000Y-131000000D03*
D15*
X213001260Y-61490000D03*
X202841260Y-61490000D03*
D17*
X202850000Y-82150000D03*
X208850000Y-82150000D03*
X205850000Y-86850000D03*
D18*
X195850000Y-49740000D03*
D11*
X195850000Y-47740000D03*
D18*
X148336000Y-65532000D03*
D11*
X148336000Y-63032000D03*
D18*
X190140000Y-49740000D03*
D11*
X190140000Y-47740000D03*
D19*
X183000000Y-43000000D03*
D20*
X185540000Y-43000000D03*
X188080000Y-43000000D03*
X190620000Y-43000000D03*
X193160000Y-43000000D03*
X195700000Y-43000000D03*
X198240000Y-43000000D03*
X200780000Y-43000000D03*
X203320000Y-43000000D03*
X205860000Y-43000000D03*
D19*
X168000000Y-132000000D03*
D20*
X170540000Y-132000000D03*
X173080000Y-132000000D03*
X175620000Y-132000000D03*
X178160000Y-132000000D03*
X180700000Y-132000000D03*
X183240000Y-132000000D03*
X185780000Y-132000000D03*
X188320000Y-132000000D03*
X190860000Y-132000000D03*
D19*
X126000000Y-132000000D03*
D20*
X128540000Y-132000000D03*
X131080000Y-132000000D03*
X133620000Y-132000000D03*
X136160000Y-132000000D03*
X138700000Y-132000000D03*
X141240000Y-132000000D03*
X143780000Y-132000000D03*
X146320000Y-132000000D03*
X148860000Y-132000000D03*
D19*
X126000000Y-43000000D03*
D20*
X128540000Y-43000000D03*
X131080000Y-43000000D03*
X133620000Y-43000000D03*
X136160000Y-43000000D03*
X138700000Y-43000000D03*
X141240000Y-43000000D03*
X143780000Y-43000000D03*
X146320000Y-43000000D03*
X148860000Y-43000000D03*
D21*
X172570940Y-55470000D03*
X167689060Y-55470000D03*
X165251005Y-87376005D03*
X161798995Y-83923995D03*
D19*
X186500000Y-65900000D03*
D20*
X189040000Y-65900000D03*
X191580000Y-65900000D03*
D10*
G36*
X143602082Y-99500000D02*
X142400000Y-100702082D01*
X141197918Y-99500000D01*
X142400000Y-98297918D01*
X143602082Y-99500000D01*
X143602082Y-99500000D01*
G37*
D22*
X140603949Y-97703949D02*
X140603949Y-97703949D01*
X140603949Y-101296051D02*
X140603949Y-101296051D01*
X138807898Y-99500000D02*
X138807898Y-99500000D01*
X138807898Y-103092102D02*
X138807898Y-103092102D01*
X137011846Y-101296051D02*
X137011846Y-101296051D01*
D19*
X131040000Y-87010000D03*
D20*
X131040000Y-89550000D03*
X133580000Y-87010000D03*
X133580000Y-89550000D03*
X136120000Y-87010000D03*
X136120000Y-89550000D03*
D18*
X150150000Y-118250000D03*
D11*
X147650000Y-118250000D03*
D23*
X185975000Y-87925000D03*
D24*
X196135000Y-87925000D03*
D18*
X191750000Y-122050000D03*
D11*
X194250000Y-122050000D03*
D18*
X174550000Y-125430000D03*
D11*
X174550000Y-122930000D03*
D18*
X202270000Y-126630000D03*
D11*
X204770000Y-126630000D03*
D19*
X212300000Y-97250000D03*
D20*
X212300000Y-94710000D03*
X212300000Y-92170000D03*
X212300000Y-89630000D03*
D19*
X176425000Y-111950000D03*
D20*
X176425000Y-109410000D03*
X176425000Y-106870000D03*
D25*
X127250000Y-77350000D03*
X137775000Y-76375000D03*
X167500000Y-78250000D03*
X171050000Y-81575000D03*
X186750000Y-76800000D03*
X198075000Y-71300000D03*
X192550000Y-72350000D03*
X201950000Y-76100000D03*
X210350000Y-74400000D03*
X201300000Y-105900000D03*
X203000000Y-110725000D03*
X168075000Y-89325000D03*
X167000000Y-91675000D03*
X165100000Y-93950000D03*
X177525000Y-101475000D03*
X182175000Y-99475000D03*
X176650000Y-97900000D03*
X168400000Y-94900000D03*
X170625000Y-97300000D03*
X174750000Y-95525000D03*
X148725000Y-97500000D03*
X148725000Y-99975000D03*
X150550000Y-93800000D03*
X148725000Y-102275000D03*
X143150000Y-102275000D03*
X175150000Y-59225000D03*
X175150000Y-62100000D03*
X187075000Y-69350000D03*
X182025000Y-67150000D03*
X178375000Y-64300000D03*
X183100000Y-125975000D03*
X186675000Y-125325000D03*
X167510000Y-114120000D03*
X165575000Y-116125000D03*
X161175000Y-117650000D03*
X162425000Y-110250000D03*
X176975000Y-49625000D03*
X195550000Y-113250000D03*
X192500000Y-113250000D03*
X188675000Y-113250000D03*
X185200000Y-113250000D03*
X181775000Y-113250000D03*
X170300000Y-54550000D03*
X175775000Y-54650000D03*
X204600000Y-105225000D03*
X194750000Y-98700000D03*
X188725000Y-98875000D03*
X189200000Y-106175000D03*
X191425000Y-102825000D03*
X196950000Y-106050000D03*
X186700000Y-57800000D03*
X188800000Y-61200000D03*
X159510000Y-128350000D03*
X155825000Y-131050000D03*
X154850000Y-125250000D03*
X164900000Y-101300000D03*
X165900000Y-97525000D03*
X170250000Y-101300000D03*
X157175000Y-116150000D03*
X160875000Y-113525000D03*
X173900000Y-105625000D03*
X173000000Y-109800000D03*
X148725000Y-104250000D03*
X148725000Y-107200000D03*
X143750000Y-105400000D03*
X196240000Y-63160000D03*
X196290000Y-67010000D03*
X200380000Y-67000000D03*
X193310000Y-67010000D03*
X157860000Y-102750000D03*
X158310000Y-98370000D03*
X161170000Y-101210000D03*
X162780000Y-96240000D03*
X154690000Y-106580000D03*
X209980000Y-53660000D03*
X204660000Y-52580000D03*
X209360000Y-63060000D03*
X212890000Y-55410000D03*
X212890000Y-51990000D03*
X167510000Y-110380000D03*
X168800000Y-118860000D03*
X189100000Y-56100000D03*
X187500000Y-46000000D03*
X200100000Y-110750000D03*
X189900000Y-91925000D03*
X152480000Y-68750000D03*
X158690000Y-68750000D03*
X188100000Y-54000000D03*
X188900000Y-53100000D03*
X192325000Y-70625000D03*
X194600000Y-51500000D03*
X150575000Y-79750000D03*
X164800000Y-71000000D03*
X145650000Y-124725000D03*
X134500000Y-117650000D03*
X161175000Y-120325000D03*
X164875000Y-117650000D03*
X163075000Y-105000000D03*
X151700000Y-103800000D03*
X167275000Y-96225000D03*
X165125000Y-106725000D03*
X187775000Y-63525000D03*
X191825000Y-68200000D03*
X145025000Y-83850000D03*
X193650000Y-90525000D03*
X158280000Y-121590000D03*
X162890000Y-121370000D03*
X176600000Y-95550000D03*
X180975000Y-85950000D03*
D26*
X143960000Y-72510000D02*
X143915000Y-72510000D01*
X143915000Y-72510000D02*
X140050000Y-76375000D01*
X140050000Y-76375000D02*
X137775000Y-76375000D01*
X186750000Y-76800000D02*
X188100000Y-76800000D01*
X188100000Y-76800000D02*
X192550000Y-72350000D01*
X201300000Y-109025000D02*
X201300000Y-105900000D01*
X203000000Y-110725000D02*
X201300000Y-109025000D01*
X168075000Y-89325000D02*
X167000000Y-90400000D01*
X167000000Y-90400000D02*
X167000000Y-91675000D01*
X178375000Y-97900000D02*
X178375000Y-100625000D01*
X178375000Y-100625000D02*
X177525000Y-101475000D01*
X182175000Y-99475000D02*
X181300000Y-99475000D01*
X182475000Y-99775000D02*
X182175000Y-99475000D01*
X188725000Y-99775000D02*
X182475000Y-99775000D01*
X179725000Y-97900000D02*
X178375000Y-97900000D01*
X178375000Y-97900000D02*
X176650000Y-97900000D01*
X181300000Y-99475000D02*
X179725000Y-97900000D01*
X168400000Y-94900000D02*
X168400000Y-94875000D01*
X172975000Y-97300000D02*
X170625000Y-97300000D01*
X174750000Y-95525000D02*
X172975000Y-97300000D01*
X148725000Y-97500000D02*
X148725000Y-95625000D01*
X148725000Y-102275000D02*
X148725000Y-99975000D01*
X148725000Y-97500000D02*
X148725000Y-99975000D01*
X148725000Y-95625000D02*
X150550000Y-93800000D01*
X175150000Y-62100000D02*
X175150000Y-59225000D01*
X181225000Y-67150000D02*
X182025000Y-67150000D01*
X178375000Y-64300000D02*
X181225000Y-67150000D01*
X186025000Y-125975000D02*
X183100000Y-125975000D01*
X186675000Y-125325000D02*
X186025000Y-125975000D01*
X160300000Y-113525000D02*
X160300000Y-116775000D01*
X160300000Y-116775000D02*
X161175000Y-117650000D01*
X157175000Y-116150000D02*
X157175000Y-116125000D01*
X157175000Y-116125000D02*
X162425000Y-110875000D01*
X162425000Y-110875000D02*
X162425000Y-110250000D01*
X175775000Y-54650000D02*
X175775000Y-50825000D01*
X175775000Y-50825000D02*
X176975000Y-49625000D01*
X188675000Y-113250000D02*
X192500000Y-113250000D01*
X181775000Y-113250000D02*
X185200000Y-113250000D01*
X170300000Y-54300000D02*
X170300000Y-54550000D01*
X171150000Y-53450000D02*
X170300000Y-54300000D01*
X174250000Y-53450000D02*
X171150000Y-53450000D01*
X174975000Y-54175000D02*
X174250000Y-53450000D01*
X175300000Y-54175000D02*
X174975000Y-54175000D01*
X175775000Y-54650000D02*
X175300000Y-54175000D01*
X148725000Y-102275000D02*
X148725000Y-104250000D01*
X193000000Y-104400000D02*
X193000000Y-104325000D01*
X194750000Y-102575000D02*
X194750000Y-98700000D01*
X193000000Y-104325000D02*
X194750000Y-102575000D01*
X188725000Y-105700000D02*
X188725000Y-99775000D01*
X188725000Y-99775000D02*
X188725000Y-98875000D01*
X189200000Y-106175000D02*
X188725000Y-105700000D01*
X194625000Y-106025000D02*
X193000000Y-104400000D01*
X193000000Y-104400000D02*
X191425000Y-102825000D01*
X196925000Y-106025000D02*
X194625000Y-106025000D01*
X196950000Y-106050000D02*
X196925000Y-106025000D01*
X186700000Y-57800000D02*
X186950000Y-57800000D01*
X188800000Y-59650000D02*
X188800000Y-61200000D01*
X186950000Y-57800000D02*
X188800000Y-59650000D01*
X155825000Y-131050000D02*
X157925000Y-131050000D01*
X157925000Y-131050000D02*
X159510000Y-129465000D01*
X159510000Y-128350000D02*
X159510000Y-129465000D01*
X159510000Y-129465000D02*
X159510000Y-129840000D01*
X158350000Y-131000000D02*
X155825000Y-131050000D01*
X159510000Y-129840000D02*
X158350000Y-131000000D01*
X165900000Y-100300000D02*
X164900000Y-101300000D01*
X165900000Y-97525000D02*
X165900000Y-100300000D01*
X159775000Y-113525000D02*
X160300000Y-113525000D01*
X160300000Y-113525000D02*
X160175000Y-113525000D01*
X160175000Y-113525000D02*
X160875000Y-113525000D01*
X157175000Y-116125000D02*
X159775000Y-113525000D01*
X173900000Y-106200000D02*
X173900000Y-105625000D01*
X173000000Y-107100000D02*
X173900000Y-106200000D01*
X173000000Y-109800000D02*
X173000000Y-107100000D01*
X148725000Y-107200000D02*
X148725000Y-104250000D01*
X196290000Y-67010000D02*
X196290000Y-63210000D01*
X196290000Y-63210000D02*
X196240000Y-63160000D01*
X196300000Y-67000000D02*
X196290000Y-67010000D01*
X200380000Y-63940000D02*
X202830000Y-61490000D01*
X200380000Y-63940000D02*
X200380000Y-67000000D01*
X200380000Y-67000000D02*
X196300000Y-67000000D01*
X202841260Y-61490000D02*
X202830000Y-61490000D01*
X157860000Y-102750000D02*
X157860000Y-98820000D01*
X157860000Y-98820000D02*
X158310000Y-98370000D01*
X209980000Y-53660000D02*
X205740000Y-53660000D01*
X211995000Y-54935000D02*
X210720000Y-53660000D01*
X210720000Y-53660000D02*
X209980000Y-53660000D01*
X211995000Y-56305000D02*
X211995000Y-54935000D01*
X205740000Y-53660000D02*
X204660000Y-52580000D01*
X209360000Y-63060000D02*
X209620000Y-62800000D01*
X209620000Y-62800000D02*
X209620000Y-58680000D01*
X209620000Y-58680000D02*
X211995000Y-56305000D01*
X211995000Y-56305000D02*
X212890000Y-55410000D01*
X167510000Y-114120000D02*
X167510000Y-117570000D01*
X167510000Y-110380000D02*
X167510000Y-114120000D01*
X167510000Y-117570000D02*
X168800000Y-118860000D01*
X198380000Y-45400000D02*
X200780000Y-43000000D01*
X188100000Y-45400000D02*
X198380000Y-45400000D01*
X187500000Y-46000000D02*
X188100000Y-45400000D01*
X189900000Y-91925000D02*
X190700000Y-91925000D01*
X200100000Y-101325000D02*
X200100000Y-110750000D01*
X190700000Y-91925000D02*
X200100000Y-101325000D01*
X158690000Y-68750000D02*
X152480000Y-68750000D01*
X185000000Y-50900000D02*
X185000000Y-43540000D01*
X188100000Y-54000000D02*
X185000000Y-50900000D01*
X185000000Y-43540000D02*
X185540000Y-43000000D01*
X188920000Y-44700000D02*
X190620000Y-43000000D01*
X187400000Y-44700000D02*
X188920000Y-44700000D01*
X185900000Y-46200000D02*
X187400000Y-44700000D01*
X185900000Y-50100000D02*
X185900000Y-46200000D01*
X188900000Y-53100000D02*
X185900000Y-50100000D01*
X194600000Y-62800000D02*
X194600000Y-68350000D01*
X194600000Y-68350000D02*
X192325000Y-70625000D01*
X194600000Y-62200000D02*
X194600000Y-62800000D01*
X194600000Y-62200000D02*
X194600000Y-51500000D01*
X156050000Y-79750000D02*
X150575000Y-79750000D01*
X164800000Y-71000000D02*
X156050000Y-79750000D01*
X141575000Y-124725000D02*
X145650000Y-124725000D01*
X134500000Y-117650000D02*
X141575000Y-124725000D01*
X161175000Y-120325000D02*
X163850000Y-117650000D01*
X164875000Y-117650000D02*
X163850000Y-117650000D01*
X163075000Y-105000000D02*
X162975000Y-105100000D01*
X162975000Y-105100000D02*
X161900000Y-105100000D01*
X153000000Y-105100000D02*
X161900000Y-105100000D01*
X151700000Y-103800000D02*
X153000000Y-105100000D01*
X167825000Y-96775000D02*
X167275000Y-96225000D01*
X167825000Y-100375000D02*
X167825000Y-96775000D01*
X165125000Y-103075000D02*
X167825000Y-100375000D01*
X165125000Y-106725000D02*
X165125000Y-103075000D01*
X187800000Y-63550000D02*
X187775000Y-63525000D01*
X187800000Y-66925000D02*
X187800000Y-63550000D01*
X187875000Y-67000000D02*
X187800000Y-66925000D01*
X189075000Y-68200000D02*
X187875000Y-67000000D01*
X191825000Y-68200000D02*
X189075000Y-68200000D01*
X155450000Y-83850000D02*
X145025000Y-83850000D01*
X162650000Y-76650000D02*
X155450000Y-83850000D01*
X179775000Y-76650000D02*
X162650000Y-76650000D01*
X193650000Y-90525000D02*
X179775000Y-76650000D01*
X162890000Y-121370000D02*
X160590000Y-121370000D01*
X160590000Y-121370000D02*
X160370000Y-121590000D01*
X160370000Y-121590000D02*
X158280000Y-121590000D01*
X180975000Y-85950000D02*
X178400000Y-88525000D01*
X178400000Y-88525000D02*
X178400000Y-93750000D01*
X176600000Y-95550000D02*
X178400000Y-93750000D01*
D27*
G36*
X117062973Y-41082122D02*
X117045501Y-41093797D01*
X116727265Y-41547660D01*
X119000000Y-43820395D01*
X121272735Y-41547660D01*
X120954499Y-41093797D01*
X119975890Y-40685000D01*
X210029907Y-40685000D01*
X209062973Y-41082122D01*
X209045501Y-41093797D01*
X208727265Y-41547660D01*
X211000000Y-43820395D01*
X213272735Y-41547660D01*
X212954499Y-41093797D01*
X211975890Y-40685000D01*
X214315000Y-40685000D01*
X214315000Y-43029907D01*
X213917878Y-42062973D01*
X213906203Y-42045501D01*
X213452340Y-41727265D01*
X211179605Y-44000000D01*
X213452340Y-46272735D01*
X213906203Y-45954499D01*
X214315000Y-44975890D01*
X214315000Y-60492496D01*
X213928333Y-60105154D01*
X213327807Y-59855794D01*
X212677566Y-59855226D01*
X212076605Y-60103538D01*
X211616414Y-60562927D01*
X211367054Y-61163453D01*
X211366486Y-61813694D01*
X211614798Y-62414655D01*
X212074187Y-62874846D01*
X212674713Y-63124206D01*
X213324954Y-63124774D01*
X213925915Y-62876462D01*
X214315000Y-62488055D01*
X214315000Y-130029907D01*
X213917878Y-129062973D01*
X213906203Y-129045501D01*
X213452340Y-128727265D01*
X211179605Y-131000000D01*
X213452340Y-133272735D01*
X213906203Y-132954499D01*
X214315000Y-131975890D01*
X214315000Y-134315000D01*
X211970093Y-134315000D01*
X212937027Y-133917878D01*
X212954499Y-133906203D01*
X213272735Y-133452340D01*
X211000000Y-131179605D01*
X208727265Y-133452340D01*
X209045501Y-133906203D01*
X210024110Y-134315000D01*
X119970093Y-134315000D01*
X120937027Y-133917878D01*
X120954499Y-133906203D01*
X121272735Y-133452340D01*
X119000000Y-131179605D01*
X116727265Y-133452340D01*
X117045501Y-133906203D01*
X118024110Y-134315000D01*
X115685000Y-134315000D01*
X115685000Y-131970093D01*
X116082122Y-132937027D01*
X116093797Y-132954499D01*
X116547660Y-133272735D01*
X118820395Y-131000000D01*
X119179605Y-131000000D01*
X121452340Y-133272735D01*
X121906203Y-132954499D01*
X122185561Y-132285750D01*
X124515000Y-132285750D01*
X124515000Y-132976309D01*
X124611673Y-133209698D01*
X124790301Y-133388327D01*
X125023690Y-133485000D01*
X125714250Y-133485000D01*
X125873000Y-133326250D01*
X125873000Y-132127000D01*
X124673750Y-132127000D01*
X124515000Y-132285750D01*
X122185561Y-132285750D01*
X122432936Y-131693566D01*
X122434945Y-131023691D01*
X124515000Y-131023691D01*
X124515000Y-131714250D01*
X124673750Y-131873000D01*
X125873000Y-131873000D01*
X125873000Y-130673750D01*
X126127000Y-130673750D01*
X126127000Y-131873000D01*
X126147000Y-131873000D01*
X126147000Y-132127000D01*
X126127000Y-132127000D01*
X126127000Y-133326250D01*
X126285750Y-133485000D01*
X126976310Y-133485000D01*
X127209699Y-133388327D01*
X127388327Y-133209698D01*
X127460597Y-133035223D01*
X127489946Y-133079147D01*
X127971715Y-133401054D01*
X128540000Y-133514093D01*
X129108285Y-133401054D01*
X129590054Y-133079147D01*
X129817702Y-132738447D01*
X129884817Y-132881358D01*
X130313076Y-133271645D01*
X130723110Y-133441476D01*
X130953000Y-133320155D01*
X130953000Y-132127000D01*
X130933000Y-132127000D01*
X130933000Y-131873000D01*
X130953000Y-131873000D01*
X130953000Y-130679845D01*
X131207000Y-130679845D01*
X131207000Y-131873000D01*
X131227000Y-131873000D01*
X131227000Y-132127000D01*
X131207000Y-132127000D01*
X131207000Y-133320155D01*
X131436890Y-133441476D01*
X131846924Y-133271645D01*
X132275183Y-132881358D01*
X132342298Y-132738447D01*
X132569946Y-133079147D01*
X133051715Y-133401054D01*
X133620000Y-133514093D01*
X134188285Y-133401054D01*
X134670054Y-133079147D01*
X134897702Y-132738447D01*
X134964817Y-132881358D01*
X135393076Y-133271645D01*
X135803110Y-133441476D01*
X136033000Y-133320155D01*
X136033000Y-132127000D01*
X136013000Y-132127000D01*
X136013000Y-131873000D01*
X136033000Y-131873000D01*
X136033000Y-130679845D01*
X136287000Y-130679845D01*
X136287000Y-131873000D01*
X136307000Y-131873000D01*
X136307000Y-132127000D01*
X136287000Y-132127000D01*
X136287000Y-133320155D01*
X136516890Y-133441476D01*
X136926924Y-133271645D01*
X137355183Y-132881358D01*
X137422298Y-132738447D01*
X137649946Y-133079147D01*
X138131715Y-133401054D01*
X138700000Y-133514093D01*
X139268285Y-133401054D01*
X139750054Y-133079147D01*
X139970000Y-132749974D01*
X140189946Y-133079147D01*
X140671715Y-133401054D01*
X141240000Y-133514093D01*
X141808285Y-133401054D01*
X142290054Y-133079147D01*
X142510000Y-132749974D01*
X142729946Y-133079147D01*
X143211715Y-133401054D01*
X143780000Y-133514093D01*
X144348285Y-133401054D01*
X144830054Y-133079147D01*
X145050000Y-132749974D01*
X145269946Y-133079147D01*
X145751715Y-133401054D01*
X146320000Y-133514093D01*
X146888285Y-133401054D01*
X147370054Y-133079147D01*
X147590000Y-132749974D01*
X147809946Y-133079147D01*
X148291715Y-133401054D01*
X148860000Y-133514093D01*
X149428285Y-133401054D01*
X149910054Y-133079147D01*
X150231961Y-132597378D01*
X150293947Y-132285750D01*
X166515000Y-132285750D01*
X166515000Y-132976309D01*
X166611673Y-133209698D01*
X166790301Y-133388327D01*
X167023690Y-133485000D01*
X167714250Y-133485000D01*
X167873000Y-133326250D01*
X167873000Y-132127000D01*
X166673750Y-132127000D01*
X166515000Y-132285750D01*
X150293947Y-132285750D01*
X150345000Y-132029093D01*
X150345000Y-131970907D01*
X150231961Y-131402622D01*
X149978768Y-131023691D01*
X166515000Y-131023691D01*
X166515000Y-131714250D01*
X166673750Y-131873000D01*
X167873000Y-131873000D01*
X167873000Y-130673750D01*
X168127000Y-130673750D01*
X168127000Y-131873000D01*
X168147000Y-131873000D01*
X168147000Y-132127000D01*
X168127000Y-132127000D01*
X168127000Y-133326250D01*
X168285750Y-133485000D01*
X168976310Y-133485000D01*
X169209699Y-133388327D01*
X169388327Y-133209698D01*
X169460597Y-133035223D01*
X169489946Y-133079147D01*
X169971715Y-133401054D01*
X170540000Y-133514093D01*
X171108285Y-133401054D01*
X171590054Y-133079147D01*
X171817702Y-132738447D01*
X171884817Y-132881358D01*
X172313076Y-133271645D01*
X172723110Y-133441476D01*
X172953000Y-133320155D01*
X172953000Y-132127000D01*
X173207000Y-132127000D01*
X173207000Y-133320155D01*
X173436890Y-133441476D01*
X173846924Y-133271645D01*
X174275183Y-132881358D01*
X174350000Y-132722046D01*
X174424817Y-132881358D01*
X174853076Y-133271645D01*
X175263110Y-133441476D01*
X175493000Y-133320155D01*
X175493000Y-132127000D01*
X173207000Y-132127000D01*
X172953000Y-132127000D01*
X172933000Y-132127000D01*
X172933000Y-131873000D01*
X172953000Y-131873000D01*
X172953000Y-130679845D01*
X173207000Y-130679845D01*
X173207000Y-131873000D01*
X175493000Y-131873000D01*
X175493000Y-130679845D01*
X175747000Y-130679845D01*
X175747000Y-131873000D01*
X175767000Y-131873000D01*
X175767000Y-132127000D01*
X175747000Y-132127000D01*
X175747000Y-133320155D01*
X175976890Y-133441476D01*
X176386924Y-133271645D01*
X176815183Y-132881358D01*
X176882298Y-132738447D01*
X177109946Y-133079147D01*
X177591715Y-133401054D01*
X178160000Y-133514093D01*
X178728285Y-133401054D01*
X179210054Y-133079147D01*
X179437702Y-132738447D01*
X179504817Y-132881358D01*
X179933076Y-133271645D01*
X180343110Y-133441476D01*
X180573000Y-133320155D01*
X180573000Y-132127000D01*
X180553000Y-132127000D01*
X180553000Y-131873000D01*
X180573000Y-131873000D01*
X180573000Y-130679845D01*
X180827000Y-130679845D01*
X180827000Y-131873000D01*
X180847000Y-131873000D01*
X180847000Y-132127000D01*
X180827000Y-132127000D01*
X180827000Y-133320155D01*
X181056890Y-133441476D01*
X181466924Y-133271645D01*
X181895183Y-132881358D01*
X181962298Y-132738447D01*
X182189946Y-133079147D01*
X182671715Y-133401054D01*
X183240000Y-133514093D01*
X183808285Y-133401054D01*
X184290054Y-133079147D01*
X184517702Y-132738447D01*
X184584817Y-132881358D01*
X185013076Y-133271645D01*
X185423110Y-133441476D01*
X185653000Y-133320155D01*
X185653000Y-132127000D01*
X185633000Y-132127000D01*
X185633000Y-131873000D01*
X185653000Y-131873000D01*
X185653000Y-130679845D01*
X185907000Y-130679845D01*
X185907000Y-131873000D01*
X185927000Y-131873000D01*
X185927000Y-132127000D01*
X185907000Y-132127000D01*
X185907000Y-133320155D01*
X186136890Y-133441476D01*
X186546924Y-133271645D01*
X186975183Y-132881358D01*
X187042298Y-132738447D01*
X187269946Y-133079147D01*
X187751715Y-133401054D01*
X188320000Y-133514093D01*
X188888285Y-133401054D01*
X189370054Y-133079147D01*
X189590000Y-132749974D01*
X189809946Y-133079147D01*
X190291715Y-133401054D01*
X190860000Y-133514093D01*
X191428285Y-133401054D01*
X191910054Y-133079147D01*
X192231961Y-132597378D01*
X192345000Y-132029093D01*
X192345000Y-131970907D01*
X192285734Y-131672956D01*
X207562965Y-131672956D01*
X208082122Y-132937027D01*
X208093797Y-132954499D01*
X208547660Y-133272735D01*
X210820395Y-131000000D01*
X208547660Y-128727265D01*
X208093797Y-129045501D01*
X207567064Y-130306434D01*
X207562965Y-131672956D01*
X192285734Y-131672956D01*
X192231961Y-131402622D01*
X191910054Y-130920853D01*
X191428285Y-130598946D01*
X190860000Y-130485907D01*
X190291715Y-130598946D01*
X189809946Y-130920853D01*
X189590000Y-131250026D01*
X189370054Y-130920853D01*
X188888285Y-130598946D01*
X188320000Y-130485907D01*
X187751715Y-130598946D01*
X187269946Y-130920853D01*
X187042298Y-131261553D01*
X186975183Y-131118642D01*
X186546924Y-130728355D01*
X186136890Y-130558524D01*
X185907000Y-130679845D01*
X185653000Y-130679845D01*
X185423110Y-130558524D01*
X185013076Y-130728355D01*
X184584817Y-131118642D01*
X184517702Y-131261553D01*
X184290054Y-130920853D01*
X183808285Y-130598946D01*
X183240000Y-130485907D01*
X182671715Y-130598946D01*
X182189946Y-130920853D01*
X181962298Y-131261553D01*
X181895183Y-131118642D01*
X181466924Y-130728355D01*
X181056890Y-130558524D01*
X180827000Y-130679845D01*
X180573000Y-130679845D01*
X180343110Y-130558524D01*
X179933076Y-130728355D01*
X179504817Y-131118642D01*
X179437702Y-131261553D01*
X179210054Y-130920853D01*
X178728285Y-130598946D01*
X178160000Y-130485907D01*
X177591715Y-130598946D01*
X177109946Y-130920853D01*
X176882298Y-131261553D01*
X176815183Y-131118642D01*
X176386924Y-130728355D01*
X175976890Y-130558524D01*
X175747000Y-130679845D01*
X175493000Y-130679845D01*
X175263110Y-130558524D01*
X174853076Y-130728355D01*
X174424817Y-131118642D01*
X174350000Y-131277954D01*
X174275183Y-131118642D01*
X173846924Y-130728355D01*
X173436890Y-130558524D01*
X173207000Y-130679845D01*
X172953000Y-130679845D01*
X172723110Y-130558524D01*
X172313076Y-130728355D01*
X171884817Y-131118642D01*
X171817702Y-131261553D01*
X171590054Y-130920853D01*
X171108285Y-130598946D01*
X170540000Y-130485907D01*
X169971715Y-130598946D01*
X169489946Y-130920853D01*
X169460597Y-130964777D01*
X169388327Y-130790302D01*
X169209699Y-130611673D01*
X168976310Y-130515000D01*
X168285750Y-130515000D01*
X168127000Y-130673750D01*
X167873000Y-130673750D01*
X167714250Y-130515000D01*
X167023690Y-130515000D01*
X166790301Y-130611673D01*
X166611673Y-130790302D01*
X166515000Y-131023691D01*
X149978768Y-131023691D01*
X149910054Y-130920853D01*
X149428285Y-130598946D01*
X148860000Y-130485907D01*
X148291715Y-130598946D01*
X147809946Y-130920853D01*
X147590000Y-131250026D01*
X147370054Y-130920853D01*
X146888285Y-130598946D01*
X146320000Y-130485907D01*
X145751715Y-130598946D01*
X145269946Y-130920853D01*
X145050000Y-131250026D01*
X144830054Y-130920853D01*
X144348285Y-130598946D01*
X143780000Y-130485907D01*
X143211715Y-130598946D01*
X142729946Y-130920853D01*
X142510000Y-131250026D01*
X142290054Y-130920853D01*
X141808285Y-130598946D01*
X141240000Y-130485907D01*
X140671715Y-130598946D01*
X140189946Y-130920853D01*
X139970000Y-131250026D01*
X139750054Y-130920853D01*
X139268285Y-130598946D01*
X138700000Y-130485907D01*
X138131715Y-130598946D01*
X137649946Y-130920853D01*
X137422298Y-131261553D01*
X137355183Y-131118642D01*
X136926924Y-130728355D01*
X136516890Y-130558524D01*
X136287000Y-130679845D01*
X136033000Y-130679845D01*
X135803110Y-130558524D01*
X135393076Y-130728355D01*
X134964817Y-131118642D01*
X134897702Y-131261553D01*
X134670054Y-130920853D01*
X134188285Y-130598946D01*
X133620000Y-130485907D01*
X133051715Y-130598946D01*
X132569946Y-130920853D01*
X132342298Y-131261553D01*
X132275183Y-131118642D01*
X131846924Y-130728355D01*
X131436890Y-130558524D01*
X131207000Y-130679845D01*
X130953000Y-130679845D01*
X130723110Y-130558524D01*
X130313076Y-130728355D01*
X129884817Y-131118642D01*
X129817702Y-131261553D01*
X129590054Y-130920853D01*
X129108285Y-130598946D01*
X128540000Y-130485907D01*
X127971715Y-130598946D01*
X127489946Y-130920853D01*
X127460597Y-130964777D01*
X127388327Y-130790302D01*
X127209699Y-130611673D01*
X126976310Y-130515000D01*
X126285750Y-130515000D01*
X126127000Y-130673750D01*
X125873000Y-130673750D01*
X125714250Y-130515000D01*
X125023690Y-130515000D01*
X124790301Y-130611673D01*
X124611673Y-130790302D01*
X124515000Y-131023691D01*
X122434945Y-131023691D01*
X122437035Y-130327044D01*
X121917878Y-129062973D01*
X121906203Y-129045501D01*
X121452340Y-128727265D01*
X119179605Y-131000000D01*
X118820395Y-131000000D01*
X116547660Y-128727265D01*
X116093797Y-129045501D01*
X115685000Y-130024110D01*
X115685000Y-128547660D01*
X116727265Y-128547660D01*
X119000000Y-130820395D01*
X121272735Y-128547660D01*
X208727265Y-128547660D01*
X211000000Y-130820395D01*
X213272735Y-128547660D01*
X212954499Y-128093797D01*
X211693566Y-127567064D01*
X210327044Y-127562965D01*
X209062973Y-128082122D01*
X209045501Y-128093797D01*
X208727265Y-128547660D01*
X121272735Y-128547660D01*
X120954499Y-128093797D01*
X119693566Y-127567064D01*
X118327044Y-127562965D01*
X117062973Y-128082122D01*
X117045501Y-128093797D01*
X116727265Y-128547660D01*
X115685000Y-128547660D01*
X115685000Y-117835167D01*
X133564838Y-117835167D01*
X133706883Y-118178943D01*
X133969673Y-118442192D01*
X134313201Y-118584838D01*
X134360077Y-118584879D01*
X141037599Y-125262401D01*
X141284161Y-125427148D01*
X141575000Y-125485000D01*
X145087537Y-125485000D01*
X145119673Y-125517192D01*
X145463201Y-125659838D01*
X145835167Y-125660162D01*
X146178943Y-125518117D01*
X146442192Y-125255327D01*
X146584838Y-124911799D01*
X146585083Y-124630000D01*
X173102560Y-124630000D01*
X173102560Y-126230000D01*
X173146838Y-126465317D01*
X173285910Y-126681441D01*
X173498110Y-126826431D01*
X173750000Y-126877440D01*
X175350000Y-126877440D01*
X175585317Y-126833162D01*
X175801441Y-126694090D01*
X175946431Y-126481890D01*
X175997440Y-126230000D01*
X175997440Y-125830000D01*
X200822560Y-125830000D01*
X200822560Y-127430000D01*
X200866838Y-127665317D01*
X201005910Y-127881441D01*
X201218110Y-128026431D01*
X201470000Y-128077440D01*
X203070000Y-128077440D01*
X203305317Y-128033162D01*
X203521441Y-127894090D01*
X203666431Y-127681890D01*
X203675370Y-127637745D01*
X203941861Y-127637745D01*
X204015995Y-127883864D01*
X204553223Y-128076965D01*
X205123454Y-128049778D01*
X205524005Y-127883864D01*
X205598139Y-127637745D01*
X204770000Y-126809605D01*
X203941861Y-127637745D01*
X203675370Y-127637745D01*
X203714646Y-127443799D01*
X203762255Y-127458139D01*
X204590395Y-126630000D01*
X204949605Y-126630000D01*
X205777745Y-127458139D01*
X206023864Y-127384005D01*
X206216965Y-126846777D01*
X206189778Y-126276546D01*
X206023864Y-125875995D01*
X205777745Y-125801861D01*
X204949605Y-126630000D01*
X204590395Y-126630000D01*
X203762255Y-125801861D01*
X203714833Y-125816145D01*
X203678351Y-125622255D01*
X203941861Y-125622255D01*
X204770000Y-126450395D01*
X205598139Y-125622255D01*
X205524005Y-125376136D01*
X204986777Y-125183035D01*
X204416546Y-125210222D01*
X204015995Y-125376136D01*
X203941861Y-125622255D01*
X203678351Y-125622255D01*
X203673162Y-125594683D01*
X203534090Y-125378559D01*
X203321890Y-125233569D01*
X203070000Y-125182560D01*
X201470000Y-125182560D01*
X201234683Y-125226838D01*
X201018559Y-125365910D01*
X200873569Y-125578110D01*
X200822560Y-125830000D01*
X175997440Y-125830000D01*
X175997440Y-124630000D01*
X175953162Y-124394683D01*
X175814090Y-124178559D01*
X175601890Y-124033569D01*
X175363799Y-123985354D01*
X175378139Y-123937745D01*
X174550000Y-123109605D01*
X173721861Y-123937745D01*
X173736145Y-123985167D01*
X173514683Y-124026838D01*
X173298559Y-124165910D01*
X173153569Y-124378110D01*
X173102560Y-124630000D01*
X146585083Y-124630000D01*
X146585162Y-124539833D01*
X146443117Y-124196057D01*
X146180327Y-123932808D01*
X145836799Y-123790162D01*
X145464833Y-123789838D01*
X145121057Y-123931883D01*
X145087882Y-123965000D01*
X141889802Y-123965000D01*
X140638025Y-122713223D01*
X173103035Y-122713223D01*
X173130222Y-123283454D01*
X173296136Y-123684005D01*
X173542255Y-123758139D01*
X174370395Y-122930000D01*
X174729605Y-122930000D01*
X175557745Y-123758139D01*
X175803864Y-123684005D01*
X175996965Y-123146777D01*
X175969778Y-122576546D01*
X175803864Y-122175995D01*
X175557745Y-122101861D01*
X174729605Y-122930000D01*
X174370395Y-122930000D01*
X173542255Y-122101861D01*
X173296136Y-122175995D01*
X173103035Y-122713223D01*
X140638025Y-122713223D01*
X139699969Y-121775167D01*
X157344838Y-121775167D01*
X157486883Y-122118943D01*
X157749673Y-122382192D01*
X158093201Y-122524838D01*
X158465167Y-122525162D01*
X158808943Y-122383117D01*
X158842118Y-122350000D01*
X160370000Y-122350000D01*
X160660839Y-122292148D01*
X160903511Y-122130000D01*
X162327537Y-122130000D01*
X162359673Y-122162192D01*
X162703201Y-122304838D01*
X163075167Y-122305162D01*
X163418943Y-122163117D01*
X163660225Y-121922255D01*
X173721861Y-121922255D01*
X174550000Y-122750395D01*
X175378139Y-121922255D01*
X175304005Y-121676136D01*
X174766777Y-121483035D01*
X174196546Y-121510222D01*
X173795995Y-121676136D01*
X173721861Y-121922255D01*
X163660225Y-121922255D01*
X163682192Y-121900327D01*
X163824838Y-121556799D01*
X163825105Y-121250000D01*
X190302560Y-121250000D01*
X190302560Y-122850000D01*
X190346838Y-123085317D01*
X190485910Y-123301441D01*
X190698110Y-123446431D01*
X190950000Y-123497440D01*
X192550000Y-123497440D01*
X192785317Y-123453162D01*
X193001441Y-123314090D01*
X193146431Y-123101890D01*
X193155370Y-123057745D01*
X193421861Y-123057745D01*
X193495995Y-123303864D01*
X194033223Y-123496965D01*
X194603454Y-123469778D01*
X195004005Y-123303864D01*
X195078139Y-123057745D01*
X194250000Y-122229605D01*
X193421861Y-123057745D01*
X193155370Y-123057745D01*
X193194646Y-122863799D01*
X193242255Y-122878139D01*
X194070395Y-122050000D01*
X194429605Y-122050000D01*
X195257745Y-122878139D01*
X195503864Y-122804005D01*
X195696965Y-122266777D01*
X195669778Y-121696546D01*
X195503864Y-121295995D01*
X195257745Y-121221861D01*
X194429605Y-122050000D01*
X194070395Y-122050000D01*
X193242255Y-121221861D01*
X193194833Y-121236145D01*
X193158351Y-121042255D01*
X193421861Y-121042255D01*
X194250000Y-121870395D01*
X195078139Y-121042255D01*
X195004005Y-120796136D01*
X194466777Y-120603035D01*
X193896546Y-120630222D01*
X193495995Y-120796136D01*
X193421861Y-121042255D01*
X193158351Y-121042255D01*
X193153162Y-121014683D01*
X193014090Y-120798559D01*
X192801890Y-120653569D01*
X192550000Y-120602560D01*
X190950000Y-120602560D01*
X190714683Y-120646838D01*
X190498559Y-120785910D01*
X190353569Y-120998110D01*
X190302560Y-121250000D01*
X163825105Y-121250000D01*
X163825162Y-121184833D01*
X163683117Y-120841057D01*
X163420327Y-120577808D01*
X163076799Y-120435162D01*
X162704833Y-120434838D01*
X162361057Y-120576883D01*
X162327882Y-120610000D01*
X162069061Y-120610000D01*
X162109838Y-120511799D01*
X162109879Y-120464923D01*
X164164802Y-118410000D01*
X164312537Y-118410000D01*
X164344673Y-118442192D01*
X164688201Y-118584838D01*
X165060167Y-118585162D01*
X165403943Y-118443117D01*
X165667192Y-118180327D01*
X165809838Y-117836799D01*
X165810162Y-117464833D01*
X165668117Y-117121057D01*
X165405327Y-116857808D01*
X165061799Y-116715162D01*
X164689833Y-116714838D01*
X164346057Y-116856883D01*
X164312882Y-116890000D01*
X163850000Y-116890000D01*
X163559160Y-116947852D01*
X163312599Y-117112599D01*
X161035320Y-119389878D01*
X160989833Y-119389838D01*
X160646057Y-119531883D01*
X160382808Y-119794673D01*
X160240162Y-120138201D01*
X160239838Y-120510167D01*
X160304549Y-120666780D01*
X160299161Y-120667852D01*
X160056489Y-120830000D01*
X158842463Y-120830000D01*
X158810327Y-120797808D01*
X158466799Y-120655162D01*
X158094833Y-120654838D01*
X157751057Y-120796883D01*
X157487808Y-121059673D01*
X157345162Y-121403201D01*
X157344838Y-121775167D01*
X139699969Y-121775167D01*
X137182547Y-119257745D01*
X146821861Y-119257745D01*
X146895995Y-119503864D01*
X147433223Y-119696965D01*
X148003454Y-119669778D01*
X148404005Y-119503864D01*
X148478139Y-119257745D01*
X147650000Y-118429605D01*
X146821861Y-119257745D01*
X137182547Y-119257745D01*
X135958025Y-118033223D01*
X146203035Y-118033223D01*
X146230222Y-118603454D01*
X146396136Y-119004005D01*
X146642255Y-119078139D01*
X147470395Y-118250000D01*
X147829605Y-118250000D01*
X148657745Y-119078139D01*
X148705167Y-119063855D01*
X148746838Y-119285317D01*
X148885910Y-119501441D01*
X149098110Y-119646431D01*
X149350000Y-119697440D01*
X150950000Y-119697440D01*
X151185317Y-119653162D01*
X151401441Y-119514090D01*
X151546431Y-119301890D01*
X151597440Y-119050000D01*
X151597440Y-117450000D01*
X151553162Y-117214683D01*
X151414090Y-116998559D01*
X151201890Y-116853569D01*
X150950000Y-116802560D01*
X149350000Y-116802560D01*
X149114683Y-116846838D01*
X148898559Y-116985910D01*
X148753569Y-117198110D01*
X148705354Y-117436201D01*
X148657745Y-117421861D01*
X147829605Y-118250000D01*
X147470395Y-118250000D01*
X146642255Y-117421861D01*
X146396136Y-117495995D01*
X146203035Y-118033223D01*
X135958025Y-118033223D01*
X135435122Y-117510320D01*
X135435162Y-117464833D01*
X135343195Y-117242255D01*
X146821861Y-117242255D01*
X147650000Y-118070395D01*
X148478139Y-117242255D01*
X148404005Y-116996136D01*
X147866777Y-116803035D01*
X147296546Y-116830222D01*
X146895995Y-116996136D01*
X146821861Y-117242255D01*
X135343195Y-117242255D01*
X135293117Y-117121057D01*
X135030327Y-116857808D01*
X134686799Y-116715162D01*
X134314833Y-116714838D01*
X133971057Y-116856883D01*
X133707808Y-117119673D01*
X133565162Y-117463201D01*
X133564838Y-117835167D01*
X115685000Y-117835167D01*
X115685000Y-112235750D01*
X174940000Y-112235750D01*
X174940000Y-112926310D01*
X175036673Y-113159699D01*
X175215302Y-113338327D01*
X175448691Y-113435000D01*
X176139250Y-113435000D01*
X176298000Y-113276250D01*
X176298000Y-112077000D01*
X176552000Y-112077000D01*
X176552000Y-113276250D01*
X176710750Y-113435000D01*
X177401309Y-113435000D01*
X177634698Y-113338327D01*
X177813327Y-113159699D01*
X177910000Y-112926310D01*
X177910000Y-112235750D01*
X177751250Y-112077000D01*
X176552000Y-112077000D01*
X176298000Y-112077000D01*
X175098750Y-112077000D01*
X174940000Y-112235750D01*
X115685000Y-112235750D01*
X115685000Y-106910167D01*
X164189838Y-106910167D01*
X164331883Y-107253943D01*
X164594673Y-107517192D01*
X164938201Y-107659838D01*
X165310167Y-107660162D01*
X165653943Y-107518117D01*
X165917192Y-107255327D01*
X166059838Y-106911799D01*
X166059874Y-106870000D01*
X174910907Y-106870000D01*
X175023946Y-107438285D01*
X175345853Y-107920054D01*
X175675026Y-108140000D01*
X175345853Y-108359946D01*
X175023946Y-108841715D01*
X174910907Y-109410000D01*
X175023946Y-109978285D01*
X175345853Y-110460054D01*
X175389777Y-110489403D01*
X175215302Y-110561673D01*
X175036673Y-110740301D01*
X174940000Y-110973690D01*
X174940000Y-111664250D01*
X175098750Y-111823000D01*
X176298000Y-111823000D01*
X176298000Y-111803000D01*
X176552000Y-111803000D01*
X176552000Y-111823000D01*
X177751250Y-111823000D01*
X177910000Y-111664250D01*
X177910000Y-110973690D01*
X177813327Y-110740301D01*
X177634698Y-110561673D01*
X177460223Y-110489403D01*
X177504147Y-110460054D01*
X177826054Y-109978285D01*
X177939093Y-109410000D01*
X177826054Y-108841715D01*
X177504147Y-108359946D01*
X177174974Y-108140000D01*
X177504147Y-107920054D01*
X177826054Y-107438285D01*
X177939093Y-106870000D01*
X177826054Y-106301715D01*
X177504147Y-105819946D01*
X177022378Y-105498039D01*
X176454093Y-105385000D01*
X176395907Y-105385000D01*
X175827622Y-105498039D01*
X175345853Y-105819946D01*
X175023946Y-106301715D01*
X174910907Y-106870000D01*
X166059874Y-106870000D01*
X166060162Y-106539833D01*
X165918117Y-106196057D01*
X165885000Y-106162882D01*
X165885000Y-103389802D01*
X168362401Y-100912401D01*
X168527148Y-100665839D01*
X168585000Y-100375000D01*
X168585000Y-96775000D01*
X168527148Y-96484161D01*
X168527148Y-96484160D01*
X168362401Y-96237599D01*
X168210122Y-96085320D01*
X168210162Y-96039833D01*
X168084277Y-95735167D01*
X175664838Y-95735167D01*
X175806883Y-96078943D01*
X176069673Y-96342192D01*
X176413201Y-96484838D01*
X176785167Y-96485162D01*
X177128943Y-96343117D01*
X177392192Y-96080327D01*
X177534838Y-95736799D01*
X177534879Y-95689923D01*
X178937401Y-94287401D01*
X179102148Y-94040840D01*
X179111746Y-93992586D01*
X179160000Y-93750000D01*
X179160000Y-92110167D01*
X188964838Y-92110167D01*
X189106883Y-92453943D01*
X189369673Y-92717192D01*
X189713201Y-92859838D01*
X190085167Y-92860162D01*
X190421422Y-92721224D01*
X199340000Y-101639802D01*
X199340000Y-110187537D01*
X199307808Y-110219673D01*
X199165162Y-110563201D01*
X199164838Y-110935167D01*
X199306883Y-111278943D01*
X199569673Y-111542192D01*
X199913201Y-111684838D01*
X200285167Y-111685162D01*
X200628943Y-111543117D01*
X200892192Y-111280327D01*
X201034838Y-110936799D01*
X201035162Y-110564833D01*
X200893117Y-110221057D01*
X200860000Y-110187882D01*
X200860000Y-109514873D01*
X208639812Y-109514873D01*
X208804646Y-109913800D01*
X209109595Y-110219282D01*
X209508233Y-110384811D01*
X209939873Y-110385188D01*
X210338800Y-110220354D01*
X210644282Y-109915405D01*
X210809811Y-109516767D01*
X210810188Y-109085127D01*
X210645354Y-108686200D01*
X210340405Y-108380718D01*
X209941767Y-108215189D01*
X209510127Y-108214812D01*
X209111200Y-108379646D01*
X208805718Y-108684595D01*
X208640189Y-109083233D01*
X208639812Y-109514873D01*
X200860000Y-109514873D01*
X200860000Y-105114873D01*
X208639812Y-105114873D01*
X208804646Y-105513800D01*
X209109595Y-105819282D01*
X209508233Y-105984811D01*
X209939873Y-105985188D01*
X210338800Y-105820354D01*
X210644282Y-105515405D01*
X210809811Y-105116767D01*
X210810188Y-104685127D01*
X210645354Y-104286200D01*
X210340405Y-103980718D01*
X209941767Y-103815189D01*
X209510127Y-103814812D01*
X209111200Y-103979646D01*
X208805718Y-104284595D01*
X208640189Y-104683233D01*
X208639812Y-105114873D01*
X200860000Y-105114873D01*
X200860000Y-101325000D01*
X200802148Y-101034161D01*
X200637401Y-100787599D01*
X197385552Y-97535750D01*
X210815000Y-97535750D01*
X210815000Y-98226310D01*
X210911673Y-98459699D01*
X211090302Y-98638327D01*
X211323691Y-98735000D01*
X212014250Y-98735000D01*
X212173000Y-98576250D01*
X212173000Y-97377000D01*
X212427000Y-97377000D01*
X212427000Y-98576250D01*
X212585750Y-98735000D01*
X213276309Y-98735000D01*
X213509698Y-98638327D01*
X213688327Y-98459699D01*
X213785000Y-98226310D01*
X213785000Y-97535750D01*
X213626250Y-97377000D01*
X212427000Y-97377000D01*
X212173000Y-97377000D01*
X210973750Y-97377000D01*
X210815000Y-97535750D01*
X197385552Y-97535750D01*
X192019802Y-92170000D01*
X210785907Y-92170000D01*
X210898946Y-92738285D01*
X211220853Y-93220054D01*
X211550026Y-93440000D01*
X211220853Y-93659946D01*
X210898946Y-94141715D01*
X210785907Y-94710000D01*
X210898946Y-95278285D01*
X211220853Y-95760054D01*
X211264777Y-95789403D01*
X211090302Y-95861673D01*
X210911673Y-96040301D01*
X210815000Y-96273690D01*
X210815000Y-96964250D01*
X210973750Y-97123000D01*
X212173000Y-97123000D01*
X212173000Y-97103000D01*
X212427000Y-97103000D01*
X212427000Y-97123000D01*
X213626250Y-97123000D01*
X213785000Y-96964250D01*
X213785000Y-96273690D01*
X213688327Y-96040301D01*
X213509698Y-95861673D01*
X213335223Y-95789403D01*
X213379147Y-95760054D01*
X213701054Y-95278285D01*
X213814093Y-94710000D01*
X213701054Y-94141715D01*
X213379147Y-93659946D01*
X213049974Y-93440000D01*
X213379147Y-93220054D01*
X213701054Y-92738285D01*
X213814093Y-92170000D01*
X213701054Y-91601715D01*
X213379147Y-91119946D01*
X213038447Y-90892298D01*
X213181358Y-90825183D01*
X213571645Y-90396924D01*
X213741476Y-89986890D01*
X213620155Y-89757000D01*
X212427000Y-89757000D01*
X212427000Y-89777000D01*
X212173000Y-89777000D01*
X212173000Y-89757000D01*
X210979845Y-89757000D01*
X210858524Y-89986890D01*
X211028355Y-90396924D01*
X211418642Y-90825183D01*
X211561553Y-90892298D01*
X211220853Y-91119946D01*
X210898946Y-91601715D01*
X210785907Y-92170000D01*
X192019802Y-92170000D01*
X191237401Y-91387599D01*
X190990839Y-91222852D01*
X190700000Y-91165000D01*
X190462463Y-91165000D01*
X190430327Y-91132808D01*
X190086799Y-90990162D01*
X189714833Y-90989838D01*
X189371057Y-91131883D01*
X189107808Y-91394673D01*
X188965162Y-91738201D01*
X188964838Y-92110167D01*
X179160000Y-92110167D01*
X179160000Y-88839802D01*
X181114680Y-86885122D01*
X181160167Y-86885162D01*
X181305770Y-86825000D01*
X184227560Y-86825000D01*
X184227560Y-89025000D01*
X184271838Y-89260317D01*
X184410910Y-89476441D01*
X184623110Y-89621431D01*
X184875000Y-89672440D01*
X187075000Y-89672440D01*
X187310317Y-89628162D01*
X187526441Y-89489090D01*
X187671431Y-89276890D01*
X187722440Y-89025000D01*
X187722440Y-86825000D01*
X187678162Y-86589683D01*
X187539090Y-86373559D01*
X187326890Y-86228569D01*
X187075000Y-86177560D01*
X184875000Y-86177560D01*
X184639683Y-86221838D01*
X184423559Y-86360910D01*
X184278569Y-86573110D01*
X184227560Y-86825000D01*
X181305770Y-86825000D01*
X181503943Y-86743117D01*
X181767192Y-86480327D01*
X181909838Y-86136799D01*
X181910162Y-85764833D01*
X181768117Y-85421057D01*
X181505327Y-85157808D01*
X181161799Y-85015162D01*
X180789833Y-85014838D01*
X180446057Y-85156883D01*
X180182808Y-85419673D01*
X180040162Y-85763201D01*
X180040121Y-85810077D01*
X177862599Y-87987599D01*
X177697852Y-88234161D01*
X177640000Y-88525000D01*
X177640000Y-93435198D01*
X176460320Y-94614878D01*
X176414833Y-94614838D01*
X176071057Y-94756883D01*
X175807808Y-95019673D01*
X175665162Y-95363201D01*
X175664838Y-95735167D01*
X168084277Y-95735167D01*
X168068117Y-95696057D01*
X167805327Y-95432808D01*
X167461799Y-95290162D01*
X167089833Y-95289838D01*
X166746057Y-95431883D01*
X166482808Y-95694673D01*
X166340162Y-96038201D01*
X166339838Y-96410167D01*
X166481883Y-96753943D01*
X166744673Y-97017192D01*
X167065000Y-97150204D01*
X167065000Y-100060198D01*
X164587599Y-102537599D01*
X164422852Y-102784161D01*
X164365000Y-103075000D01*
X164365000Y-106162537D01*
X164332808Y-106194673D01*
X164190162Y-106538201D01*
X164189838Y-106910167D01*
X115685000Y-106910167D01*
X115685000Y-102319814D01*
X136167688Y-102319814D01*
X136244922Y-102567696D01*
X136789938Y-102764387D01*
X137368738Y-102737537D01*
X137368763Y-102737527D01*
X137302325Y-103071530D01*
X137415365Y-103639815D01*
X137737272Y-104121584D01*
X137778416Y-104162727D01*
X138260185Y-104484635D01*
X138828470Y-104597674D01*
X139396754Y-104484635D01*
X139878523Y-104162727D01*
X139997164Y-103985167D01*
X150764838Y-103985167D01*
X150906883Y-104328943D01*
X151169673Y-104592192D01*
X151513201Y-104734838D01*
X151560077Y-104734879D01*
X152462599Y-105637401D01*
X152709161Y-105802148D01*
X153000000Y-105860000D01*
X162707972Y-105860000D01*
X162888201Y-105934838D01*
X163260167Y-105935162D01*
X163603943Y-105793117D01*
X163867192Y-105530327D01*
X164009838Y-105186799D01*
X164010162Y-104814833D01*
X163868117Y-104471057D01*
X163605327Y-104207808D01*
X163261799Y-104065162D01*
X162889833Y-104064838D01*
X162546057Y-104206883D01*
X162412707Y-104340000D01*
X153314802Y-104340000D01*
X152635122Y-103660320D01*
X152635162Y-103614833D01*
X152493117Y-103271057D01*
X152230327Y-103007808D01*
X151886799Y-102865162D01*
X151514833Y-102864838D01*
X151171057Y-103006883D01*
X150907808Y-103269673D01*
X150765162Y-103613201D01*
X150764838Y-103985167D01*
X139997164Y-103985167D01*
X140200431Y-103680958D01*
X140313470Y-103112674D01*
X140236235Y-102724388D01*
X140624521Y-102801623D01*
X141192805Y-102688584D01*
X141674574Y-102366676D01*
X141996482Y-101884907D01*
X142109521Y-101316623D01*
X142099761Y-101267554D01*
X142139894Y-101294976D01*
X142391056Y-101349460D01*
X142643627Y-101301936D01*
X142857809Y-101159891D01*
X144059891Y-99957809D01*
X144194976Y-99760106D01*
X144249460Y-99508944D01*
X144201936Y-99256373D01*
X144059891Y-99042191D01*
X142857809Y-97840109D01*
X142660106Y-97705024D01*
X142408944Y-97650540D01*
X142156373Y-97698064D01*
X142108463Y-97729837D01*
X142109521Y-97724521D01*
X141996482Y-97156236D01*
X141674574Y-96674467D01*
X141633431Y-96633323D01*
X141151662Y-96311416D01*
X140583377Y-96198376D01*
X140015092Y-96311416D01*
X139533323Y-96633323D01*
X139211416Y-97115092D01*
X139098376Y-97683377D01*
X139175612Y-98071663D01*
X138787326Y-97994427D01*
X138219041Y-98107467D01*
X137737272Y-98429374D01*
X137415365Y-98911143D01*
X137302325Y-99479428D01*
X137382265Y-99881311D01*
X137233754Y-99827715D01*
X136654954Y-99854565D01*
X136244928Y-100024414D01*
X136168158Y-100272758D01*
X137011846Y-101116446D01*
X137025989Y-101102304D01*
X137205594Y-101281909D01*
X137191451Y-101296051D01*
X137205594Y-101310194D01*
X137025989Y-101489799D01*
X137011846Y-101475656D01*
X136167688Y-102319814D01*
X115685000Y-102319814D01*
X115685000Y-101517959D01*
X135543510Y-101517959D01*
X135740201Y-102062975D01*
X135988083Y-102140209D01*
X136832241Y-101296051D01*
X135988553Y-100452363D01*
X135740209Y-100529133D01*
X135570360Y-100939159D01*
X135543510Y-101517959D01*
X115685000Y-101517959D01*
X115685000Y-86160000D01*
X129542560Y-86160000D01*
X129542560Y-87860000D01*
X129586838Y-88095317D01*
X129725910Y-88311441D01*
X129938110Y-88456431D01*
X129994454Y-88467841D01*
X129989946Y-88470853D01*
X129668039Y-88952622D01*
X129555000Y-89520907D01*
X129555000Y-89579093D01*
X129668039Y-90147378D01*
X129989946Y-90629147D01*
X130471715Y-90951054D01*
X131040000Y-91064093D01*
X131608285Y-90951054D01*
X132090054Y-90629147D01*
X132310000Y-90299974D01*
X132529946Y-90629147D01*
X133011715Y-90951054D01*
X133580000Y-91064093D01*
X134148285Y-90951054D01*
X134630054Y-90629147D01*
X134850000Y-90299974D01*
X135069946Y-90629147D01*
X135551715Y-90951054D01*
X136120000Y-91064093D01*
X136688285Y-90951054D01*
X137170054Y-90629147D01*
X137491961Y-90147378D01*
X137605000Y-89579093D01*
X137605000Y-89520907D01*
X137491961Y-88952622D01*
X137170054Y-88470853D01*
X136884422Y-88280000D01*
X137170054Y-88089147D01*
X137463212Y-87650403D01*
X163865195Y-87650403D01*
X164075691Y-88159842D01*
X164465118Y-88549949D01*
X164974189Y-88761334D01*
X165525403Y-88761815D01*
X166034842Y-88551319D01*
X166424949Y-88161892D01*
X166636334Y-87652821D01*
X166636815Y-87101607D01*
X166426319Y-86592168D01*
X166036892Y-86202061D01*
X165527821Y-85990676D01*
X164976607Y-85990195D01*
X164467168Y-86200691D01*
X164077061Y-86590118D01*
X163865676Y-87099189D01*
X163865195Y-87650403D01*
X137463212Y-87650403D01*
X137491961Y-87607378D01*
X137605000Y-87039093D01*
X137605000Y-86980907D01*
X137491961Y-86412622D01*
X137170054Y-85930853D01*
X136688285Y-85608946D01*
X136120000Y-85495907D01*
X135551715Y-85608946D01*
X135069946Y-85930853D01*
X134850000Y-86260026D01*
X134630054Y-85930853D01*
X134148285Y-85608946D01*
X133580000Y-85495907D01*
X133011715Y-85608946D01*
X132529946Y-85930853D01*
X132502150Y-85972452D01*
X132493162Y-85924683D01*
X132354090Y-85708559D01*
X132141890Y-85563569D01*
X131890000Y-85512560D01*
X130190000Y-85512560D01*
X129954683Y-85556838D01*
X129738559Y-85695910D01*
X129593569Y-85908110D01*
X129542560Y-86160000D01*
X115685000Y-86160000D01*
X115685000Y-84035167D01*
X144089838Y-84035167D01*
X144231883Y-84378943D01*
X144494673Y-84642192D01*
X144838201Y-84784838D01*
X145210167Y-84785162D01*
X145553943Y-84643117D01*
X145587118Y-84610000D01*
X155450000Y-84610000D01*
X155740839Y-84552148D01*
X155987401Y-84387401D01*
X156176409Y-84198393D01*
X160413185Y-84198393D01*
X160623681Y-84707832D01*
X161013108Y-85097939D01*
X161522179Y-85309324D01*
X162073393Y-85309805D01*
X162582832Y-85099309D01*
X162972939Y-84709882D01*
X163184324Y-84200811D01*
X163184805Y-83649597D01*
X162974309Y-83140158D01*
X162584882Y-82750051D01*
X162075811Y-82538666D01*
X161524597Y-82538185D01*
X161015158Y-82748681D01*
X160625051Y-83138108D01*
X160413666Y-83647179D01*
X160413185Y-84198393D01*
X156176409Y-84198393D01*
X162964802Y-77410000D01*
X179460198Y-77410000D01*
X192714878Y-90664680D01*
X192714838Y-90710167D01*
X192856883Y-91053943D01*
X193119673Y-91317192D01*
X193463201Y-91459838D01*
X193835167Y-91460162D01*
X194178943Y-91318117D01*
X194442192Y-91055327D01*
X194584838Y-90711799D01*
X194585162Y-90339833D01*
X194443117Y-89996057D01*
X194180327Y-89732808D01*
X193836799Y-89590162D01*
X193789923Y-89590121D01*
X192124802Y-87925000D01*
X194366009Y-87925000D01*
X194498078Y-88588956D01*
X194874179Y-89151830D01*
X195437053Y-89527931D01*
X196101009Y-89660000D01*
X196168991Y-89660000D01*
X196832947Y-89527931D01*
X197214312Y-89273110D01*
X210858524Y-89273110D01*
X210979845Y-89503000D01*
X212173000Y-89503000D01*
X212173000Y-88309181D01*
X212427000Y-88309181D01*
X212427000Y-89503000D01*
X213620155Y-89503000D01*
X213741476Y-89273110D01*
X213571645Y-88863076D01*
X213181358Y-88434817D01*
X212656892Y-88188514D01*
X212427000Y-88309181D01*
X212173000Y-88309181D01*
X211943108Y-88188514D01*
X211418642Y-88434817D01*
X211028355Y-88863076D01*
X210858524Y-89273110D01*
X197214312Y-89273110D01*
X197395821Y-89151830D01*
X197771922Y-88588956D01*
X197903991Y-87925000D01*
X197771922Y-87261044D01*
X197688204Y-87135750D01*
X203465000Y-87135750D01*
X203465000Y-88726310D01*
X203561673Y-88959699D01*
X203740302Y-89138327D01*
X203973691Y-89235000D01*
X205564250Y-89235000D01*
X205723000Y-89076250D01*
X205723000Y-86977000D01*
X205977000Y-86977000D01*
X205977000Y-89076250D01*
X206135750Y-89235000D01*
X207726309Y-89235000D01*
X207959698Y-89138327D01*
X208138327Y-88959699D01*
X208235000Y-88726310D01*
X208235000Y-87135750D01*
X208076250Y-86977000D01*
X205977000Y-86977000D01*
X205723000Y-86977000D01*
X203623750Y-86977000D01*
X203465000Y-87135750D01*
X197688204Y-87135750D01*
X197395821Y-86698170D01*
X196832947Y-86322069D01*
X196168991Y-86190000D01*
X196101009Y-86190000D01*
X195437053Y-86322069D01*
X194874179Y-86698170D01*
X194498078Y-87261044D01*
X194366009Y-87925000D01*
X192124802Y-87925000D01*
X184599802Y-80400000D01*
X200452560Y-80400000D01*
X200452560Y-83900000D01*
X200496838Y-84135317D01*
X200635910Y-84351441D01*
X200848110Y-84496431D01*
X201100000Y-84547440D01*
X203774663Y-84547440D01*
X203740302Y-84561673D01*
X203561673Y-84740301D01*
X203465000Y-84973690D01*
X203465000Y-86564250D01*
X203623750Y-86723000D01*
X205723000Y-86723000D01*
X205723000Y-84623750D01*
X205977000Y-84623750D01*
X205977000Y-86723000D01*
X208076250Y-86723000D01*
X208235000Y-86564250D01*
X208235000Y-84973690D01*
X208138327Y-84740301D01*
X207959698Y-84561673D01*
X207895304Y-84535000D01*
X208564250Y-84535000D01*
X208723000Y-84376250D01*
X208723000Y-82277000D01*
X208977000Y-82277000D01*
X208977000Y-84376250D01*
X209135750Y-84535000D01*
X210726309Y-84535000D01*
X210959698Y-84438327D01*
X211138327Y-84259699D01*
X211235000Y-84026310D01*
X211235000Y-82435750D01*
X211076250Y-82277000D01*
X208977000Y-82277000D01*
X208723000Y-82277000D01*
X206623750Y-82277000D01*
X206465000Y-82435750D01*
X206465000Y-84026310D01*
X206561673Y-84259699D01*
X206740302Y-84438327D01*
X206804696Y-84465000D01*
X206135750Y-84465000D01*
X205977000Y-84623750D01*
X205723000Y-84623750D01*
X205564250Y-84465000D01*
X204894622Y-84465000D01*
X205051441Y-84364090D01*
X205196431Y-84151890D01*
X205247440Y-83900000D01*
X205247440Y-80400000D01*
X205223674Y-80273690D01*
X206465000Y-80273690D01*
X206465000Y-81864250D01*
X206623750Y-82023000D01*
X208723000Y-82023000D01*
X208723000Y-79923750D01*
X208977000Y-79923750D01*
X208977000Y-82023000D01*
X211076250Y-82023000D01*
X211235000Y-81864250D01*
X211235000Y-80273690D01*
X211138327Y-80040301D01*
X210959698Y-79861673D01*
X210726309Y-79765000D01*
X209135750Y-79765000D01*
X208977000Y-79923750D01*
X208723000Y-79923750D01*
X208564250Y-79765000D01*
X206973691Y-79765000D01*
X206740302Y-79861673D01*
X206561673Y-80040301D01*
X206465000Y-80273690D01*
X205223674Y-80273690D01*
X205203162Y-80164683D01*
X205064090Y-79948559D01*
X204851890Y-79803569D01*
X204600000Y-79752560D01*
X201100000Y-79752560D01*
X200864683Y-79796838D01*
X200648559Y-79935910D01*
X200503569Y-80148110D01*
X200452560Y-80400000D01*
X184599802Y-80400000D01*
X180312401Y-76112599D01*
X180065839Y-75947852D01*
X179775000Y-75890000D01*
X162650000Y-75890000D01*
X162359161Y-75947852D01*
X162112599Y-76112599D01*
X155135198Y-83090000D01*
X145587463Y-83090000D01*
X145555327Y-83057808D01*
X145211799Y-82915162D01*
X144839833Y-82914838D01*
X144496057Y-83056883D01*
X144232808Y-83319673D01*
X144090162Y-83663201D01*
X144089838Y-84035167D01*
X115685000Y-84035167D01*
X115685000Y-80079694D01*
X120285226Y-80079694D01*
X120533538Y-80680655D01*
X120992927Y-81140846D01*
X121593453Y-81390206D01*
X122243694Y-81390774D01*
X122844655Y-81142462D01*
X123304846Y-80683073D01*
X123554206Y-80082547D01*
X123554334Y-79935167D01*
X149639838Y-79935167D01*
X149781883Y-80278943D01*
X150044673Y-80542192D01*
X150388201Y-80684838D01*
X150760167Y-80685162D01*
X151103943Y-80543117D01*
X151137118Y-80510000D01*
X156050000Y-80510000D01*
X156340839Y-80452148D01*
X156587401Y-80287401D01*
X164939680Y-71935122D01*
X164985167Y-71935162D01*
X165328943Y-71793117D01*
X165592192Y-71530327D01*
X165734838Y-71186799D01*
X165735162Y-70814833D01*
X165733235Y-70810167D01*
X191389838Y-70810167D01*
X191531883Y-71153943D01*
X191794673Y-71417192D01*
X192138201Y-71559838D01*
X192510167Y-71560162D01*
X192853943Y-71418117D01*
X193117192Y-71155327D01*
X193259838Y-70811799D01*
X193259879Y-70764923D01*
X195137401Y-68887401D01*
X195302148Y-68640839D01*
X195360000Y-68350000D01*
X195360000Y-62642163D01*
X201868703Y-62642163D01*
X201967302Y-62908965D01*
X202576842Y-63135401D01*
X203226637Y-63111341D01*
X203715218Y-62908965D01*
X203813817Y-62642163D01*
X202841260Y-61669605D01*
X201868703Y-62642163D01*
X195360000Y-62642163D01*
X195360000Y-61225582D01*
X201195859Y-61225582D01*
X201219919Y-61875377D01*
X201422295Y-62363958D01*
X201689097Y-62462557D01*
X202661655Y-61490000D01*
X203020865Y-61490000D01*
X203993423Y-62462557D01*
X204260225Y-62363958D01*
X204486661Y-61754418D01*
X204462601Y-61104623D01*
X204260225Y-60616042D01*
X203993423Y-60517443D01*
X203020865Y-61490000D01*
X202661655Y-61490000D01*
X201689097Y-60517443D01*
X201422295Y-60616042D01*
X201195859Y-61225582D01*
X195360000Y-61225582D01*
X195360000Y-60337837D01*
X201868703Y-60337837D01*
X202841260Y-61310395D01*
X203813817Y-60337837D01*
X203715218Y-60071035D01*
X203105678Y-59844599D01*
X202455883Y-59868659D01*
X201967302Y-60071035D01*
X201868703Y-60337837D01*
X195360000Y-60337837D01*
X195360000Y-56144873D01*
X208904812Y-56144873D01*
X209069646Y-56543800D01*
X209374595Y-56849282D01*
X209773233Y-57014811D01*
X210204873Y-57015188D01*
X210603800Y-56850354D01*
X210909282Y-56545405D01*
X211074811Y-56146767D01*
X211075188Y-55715127D01*
X210910354Y-55316200D01*
X210605405Y-55010718D01*
X210206767Y-54845189D01*
X209775127Y-54844812D01*
X209376200Y-55009646D01*
X209070718Y-55314595D01*
X208905189Y-55713233D01*
X208904812Y-56144873D01*
X195360000Y-56144873D01*
X195360000Y-52062463D01*
X195392192Y-52030327D01*
X195510723Y-51744873D01*
X208904812Y-51744873D01*
X209069646Y-52143800D01*
X209374595Y-52449282D01*
X209773233Y-52614811D01*
X210204873Y-52615188D01*
X210603800Y-52450354D01*
X210909282Y-52145405D01*
X211074811Y-51746767D01*
X211075188Y-51315127D01*
X210910354Y-50916200D01*
X210605405Y-50610718D01*
X210206767Y-50445189D01*
X209775127Y-50444812D01*
X209376200Y-50609646D01*
X209070718Y-50914595D01*
X208905189Y-51313233D01*
X208904812Y-51744873D01*
X195510723Y-51744873D01*
X195534838Y-51686799D01*
X195535162Y-51314833D01*
X195482524Y-51187440D01*
X196650000Y-51187440D01*
X196885317Y-51143162D01*
X197101441Y-51004090D01*
X197246431Y-50791890D01*
X197297440Y-50540000D01*
X197297440Y-48940000D01*
X197253162Y-48704683D01*
X197114090Y-48488559D01*
X197107452Y-48484023D01*
X197296965Y-47956777D01*
X197269778Y-47386546D01*
X197103864Y-46985995D01*
X196857745Y-46911861D01*
X196029605Y-47740000D01*
X196043748Y-47754142D01*
X195864143Y-47933748D01*
X195850000Y-47919605D01*
X195835858Y-47933748D01*
X195656252Y-47754142D01*
X195670395Y-47740000D01*
X194842255Y-46911861D01*
X194596136Y-46985995D01*
X194403035Y-47523223D01*
X194430222Y-48093454D01*
X194592384Y-48484947D01*
X194453569Y-48688110D01*
X194402560Y-48940000D01*
X194402560Y-50540000D01*
X194407782Y-50567751D01*
X194071057Y-50706883D01*
X193807808Y-50969673D01*
X193665162Y-51313201D01*
X193664838Y-51685167D01*
X193806883Y-52028943D01*
X193840000Y-52062118D01*
X193840000Y-68035198D01*
X192185320Y-69689878D01*
X192139833Y-69689838D01*
X191796057Y-69831883D01*
X191532808Y-70094673D01*
X191390162Y-70438201D01*
X191389838Y-70810167D01*
X165733235Y-70810167D01*
X165593117Y-70471057D01*
X165330327Y-70207808D01*
X164986799Y-70065162D01*
X164614833Y-70064838D01*
X164271057Y-70206883D01*
X164007808Y-70469673D01*
X163865162Y-70813201D01*
X163865121Y-70860077D01*
X155735198Y-78990000D01*
X151137463Y-78990000D01*
X151105327Y-78957808D01*
X150761799Y-78815162D01*
X150389833Y-78814838D01*
X150046057Y-78956883D01*
X149782808Y-79219673D01*
X149640162Y-79563201D01*
X149639838Y-79935167D01*
X123554334Y-79935167D01*
X123554774Y-79432306D01*
X123306462Y-78831345D01*
X122847073Y-78371154D01*
X122246547Y-78121794D01*
X121596306Y-78121226D01*
X120995345Y-78369538D01*
X120535154Y-78828927D01*
X120285794Y-79429453D01*
X120285226Y-80079694D01*
X115685000Y-80079694D01*
X115685000Y-76510000D01*
X142312560Y-76510000D01*
X142312560Y-78510000D01*
X142356838Y-78745317D01*
X142495910Y-78961441D01*
X142708110Y-79106431D01*
X142960000Y-79157440D01*
X144960000Y-79157440D01*
X145195317Y-79113162D01*
X145411441Y-78974090D01*
X145556431Y-78761890D01*
X145607440Y-78510000D01*
X145607440Y-76510000D01*
X145563162Y-76274683D01*
X145424090Y-76058559D01*
X145211890Y-75913569D01*
X144960000Y-75862560D01*
X142960000Y-75862560D01*
X142724683Y-75906838D01*
X142508559Y-76045910D01*
X142363569Y-76258110D01*
X142312560Y-76510000D01*
X115685000Y-76510000D01*
X115685000Y-74999694D01*
X120285226Y-74999694D01*
X120533538Y-75600655D01*
X120992927Y-76060846D01*
X121593453Y-76310206D01*
X122243694Y-76310774D01*
X122844655Y-76062462D01*
X123304846Y-75603073D01*
X123554206Y-75002547D01*
X123554774Y-74352306D01*
X123306462Y-73751345D01*
X123217804Y-73662532D01*
X142987073Y-73662532D01*
X143085736Y-73929387D01*
X143695461Y-74155908D01*
X144345460Y-74131856D01*
X144834264Y-73929387D01*
X144932927Y-73662532D01*
X143960000Y-72689605D01*
X142987073Y-73662532D01*
X123217804Y-73662532D01*
X122847073Y-73291154D01*
X122246547Y-73041794D01*
X121596306Y-73041226D01*
X120995345Y-73289538D01*
X120535154Y-73748927D01*
X120285794Y-74349453D01*
X120285226Y-74999694D01*
X115685000Y-74999694D01*
X115685000Y-72245461D01*
X142314092Y-72245461D01*
X142338144Y-72895460D01*
X142540613Y-73384264D01*
X142807468Y-73482927D01*
X143780395Y-72510000D01*
X144139605Y-72510000D01*
X145112532Y-73482927D01*
X145379387Y-73384264D01*
X145605908Y-72774539D01*
X145581856Y-72124540D01*
X145379387Y-71635736D01*
X145112532Y-71537073D01*
X144139605Y-72510000D01*
X143780395Y-72510000D01*
X142807468Y-71537073D01*
X142540613Y-71635736D01*
X142314092Y-72245461D01*
X115685000Y-72245461D01*
X115685000Y-71357468D01*
X142987073Y-71357468D01*
X143960000Y-72330395D01*
X144932927Y-71357468D01*
X144834264Y-71090613D01*
X144224539Y-70864092D01*
X143574540Y-70888144D01*
X143085736Y-71090613D01*
X142987073Y-71357468D01*
X115685000Y-71357468D01*
X115685000Y-68654187D01*
X138184752Y-68654187D01*
X138402757Y-69181800D01*
X138806077Y-69585824D01*
X139333309Y-69804750D01*
X139904187Y-69805248D01*
X140431800Y-69587243D01*
X140835824Y-69183923D01*
X141054750Y-68656691D01*
X141055059Y-68301887D01*
X141375000Y-68301887D01*
X141375000Y-68358113D01*
X141484233Y-68907264D01*
X141795302Y-69372811D01*
X142260849Y-69683880D01*
X142810000Y-69793113D01*
X143359151Y-69683880D01*
X143824698Y-69372811D01*
X144117122Y-68935167D01*
X151544838Y-68935167D01*
X151686883Y-69278943D01*
X151949673Y-69542192D01*
X152293201Y-69684838D01*
X152665167Y-69685162D01*
X153008943Y-69543117D01*
X153042118Y-69510000D01*
X158127537Y-69510000D01*
X158159673Y-69542192D01*
X158503201Y-69684838D01*
X158875167Y-69685162D01*
X159218943Y-69543117D01*
X159482192Y-69280327D01*
X159624838Y-68936799D01*
X159625162Y-68564833D01*
X159483117Y-68221057D01*
X159220327Y-67957808D01*
X158876799Y-67815162D01*
X158504833Y-67814838D01*
X158161057Y-67956883D01*
X158127882Y-67990000D01*
X153042463Y-67990000D01*
X153010327Y-67957808D01*
X152666799Y-67815162D01*
X152294833Y-67814838D01*
X151951057Y-67956883D01*
X151687808Y-68219673D01*
X151545162Y-68563201D01*
X151544838Y-68935167D01*
X144117122Y-68935167D01*
X144135767Y-68907264D01*
X144245000Y-68358113D01*
X144245000Y-68301887D01*
X144135767Y-67752736D01*
X143824698Y-67287189D01*
X143359151Y-66976120D01*
X142810000Y-66866887D01*
X142260849Y-66976120D01*
X141795302Y-67287189D01*
X141484233Y-67752736D01*
X141375000Y-68301887D01*
X141055059Y-68301887D01*
X141055248Y-68085813D01*
X140837243Y-67558200D01*
X140433923Y-67154176D01*
X139906691Y-66935250D01*
X139335813Y-66934752D01*
X138808200Y-67152757D01*
X138404176Y-67556077D01*
X138185250Y-68083309D01*
X138184752Y-68654187D01*
X115685000Y-68654187D01*
X115685000Y-64732000D01*
X146888560Y-64732000D01*
X146888560Y-66332000D01*
X146932838Y-66567317D01*
X147071910Y-66783441D01*
X147284110Y-66928431D01*
X147536000Y-66979440D01*
X149136000Y-66979440D01*
X149371317Y-66935162D01*
X149587441Y-66796090D01*
X149732431Y-66583890D01*
X149783440Y-66332000D01*
X149783440Y-65050000D01*
X185002560Y-65050000D01*
X185002560Y-66750000D01*
X185046838Y-66985317D01*
X185185910Y-67201441D01*
X185398110Y-67346431D01*
X185650000Y-67397440D01*
X187219194Y-67397440D01*
X187262599Y-67462401D01*
X188537599Y-68737401D01*
X188784160Y-68902148D01*
X189075000Y-68960000D01*
X191262537Y-68960000D01*
X191294673Y-68992192D01*
X191638201Y-69134838D01*
X192010167Y-69135162D01*
X192353943Y-68993117D01*
X192617192Y-68730327D01*
X192759838Y-68386799D01*
X192760162Y-68014833D01*
X192618117Y-67671057D01*
X192355327Y-67407808D01*
X192114446Y-67307785D01*
X192148285Y-67301054D01*
X192630054Y-66979147D01*
X192951961Y-66497378D01*
X193065000Y-65929093D01*
X193065000Y-65870907D01*
X192951961Y-65302622D01*
X192630054Y-64820853D01*
X192148285Y-64498946D01*
X191580000Y-64385907D01*
X191011715Y-64498946D01*
X190529946Y-64820853D01*
X190310000Y-65150026D01*
X190090054Y-64820853D01*
X189608285Y-64498946D01*
X189040000Y-64385907D01*
X188560000Y-64481385D01*
X188560000Y-64062506D01*
X188567192Y-64055327D01*
X188709838Y-63711799D01*
X188710162Y-63339833D01*
X188568117Y-62996057D01*
X188305327Y-62732808D01*
X187961799Y-62590162D01*
X187589833Y-62589838D01*
X187246057Y-62731883D01*
X186982808Y-62994673D01*
X186840162Y-63338201D01*
X186839838Y-63710167D01*
X186981883Y-64053943D01*
X187040000Y-64112162D01*
X187040000Y-64402560D01*
X185650000Y-64402560D01*
X185414683Y-64446838D01*
X185198559Y-64585910D01*
X185053569Y-64798110D01*
X185002560Y-65050000D01*
X149783440Y-65050000D01*
X149783440Y-64732000D01*
X149739162Y-64496683D01*
X149600090Y-64280559D01*
X149387890Y-64135569D01*
X149149799Y-64087354D01*
X149164139Y-64039745D01*
X148336000Y-63211605D01*
X147507861Y-64039745D01*
X147522145Y-64087167D01*
X147300683Y-64128838D01*
X147084559Y-64267910D01*
X146939569Y-64480110D01*
X146888560Y-64732000D01*
X115685000Y-64732000D01*
X115685000Y-62815223D01*
X146889035Y-62815223D01*
X146916222Y-63385454D01*
X147082136Y-63786005D01*
X147328255Y-63860139D01*
X148156395Y-63032000D01*
X148515605Y-63032000D01*
X149343745Y-63860139D01*
X149589864Y-63786005D01*
X149782965Y-63248777D01*
X149755778Y-62678546D01*
X149589864Y-62277995D01*
X149343745Y-62203861D01*
X148515605Y-63032000D01*
X148156395Y-63032000D01*
X147328255Y-62203861D01*
X147082136Y-62277995D01*
X146889035Y-62815223D01*
X115685000Y-62815223D01*
X115685000Y-62024255D01*
X147507861Y-62024255D01*
X148336000Y-62852395D01*
X149164139Y-62024255D01*
X149090005Y-61778136D01*
X148552777Y-61585035D01*
X147982546Y-61612222D01*
X147581995Y-61778136D01*
X147507861Y-62024255D01*
X115685000Y-62024255D01*
X115685000Y-58181887D01*
X138185000Y-58181887D01*
X138185000Y-58238113D01*
X138294233Y-58787264D01*
X138605302Y-59252811D01*
X139070849Y-59563880D01*
X139620000Y-59673113D01*
X140169151Y-59563880D01*
X140634698Y-59252811D01*
X140945767Y-58787264D01*
X141012020Y-58454187D01*
X141374752Y-58454187D01*
X141592757Y-58981800D01*
X141996077Y-59385824D01*
X142523309Y-59604750D01*
X143094187Y-59605248D01*
X143621800Y-59387243D01*
X144025824Y-58983923D01*
X144244750Y-58456691D01*
X144245248Y-57885813D01*
X144027243Y-57358200D01*
X143623923Y-56954176D01*
X143096691Y-56735250D01*
X142525813Y-56734752D01*
X141998200Y-56952757D01*
X141594176Y-57356077D01*
X141375250Y-57883309D01*
X141374752Y-58454187D01*
X141012020Y-58454187D01*
X141055000Y-58238113D01*
X141055000Y-58181887D01*
X140945767Y-57632736D01*
X140634698Y-57167189D01*
X140169151Y-56856120D01*
X139620000Y-56746887D01*
X139070849Y-56856120D01*
X138605302Y-57167189D01*
X138294233Y-57632736D01*
X138185000Y-58181887D01*
X115685000Y-58181887D01*
X115685000Y-55744398D01*
X166303250Y-55744398D01*
X166513746Y-56253837D01*
X166903173Y-56643944D01*
X167412244Y-56855329D01*
X167963458Y-56855810D01*
X168472897Y-56645314D01*
X168863004Y-56255887D01*
X169074389Y-55746816D01*
X169074391Y-55744398D01*
X171185130Y-55744398D01*
X171395626Y-56253837D01*
X171785053Y-56643944D01*
X172294124Y-56855329D01*
X172845338Y-56855810D01*
X173354777Y-56645314D01*
X173744884Y-56255887D01*
X173956269Y-55746816D01*
X173956750Y-55195602D01*
X173746254Y-54686163D01*
X173356827Y-54296056D01*
X172847756Y-54084671D01*
X172296542Y-54084190D01*
X171787103Y-54294686D01*
X171396996Y-54684113D01*
X171185611Y-55193184D01*
X171185130Y-55744398D01*
X169074391Y-55744398D01*
X169074870Y-55195602D01*
X168864374Y-54686163D01*
X168474947Y-54296056D01*
X167965876Y-54084671D01*
X167414662Y-54084190D01*
X166905223Y-54294686D01*
X166515116Y-54684113D01*
X166303731Y-55193184D01*
X166303250Y-55744398D01*
X115685000Y-55744398D01*
X115685000Y-46452340D01*
X116727265Y-46452340D01*
X117045501Y-46906203D01*
X118306434Y-47432936D01*
X119672956Y-47437035D01*
X120937027Y-46917878D01*
X120954499Y-46906203D01*
X121272735Y-46452340D01*
X119000000Y-44179605D01*
X116727265Y-46452340D01*
X115685000Y-46452340D01*
X115685000Y-44970093D01*
X116082122Y-45937027D01*
X116093797Y-45954499D01*
X116547660Y-46272735D01*
X118820395Y-44000000D01*
X119179605Y-44000000D01*
X121452340Y-46272735D01*
X121906203Y-45954499D01*
X122432936Y-44693566D01*
X122437035Y-43327044D01*
X122420076Y-43285750D01*
X124515000Y-43285750D01*
X124515000Y-43976309D01*
X124611673Y-44209698D01*
X124790301Y-44388327D01*
X125023690Y-44485000D01*
X125714250Y-44485000D01*
X125873000Y-44326250D01*
X125873000Y-43127000D01*
X124673750Y-43127000D01*
X124515000Y-43285750D01*
X122420076Y-43285750D01*
X121917878Y-42062973D01*
X121906203Y-42045501D01*
X121875098Y-42023691D01*
X124515000Y-42023691D01*
X124515000Y-42714250D01*
X124673750Y-42873000D01*
X125873000Y-42873000D01*
X125873000Y-41673750D01*
X126127000Y-41673750D01*
X126127000Y-42873000D01*
X126147000Y-42873000D01*
X126147000Y-43127000D01*
X126127000Y-43127000D01*
X126127000Y-44326250D01*
X126285750Y-44485000D01*
X126976310Y-44485000D01*
X127209699Y-44388327D01*
X127388327Y-44209698D01*
X127460597Y-44035223D01*
X127489946Y-44079147D01*
X127971715Y-44401054D01*
X128540000Y-44514093D01*
X129108285Y-44401054D01*
X129590054Y-44079147D01*
X129817702Y-43738447D01*
X129884817Y-43881358D01*
X130313076Y-44271645D01*
X130723110Y-44441476D01*
X130953000Y-44320155D01*
X130953000Y-43127000D01*
X130933000Y-43127000D01*
X130933000Y-42873000D01*
X130953000Y-42873000D01*
X130953000Y-41679845D01*
X131207000Y-41679845D01*
X131207000Y-42873000D01*
X131227000Y-42873000D01*
X131227000Y-43127000D01*
X131207000Y-43127000D01*
X131207000Y-44320155D01*
X131436890Y-44441476D01*
X131846924Y-44271645D01*
X132275183Y-43881358D01*
X132342298Y-43738447D01*
X132569946Y-44079147D01*
X133051715Y-44401054D01*
X133620000Y-44514093D01*
X134188285Y-44401054D01*
X134670054Y-44079147D01*
X134890000Y-43749974D01*
X135109946Y-44079147D01*
X135591715Y-44401054D01*
X136160000Y-44514093D01*
X136728285Y-44401054D01*
X137210054Y-44079147D01*
X137430000Y-43749974D01*
X137649946Y-44079147D01*
X138131715Y-44401054D01*
X138700000Y-44514093D01*
X139268285Y-44401054D01*
X139750054Y-44079147D01*
X139970000Y-43749974D01*
X140189946Y-44079147D01*
X140671715Y-44401054D01*
X141240000Y-44514093D01*
X141808285Y-44401054D01*
X142290054Y-44079147D01*
X142510000Y-43749974D01*
X142729946Y-44079147D01*
X143211715Y-44401054D01*
X143780000Y-44514093D01*
X144348285Y-44401054D01*
X144830054Y-44079147D01*
X145050000Y-43749974D01*
X145269946Y-44079147D01*
X145751715Y-44401054D01*
X146320000Y-44514093D01*
X146888285Y-44401054D01*
X147370054Y-44079147D01*
X147590000Y-43749974D01*
X147809946Y-44079147D01*
X148291715Y-44401054D01*
X148860000Y-44514093D01*
X149428285Y-44401054D01*
X149910054Y-44079147D01*
X150231961Y-43597378D01*
X150293947Y-43285750D01*
X181515000Y-43285750D01*
X181515000Y-43976309D01*
X181611673Y-44209698D01*
X181790301Y-44388327D01*
X182023690Y-44485000D01*
X182714250Y-44485000D01*
X182873000Y-44326250D01*
X182873000Y-43127000D01*
X181673750Y-43127000D01*
X181515000Y-43285750D01*
X150293947Y-43285750D01*
X150345000Y-43029093D01*
X150345000Y-42970907D01*
X150231961Y-42402622D01*
X149978768Y-42023691D01*
X181515000Y-42023691D01*
X181515000Y-42714250D01*
X181673750Y-42873000D01*
X182873000Y-42873000D01*
X182873000Y-41673750D01*
X183127000Y-41673750D01*
X183127000Y-42873000D01*
X183147000Y-42873000D01*
X183147000Y-43127000D01*
X183127000Y-43127000D01*
X183127000Y-44326250D01*
X183285750Y-44485000D01*
X183976310Y-44485000D01*
X184209699Y-44388327D01*
X184240000Y-44358026D01*
X184240000Y-50900000D01*
X184297852Y-51190839D01*
X184462599Y-51437401D01*
X187164878Y-54139680D01*
X187164838Y-54185167D01*
X187306883Y-54528943D01*
X187569673Y-54792192D01*
X187913201Y-54934838D01*
X188285167Y-54935162D01*
X188628943Y-54793117D01*
X188892192Y-54530327D01*
X189034838Y-54186799D01*
X189034970Y-54035118D01*
X189085167Y-54035162D01*
X189428943Y-53893117D01*
X189692192Y-53630327D01*
X189834838Y-53286799D01*
X189835162Y-52914833D01*
X189693117Y-52571057D01*
X189430327Y-52307808D01*
X189086799Y-52165162D01*
X189039923Y-52165121D01*
X186660000Y-49785198D01*
X186660000Y-48940000D01*
X188692560Y-48940000D01*
X188692560Y-50540000D01*
X188736838Y-50775317D01*
X188875910Y-50991441D01*
X189088110Y-51136431D01*
X189340000Y-51187440D01*
X190940000Y-51187440D01*
X191175317Y-51143162D01*
X191391441Y-51004090D01*
X191536431Y-50791890D01*
X191587440Y-50540000D01*
X191587440Y-48940000D01*
X191543162Y-48704683D01*
X191404090Y-48488559D01*
X191397452Y-48484023D01*
X191586965Y-47956777D01*
X191559778Y-47386546D01*
X191393864Y-46985995D01*
X191147745Y-46911861D01*
X190319605Y-47740000D01*
X190333748Y-47754142D01*
X190154143Y-47933748D01*
X190140000Y-47919605D01*
X190125858Y-47933748D01*
X189946252Y-47754142D01*
X189960395Y-47740000D01*
X189132255Y-46911861D01*
X188886136Y-46985995D01*
X188693035Y-47523223D01*
X188720222Y-48093454D01*
X188882384Y-48484947D01*
X188743569Y-48688110D01*
X188692560Y-48940000D01*
X186660000Y-48940000D01*
X186660000Y-46514802D01*
X186689041Y-46485761D01*
X186706883Y-46528943D01*
X186969673Y-46792192D01*
X187313201Y-46934838D01*
X187685167Y-46935162D01*
X188028943Y-46793117D01*
X188089911Y-46732255D01*
X189311861Y-46732255D01*
X190140000Y-47560395D01*
X190968139Y-46732255D01*
X195021861Y-46732255D01*
X195850000Y-47560395D01*
X196678139Y-46732255D01*
X196604005Y-46486136D01*
X196509981Y-46452340D01*
X208727265Y-46452340D01*
X209045501Y-46906203D01*
X210306434Y-47432936D01*
X211672956Y-47437035D01*
X212937027Y-46917878D01*
X212954499Y-46906203D01*
X213272735Y-46452340D01*
X211000000Y-44179605D01*
X208727265Y-46452340D01*
X196509981Y-46452340D01*
X196066777Y-46293035D01*
X195496546Y-46320222D01*
X195095995Y-46486136D01*
X195021861Y-46732255D01*
X190968139Y-46732255D01*
X190894005Y-46486136D01*
X190356777Y-46293035D01*
X189786546Y-46320222D01*
X189385995Y-46486136D01*
X189311861Y-46732255D01*
X188089911Y-46732255D01*
X188292192Y-46530327D01*
X188434838Y-46186799D01*
X188434861Y-46160000D01*
X198380000Y-46160000D01*
X198670839Y-46102148D01*
X198917401Y-45937401D01*
X200181846Y-44672956D01*
X207562965Y-44672956D01*
X208082122Y-45937027D01*
X208093797Y-45954499D01*
X208547660Y-46272735D01*
X210820395Y-44000000D01*
X208547660Y-41727265D01*
X208093797Y-42045501D01*
X207567064Y-43306434D01*
X207562965Y-44672956D01*
X200181846Y-44672956D01*
X200413592Y-44441210D01*
X200780000Y-44514093D01*
X201348285Y-44401054D01*
X201830054Y-44079147D01*
X202057702Y-43738447D01*
X202124817Y-43881358D01*
X202553076Y-44271645D01*
X202963110Y-44441476D01*
X203193000Y-44320155D01*
X203193000Y-43127000D01*
X203173000Y-43127000D01*
X203173000Y-42873000D01*
X203193000Y-42873000D01*
X203193000Y-41679845D01*
X203447000Y-41679845D01*
X203447000Y-42873000D01*
X203467000Y-42873000D01*
X203467000Y-43127000D01*
X203447000Y-43127000D01*
X203447000Y-44320155D01*
X203676890Y-44441476D01*
X204086924Y-44271645D01*
X204515183Y-43881358D01*
X204582298Y-43738447D01*
X204809946Y-44079147D01*
X205291715Y-44401054D01*
X205860000Y-44514093D01*
X206428285Y-44401054D01*
X206910054Y-44079147D01*
X207231961Y-43597378D01*
X207345000Y-43029093D01*
X207345000Y-42970907D01*
X207231961Y-42402622D01*
X206910054Y-41920853D01*
X206428285Y-41598946D01*
X205860000Y-41485907D01*
X205291715Y-41598946D01*
X204809946Y-41920853D01*
X204582298Y-42261553D01*
X204515183Y-42118642D01*
X204086924Y-41728355D01*
X203676890Y-41558524D01*
X203447000Y-41679845D01*
X203193000Y-41679845D01*
X202963110Y-41558524D01*
X202553076Y-41728355D01*
X202124817Y-42118642D01*
X202057702Y-42261553D01*
X201830054Y-41920853D01*
X201348285Y-41598946D01*
X200780000Y-41485907D01*
X200211715Y-41598946D01*
X199729946Y-41920853D01*
X199502298Y-42261553D01*
X199435183Y-42118642D01*
X199006924Y-41728355D01*
X198596890Y-41558524D01*
X198367000Y-41679845D01*
X198367000Y-42873000D01*
X198387000Y-42873000D01*
X198387000Y-43127000D01*
X198367000Y-43127000D01*
X198367000Y-43147000D01*
X198113000Y-43147000D01*
X198113000Y-43127000D01*
X198093000Y-43127000D01*
X198093000Y-42873000D01*
X198113000Y-42873000D01*
X198113000Y-41679845D01*
X197883110Y-41558524D01*
X197473076Y-41728355D01*
X197044817Y-42118642D01*
X196977702Y-42261553D01*
X196750054Y-41920853D01*
X196268285Y-41598946D01*
X195700000Y-41485907D01*
X195131715Y-41598946D01*
X194649946Y-41920853D01*
X194422298Y-42261553D01*
X194355183Y-42118642D01*
X193926924Y-41728355D01*
X193516890Y-41558524D01*
X193287000Y-41679845D01*
X193287000Y-42873000D01*
X193307000Y-42873000D01*
X193307000Y-43127000D01*
X193287000Y-43127000D01*
X193287000Y-44320155D01*
X193516890Y-44441476D01*
X193926924Y-44271645D01*
X194355183Y-43881358D01*
X194422298Y-43738447D01*
X194649946Y-44079147D01*
X195131715Y-44401054D01*
X195700000Y-44514093D01*
X196268285Y-44401054D01*
X196750054Y-44079147D01*
X196977702Y-43738447D01*
X197044817Y-43881358D01*
X197473076Y-44271645D01*
X197883110Y-44441476D01*
X198112998Y-44320156D01*
X198112998Y-44485000D01*
X198220198Y-44485000D01*
X198065198Y-44640000D01*
X190054802Y-44640000D01*
X190253592Y-44441210D01*
X190620000Y-44514093D01*
X191188285Y-44401054D01*
X191670054Y-44079147D01*
X191897702Y-43738447D01*
X191964817Y-43881358D01*
X192393076Y-44271645D01*
X192803110Y-44441476D01*
X193033000Y-44320155D01*
X193033000Y-43127000D01*
X193013000Y-43127000D01*
X193013000Y-42873000D01*
X193033000Y-42873000D01*
X193033000Y-41679845D01*
X192803110Y-41558524D01*
X192393076Y-41728355D01*
X191964817Y-42118642D01*
X191897702Y-42261553D01*
X191670054Y-41920853D01*
X191188285Y-41598946D01*
X190620000Y-41485907D01*
X190051715Y-41598946D01*
X189569946Y-41920853D01*
X189342298Y-42261553D01*
X189275183Y-42118642D01*
X188846924Y-41728355D01*
X188436890Y-41558524D01*
X188207000Y-41679845D01*
X188207000Y-42873000D01*
X188227000Y-42873000D01*
X188227000Y-43127000D01*
X188207000Y-43127000D01*
X188207000Y-43147000D01*
X187953000Y-43147000D01*
X187953000Y-43127000D01*
X187933000Y-43127000D01*
X187933000Y-42873000D01*
X187953000Y-42873000D01*
X187953000Y-41679845D01*
X187723110Y-41558524D01*
X187313076Y-41728355D01*
X186884817Y-42118642D01*
X186817702Y-42261553D01*
X186590054Y-41920853D01*
X186108285Y-41598946D01*
X185540000Y-41485907D01*
X184971715Y-41598946D01*
X184489946Y-41920853D01*
X184460597Y-41964777D01*
X184388327Y-41790302D01*
X184209699Y-41611673D01*
X183976310Y-41515000D01*
X183285750Y-41515000D01*
X183127000Y-41673750D01*
X182873000Y-41673750D01*
X182714250Y-41515000D01*
X182023690Y-41515000D01*
X181790301Y-41611673D01*
X181611673Y-41790302D01*
X181515000Y-42023691D01*
X149978768Y-42023691D01*
X149910054Y-41920853D01*
X149428285Y-41598946D01*
X148860000Y-41485907D01*
X148291715Y-41598946D01*
X147809946Y-41920853D01*
X147590000Y-42250026D01*
X147370054Y-41920853D01*
X146888285Y-41598946D01*
X146320000Y-41485907D01*
X145751715Y-41598946D01*
X145269946Y-41920853D01*
X145050000Y-42250026D01*
X144830054Y-41920853D01*
X144348285Y-41598946D01*
X143780000Y-41485907D01*
X143211715Y-41598946D01*
X142729946Y-41920853D01*
X142510000Y-42250026D01*
X142290054Y-41920853D01*
X141808285Y-41598946D01*
X141240000Y-41485907D01*
X140671715Y-41598946D01*
X140189946Y-41920853D01*
X139970000Y-42250026D01*
X139750054Y-41920853D01*
X139268285Y-41598946D01*
X138700000Y-41485907D01*
X138131715Y-41598946D01*
X137649946Y-41920853D01*
X137430000Y-42250026D01*
X137210054Y-41920853D01*
X136728285Y-41598946D01*
X136160000Y-41485907D01*
X135591715Y-41598946D01*
X135109946Y-41920853D01*
X134890000Y-42250026D01*
X134670054Y-41920853D01*
X134188285Y-41598946D01*
X133620000Y-41485907D01*
X133051715Y-41598946D01*
X132569946Y-41920853D01*
X132342298Y-42261553D01*
X132275183Y-42118642D01*
X131846924Y-41728355D01*
X131436890Y-41558524D01*
X131207000Y-41679845D01*
X130953000Y-41679845D01*
X130723110Y-41558524D01*
X130313076Y-41728355D01*
X129884817Y-42118642D01*
X129817702Y-42261553D01*
X129590054Y-41920853D01*
X129108285Y-41598946D01*
X128540000Y-41485907D01*
X127971715Y-41598946D01*
X127489946Y-41920853D01*
X127460597Y-41964777D01*
X127388327Y-41790302D01*
X127209699Y-41611673D01*
X126976310Y-41515000D01*
X126285750Y-41515000D01*
X126127000Y-41673750D01*
X125873000Y-41673750D01*
X125714250Y-41515000D01*
X125023690Y-41515000D01*
X124790301Y-41611673D01*
X124611673Y-41790302D01*
X124515000Y-42023691D01*
X121875098Y-42023691D01*
X121452340Y-41727265D01*
X119179605Y-44000000D01*
X118820395Y-44000000D01*
X116547660Y-41727265D01*
X116093797Y-42045501D01*
X115685000Y-43024110D01*
X115685000Y-40685000D01*
X118029907Y-40685000D01*
X117062973Y-41082122D01*
X117062973Y-41082122D01*
G37*
X117062973Y-41082122D02*
X117045501Y-41093797D01*
X116727265Y-41547660D01*
X119000000Y-43820395D01*
X121272735Y-41547660D01*
X120954499Y-41093797D01*
X119975890Y-40685000D01*
X210029907Y-40685000D01*
X209062973Y-41082122D01*
X209045501Y-41093797D01*
X208727265Y-41547660D01*
X211000000Y-43820395D01*
X213272735Y-41547660D01*
X212954499Y-41093797D01*
X211975890Y-40685000D01*
X214315000Y-40685000D01*
X214315000Y-43029907D01*
X213917878Y-42062973D01*
X213906203Y-42045501D01*
X213452340Y-41727265D01*
X211179605Y-44000000D01*
X213452340Y-46272735D01*
X213906203Y-45954499D01*
X214315000Y-44975890D01*
X214315000Y-60492496D01*
X213928333Y-60105154D01*
X213327807Y-59855794D01*
X212677566Y-59855226D01*
X212076605Y-60103538D01*
X211616414Y-60562927D01*
X211367054Y-61163453D01*
X211366486Y-61813694D01*
X211614798Y-62414655D01*
X212074187Y-62874846D01*
X212674713Y-63124206D01*
X213324954Y-63124774D01*
X213925915Y-62876462D01*
X214315000Y-62488055D01*
X214315000Y-130029907D01*
X213917878Y-129062973D01*
X213906203Y-129045501D01*
X213452340Y-128727265D01*
X211179605Y-131000000D01*
X213452340Y-133272735D01*
X213906203Y-132954499D01*
X214315000Y-131975890D01*
X214315000Y-134315000D01*
X211970093Y-134315000D01*
X212937027Y-133917878D01*
X212954499Y-133906203D01*
X213272735Y-133452340D01*
X211000000Y-131179605D01*
X208727265Y-133452340D01*
X209045501Y-133906203D01*
X210024110Y-134315000D01*
X119970093Y-134315000D01*
X120937027Y-133917878D01*
X120954499Y-133906203D01*
X121272735Y-133452340D01*
X119000000Y-131179605D01*
X116727265Y-133452340D01*
X117045501Y-133906203D01*
X118024110Y-134315000D01*
X115685000Y-134315000D01*
X115685000Y-131970093D01*
X116082122Y-132937027D01*
X116093797Y-132954499D01*
X116547660Y-133272735D01*
X118820395Y-131000000D01*
X119179605Y-131000000D01*
X121452340Y-133272735D01*
X121906203Y-132954499D01*
X122185561Y-132285750D01*
X124515000Y-132285750D01*
X124515000Y-132976309D01*
X124611673Y-133209698D01*
X124790301Y-133388327D01*
X125023690Y-133485000D01*
X125714250Y-133485000D01*
X125873000Y-133326250D01*
X125873000Y-132127000D01*
X124673750Y-132127000D01*
X124515000Y-132285750D01*
X122185561Y-132285750D01*
X122432936Y-131693566D01*
X122434945Y-131023691D01*
X124515000Y-131023691D01*
X124515000Y-131714250D01*
X124673750Y-131873000D01*
X125873000Y-131873000D01*
X125873000Y-130673750D01*
X126127000Y-130673750D01*
X126127000Y-131873000D01*
X126147000Y-131873000D01*
X126147000Y-132127000D01*
X126127000Y-132127000D01*
X126127000Y-133326250D01*
X126285750Y-133485000D01*
X126976310Y-133485000D01*
X127209699Y-133388327D01*
X127388327Y-133209698D01*
X127460597Y-133035223D01*
X127489946Y-133079147D01*
X127971715Y-133401054D01*
X128540000Y-133514093D01*
X129108285Y-133401054D01*
X129590054Y-133079147D01*
X129817702Y-132738447D01*
X129884817Y-132881358D01*
X130313076Y-133271645D01*
X130723110Y-133441476D01*
X130953000Y-133320155D01*
X130953000Y-132127000D01*
X130933000Y-132127000D01*
X130933000Y-131873000D01*
X130953000Y-131873000D01*
X130953000Y-130679845D01*
X131207000Y-130679845D01*
X131207000Y-131873000D01*
X131227000Y-131873000D01*
X131227000Y-132127000D01*
X131207000Y-132127000D01*
X131207000Y-133320155D01*
X131436890Y-133441476D01*
X131846924Y-133271645D01*
X132275183Y-132881358D01*
X132342298Y-132738447D01*
X132569946Y-133079147D01*
X133051715Y-133401054D01*
X133620000Y-133514093D01*
X134188285Y-133401054D01*
X134670054Y-133079147D01*
X134897702Y-132738447D01*
X134964817Y-132881358D01*
X135393076Y-133271645D01*
X135803110Y-133441476D01*
X136033000Y-133320155D01*
X136033000Y-132127000D01*
X136013000Y-132127000D01*
X136013000Y-131873000D01*
X136033000Y-131873000D01*
X136033000Y-130679845D01*
X136287000Y-130679845D01*
X136287000Y-131873000D01*
X136307000Y-131873000D01*
X136307000Y-132127000D01*
X136287000Y-132127000D01*
X136287000Y-133320155D01*
X136516890Y-133441476D01*
X136926924Y-133271645D01*
X137355183Y-132881358D01*
X137422298Y-132738447D01*
X137649946Y-133079147D01*
X138131715Y-133401054D01*
X138700000Y-133514093D01*
X139268285Y-133401054D01*
X139750054Y-133079147D01*
X139970000Y-132749974D01*
X140189946Y-133079147D01*
X140671715Y-133401054D01*
X141240000Y-133514093D01*
X141808285Y-133401054D01*
X142290054Y-133079147D01*
X142510000Y-132749974D01*
X142729946Y-133079147D01*
X143211715Y-133401054D01*
X143780000Y-133514093D01*
X144348285Y-133401054D01*
X144830054Y-133079147D01*
X145050000Y-132749974D01*
X145269946Y-133079147D01*
X145751715Y-133401054D01*
X146320000Y-133514093D01*
X146888285Y-133401054D01*
X147370054Y-133079147D01*
X147590000Y-132749974D01*
X147809946Y-133079147D01*
X148291715Y-133401054D01*
X148860000Y-133514093D01*
X149428285Y-133401054D01*
X149910054Y-133079147D01*
X150231961Y-132597378D01*
X150293947Y-132285750D01*
X166515000Y-132285750D01*
X166515000Y-132976309D01*
X166611673Y-133209698D01*
X166790301Y-133388327D01*
X167023690Y-133485000D01*
X167714250Y-133485000D01*
X167873000Y-133326250D01*
X167873000Y-132127000D01*
X166673750Y-132127000D01*
X166515000Y-132285750D01*
X150293947Y-132285750D01*
X150345000Y-132029093D01*
X150345000Y-131970907D01*
X150231961Y-131402622D01*
X149978768Y-131023691D01*
X166515000Y-131023691D01*
X166515000Y-131714250D01*
X166673750Y-131873000D01*
X167873000Y-131873000D01*
X167873000Y-130673750D01*
X168127000Y-130673750D01*
X168127000Y-131873000D01*
X168147000Y-131873000D01*
X168147000Y-132127000D01*
X168127000Y-132127000D01*
X168127000Y-133326250D01*
X168285750Y-133485000D01*
X168976310Y-133485000D01*
X169209699Y-133388327D01*
X169388327Y-133209698D01*
X169460597Y-133035223D01*
X169489946Y-133079147D01*
X169971715Y-133401054D01*
X170540000Y-133514093D01*
X171108285Y-133401054D01*
X171590054Y-133079147D01*
X171817702Y-132738447D01*
X171884817Y-132881358D01*
X172313076Y-133271645D01*
X172723110Y-133441476D01*
X172953000Y-133320155D01*
X172953000Y-132127000D01*
X173207000Y-132127000D01*
X173207000Y-133320155D01*
X173436890Y-133441476D01*
X173846924Y-133271645D01*
X174275183Y-132881358D01*
X174350000Y-132722046D01*
X174424817Y-132881358D01*
X174853076Y-133271645D01*
X175263110Y-133441476D01*
X175493000Y-133320155D01*
X175493000Y-132127000D01*
X173207000Y-132127000D01*
X172953000Y-132127000D01*
X172933000Y-132127000D01*
X172933000Y-131873000D01*
X172953000Y-131873000D01*
X172953000Y-130679845D01*
X173207000Y-130679845D01*
X173207000Y-131873000D01*
X175493000Y-131873000D01*
X175493000Y-130679845D01*
X175747000Y-130679845D01*
X175747000Y-131873000D01*
X175767000Y-131873000D01*
X175767000Y-132127000D01*
X175747000Y-132127000D01*
X175747000Y-133320155D01*
X175976890Y-133441476D01*
X176386924Y-133271645D01*
X176815183Y-132881358D01*
X176882298Y-132738447D01*
X177109946Y-133079147D01*
X177591715Y-133401054D01*
X178160000Y-133514093D01*
X178728285Y-133401054D01*
X179210054Y-133079147D01*
X179437702Y-132738447D01*
X179504817Y-132881358D01*
X179933076Y-133271645D01*
X180343110Y-133441476D01*
X180573000Y-133320155D01*
X180573000Y-132127000D01*
X180553000Y-132127000D01*
X180553000Y-131873000D01*
X180573000Y-131873000D01*
X180573000Y-130679845D01*
X180827000Y-130679845D01*
X180827000Y-131873000D01*
X180847000Y-131873000D01*
X180847000Y-132127000D01*
X180827000Y-132127000D01*
X180827000Y-133320155D01*
X181056890Y-133441476D01*
X181466924Y-133271645D01*
X181895183Y-132881358D01*
X181962298Y-132738447D01*
X182189946Y-133079147D01*
X182671715Y-133401054D01*
X183240000Y-133514093D01*
X183808285Y-133401054D01*
X184290054Y-133079147D01*
X184517702Y-132738447D01*
X184584817Y-132881358D01*
X185013076Y-133271645D01*
X185423110Y-133441476D01*
X185653000Y-133320155D01*
X185653000Y-132127000D01*
X185633000Y-132127000D01*
X185633000Y-131873000D01*
X185653000Y-131873000D01*
X185653000Y-130679845D01*
X185907000Y-130679845D01*
X185907000Y-131873000D01*
X185927000Y-131873000D01*
X185927000Y-132127000D01*
X185907000Y-132127000D01*
X185907000Y-133320155D01*
X186136890Y-133441476D01*
X186546924Y-133271645D01*
X186975183Y-132881358D01*
X187042298Y-132738447D01*
X187269946Y-133079147D01*
X187751715Y-133401054D01*
X188320000Y-133514093D01*
X188888285Y-133401054D01*
X189370054Y-133079147D01*
X189590000Y-132749974D01*
X189809946Y-133079147D01*
X190291715Y-133401054D01*
X190860000Y-133514093D01*
X191428285Y-133401054D01*
X191910054Y-133079147D01*
X192231961Y-132597378D01*
X192345000Y-132029093D01*
X192345000Y-131970907D01*
X192285734Y-131672956D01*
X207562965Y-131672956D01*
X208082122Y-132937027D01*
X208093797Y-132954499D01*
X208547660Y-133272735D01*
X210820395Y-131000000D01*
X208547660Y-128727265D01*
X208093797Y-129045501D01*
X207567064Y-130306434D01*
X207562965Y-131672956D01*
X192285734Y-131672956D01*
X192231961Y-131402622D01*
X191910054Y-130920853D01*
X191428285Y-130598946D01*
X190860000Y-130485907D01*
X190291715Y-130598946D01*
X189809946Y-130920853D01*
X189590000Y-131250026D01*
X189370054Y-130920853D01*
X188888285Y-130598946D01*
X188320000Y-130485907D01*
X187751715Y-130598946D01*
X187269946Y-130920853D01*
X187042298Y-131261553D01*
X186975183Y-131118642D01*
X186546924Y-130728355D01*
X186136890Y-130558524D01*
X185907000Y-130679845D01*
X185653000Y-130679845D01*
X185423110Y-130558524D01*
X185013076Y-130728355D01*
X184584817Y-131118642D01*
X184517702Y-131261553D01*
X184290054Y-130920853D01*
X183808285Y-130598946D01*
X183240000Y-130485907D01*
X182671715Y-130598946D01*
X182189946Y-130920853D01*
X181962298Y-131261553D01*
X181895183Y-131118642D01*
X181466924Y-130728355D01*
X181056890Y-130558524D01*
X180827000Y-130679845D01*
X180573000Y-130679845D01*
X180343110Y-130558524D01*
X179933076Y-130728355D01*
X179504817Y-131118642D01*
X179437702Y-131261553D01*
X179210054Y-130920853D01*
X178728285Y-130598946D01*
X178160000Y-130485907D01*
X177591715Y-130598946D01*
X177109946Y-130920853D01*
X176882298Y-131261553D01*
X176815183Y-131118642D01*
X176386924Y-130728355D01*
X175976890Y-130558524D01*
X175747000Y-130679845D01*
X175493000Y-130679845D01*
X175263110Y-130558524D01*
X174853076Y-130728355D01*
X174424817Y-131118642D01*
X174350000Y-131277954D01*
X174275183Y-131118642D01*
X173846924Y-130728355D01*
X173436890Y-130558524D01*
X173207000Y-130679845D01*
X172953000Y-130679845D01*
X172723110Y-130558524D01*
X172313076Y-130728355D01*
X171884817Y-131118642D01*
X171817702Y-131261553D01*
X171590054Y-130920853D01*
X171108285Y-130598946D01*
X170540000Y-130485907D01*
X169971715Y-130598946D01*
X169489946Y-130920853D01*
X169460597Y-130964777D01*
X169388327Y-130790302D01*
X169209699Y-130611673D01*
X168976310Y-130515000D01*
X168285750Y-130515000D01*
X168127000Y-130673750D01*
X167873000Y-130673750D01*
X167714250Y-130515000D01*
X167023690Y-130515000D01*
X166790301Y-130611673D01*
X166611673Y-130790302D01*
X166515000Y-131023691D01*
X149978768Y-131023691D01*
X149910054Y-130920853D01*
X149428285Y-130598946D01*
X148860000Y-130485907D01*
X148291715Y-130598946D01*
X147809946Y-130920853D01*
X147590000Y-131250026D01*
X147370054Y-130920853D01*
X146888285Y-130598946D01*
X146320000Y-130485907D01*
X145751715Y-130598946D01*
X145269946Y-130920853D01*
X145050000Y-131250026D01*
X144830054Y-130920853D01*
X144348285Y-130598946D01*
X143780000Y-130485907D01*
X143211715Y-130598946D01*
X142729946Y-130920853D01*
X142510000Y-131250026D01*
X142290054Y-130920853D01*
X141808285Y-130598946D01*
X141240000Y-130485907D01*
X140671715Y-130598946D01*
X140189946Y-130920853D01*
X139970000Y-131250026D01*
X139750054Y-130920853D01*
X139268285Y-130598946D01*
X138700000Y-130485907D01*
X138131715Y-130598946D01*
X137649946Y-130920853D01*
X137422298Y-131261553D01*
X137355183Y-131118642D01*
X136926924Y-130728355D01*
X136516890Y-130558524D01*
X136287000Y-130679845D01*
X136033000Y-130679845D01*
X135803110Y-130558524D01*
X135393076Y-130728355D01*
X134964817Y-131118642D01*
X134897702Y-131261553D01*
X134670054Y-130920853D01*
X134188285Y-130598946D01*
X133620000Y-130485907D01*
X133051715Y-130598946D01*
X132569946Y-130920853D01*
X132342298Y-131261553D01*
X132275183Y-131118642D01*
X131846924Y-130728355D01*
X131436890Y-130558524D01*
X131207000Y-130679845D01*
X130953000Y-130679845D01*
X130723110Y-130558524D01*
X130313076Y-130728355D01*
X129884817Y-131118642D01*
X129817702Y-131261553D01*
X129590054Y-130920853D01*
X129108285Y-130598946D01*
X128540000Y-130485907D01*
X127971715Y-130598946D01*
X127489946Y-130920853D01*
X127460597Y-130964777D01*
X127388327Y-130790302D01*
X127209699Y-130611673D01*
X126976310Y-130515000D01*
X126285750Y-130515000D01*
X126127000Y-130673750D01*
X125873000Y-130673750D01*
X125714250Y-130515000D01*
X125023690Y-130515000D01*
X124790301Y-130611673D01*
X124611673Y-130790302D01*
X124515000Y-131023691D01*
X122434945Y-131023691D01*
X122437035Y-130327044D01*
X121917878Y-129062973D01*
X121906203Y-129045501D01*
X121452340Y-128727265D01*
X119179605Y-131000000D01*
X118820395Y-131000000D01*
X116547660Y-128727265D01*
X116093797Y-129045501D01*
X115685000Y-130024110D01*
X115685000Y-128547660D01*
X116727265Y-128547660D01*
X119000000Y-130820395D01*
X121272735Y-128547660D01*
X208727265Y-128547660D01*
X211000000Y-130820395D01*
X213272735Y-128547660D01*
X212954499Y-128093797D01*
X211693566Y-127567064D01*
X210327044Y-127562965D01*
X209062973Y-128082122D01*
X209045501Y-128093797D01*
X208727265Y-128547660D01*
X121272735Y-128547660D01*
X120954499Y-128093797D01*
X119693566Y-127567064D01*
X118327044Y-127562965D01*
X117062973Y-128082122D01*
X117045501Y-128093797D01*
X116727265Y-128547660D01*
X115685000Y-128547660D01*
X115685000Y-117835167D01*
X133564838Y-117835167D01*
X133706883Y-118178943D01*
X133969673Y-118442192D01*
X134313201Y-118584838D01*
X134360077Y-118584879D01*
X141037599Y-125262401D01*
X141284161Y-125427148D01*
X141575000Y-125485000D01*
X145087537Y-125485000D01*
X145119673Y-125517192D01*
X145463201Y-125659838D01*
X145835167Y-125660162D01*
X146178943Y-125518117D01*
X146442192Y-125255327D01*
X146584838Y-124911799D01*
X146585083Y-124630000D01*
X173102560Y-124630000D01*
X173102560Y-126230000D01*
X173146838Y-126465317D01*
X173285910Y-126681441D01*
X173498110Y-126826431D01*
X173750000Y-126877440D01*
X175350000Y-126877440D01*
X175585317Y-126833162D01*
X175801441Y-126694090D01*
X175946431Y-126481890D01*
X175997440Y-126230000D01*
X175997440Y-125830000D01*
X200822560Y-125830000D01*
X200822560Y-127430000D01*
X200866838Y-127665317D01*
X201005910Y-127881441D01*
X201218110Y-128026431D01*
X201470000Y-128077440D01*
X203070000Y-128077440D01*
X203305317Y-128033162D01*
X203521441Y-127894090D01*
X203666431Y-127681890D01*
X203675370Y-127637745D01*
X203941861Y-127637745D01*
X204015995Y-127883864D01*
X204553223Y-128076965D01*
X205123454Y-128049778D01*
X205524005Y-127883864D01*
X205598139Y-127637745D01*
X204770000Y-126809605D01*
X203941861Y-127637745D01*
X203675370Y-127637745D01*
X203714646Y-127443799D01*
X203762255Y-127458139D01*
X204590395Y-126630000D01*
X204949605Y-126630000D01*
X205777745Y-127458139D01*
X206023864Y-127384005D01*
X206216965Y-126846777D01*
X206189778Y-126276546D01*
X206023864Y-125875995D01*
X205777745Y-125801861D01*
X204949605Y-126630000D01*
X204590395Y-126630000D01*
X203762255Y-125801861D01*
X203714833Y-125816145D01*
X203678351Y-125622255D01*
X203941861Y-125622255D01*
X204770000Y-126450395D01*
X205598139Y-125622255D01*
X205524005Y-125376136D01*
X204986777Y-125183035D01*
X204416546Y-125210222D01*
X204015995Y-125376136D01*
X203941861Y-125622255D01*
X203678351Y-125622255D01*
X203673162Y-125594683D01*
X203534090Y-125378559D01*
X203321890Y-125233569D01*
X203070000Y-125182560D01*
X201470000Y-125182560D01*
X201234683Y-125226838D01*
X201018559Y-125365910D01*
X200873569Y-125578110D01*
X200822560Y-125830000D01*
X175997440Y-125830000D01*
X175997440Y-124630000D01*
X175953162Y-124394683D01*
X175814090Y-124178559D01*
X175601890Y-124033569D01*
X175363799Y-123985354D01*
X175378139Y-123937745D01*
X174550000Y-123109605D01*
X173721861Y-123937745D01*
X173736145Y-123985167D01*
X173514683Y-124026838D01*
X173298559Y-124165910D01*
X173153569Y-124378110D01*
X173102560Y-124630000D01*
X146585083Y-124630000D01*
X146585162Y-124539833D01*
X146443117Y-124196057D01*
X146180327Y-123932808D01*
X145836799Y-123790162D01*
X145464833Y-123789838D01*
X145121057Y-123931883D01*
X145087882Y-123965000D01*
X141889802Y-123965000D01*
X140638025Y-122713223D01*
X173103035Y-122713223D01*
X173130222Y-123283454D01*
X173296136Y-123684005D01*
X173542255Y-123758139D01*
X174370395Y-122930000D01*
X174729605Y-122930000D01*
X175557745Y-123758139D01*
X175803864Y-123684005D01*
X175996965Y-123146777D01*
X175969778Y-122576546D01*
X175803864Y-122175995D01*
X175557745Y-122101861D01*
X174729605Y-122930000D01*
X174370395Y-122930000D01*
X173542255Y-122101861D01*
X173296136Y-122175995D01*
X173103035Y-122713223D01*
X140638025Y-122713223D01*
X139699969Y-121775167D01*
X157344838Y-121775167D01*
X157486883Y-122118943D01*
X157749673Y-122382192D01*
X158093201Y-122524838D01*
X158465167Y-122525162D01*
X158808943Y-122383117D01*
X158842118Y-122350000D01*
X160370000Y-122350000D01*
X160660839Y-122292148D01*
X160903511Y-122130000D01*
X162327537Y-122130000D01*
X162359673Y-122162192D01*
X162703201Y-122304838D01*
X163075167Y-122305162D01*
X163418943Y-122163117D01*
X163660225Y-121922255D01*
X173721861Y-121922255D01*
X174550000Y-122750395D01*
X175378139Y-121922255D01*
X175304005Y-121676136D01*
X174766777Y-121483035D01*
X174196546Y-121510222D01*
X173795995Y-121676136D01*
X173721861Y-121922255D01*
X163660225Y-121922255D01*
X163682192Y-121900327D01*
X163824838Y-121556799D01*
X163825105Y-121250000D01*
X190302560Y-121250000D01*
X190302560Y-122850000D01*
X190346838Y-123085317D01*
X190485910Y-123301441D01*
X190698110Y-123446431D01*
X190950000Y-123497440D01*
X192550000Y-123497440D01*
X192785317Y-123453162D01*
X193001441Y-123314090D01*
X193146431Y-123101890D01*
X193155370Y-123057745D01*
X193421861Y-123057745D01*
X193495995Y-123303864D01*
X194033223Y-123496965D01*
X194603454Y-123469778D01*
X195004005Y-123303864D01*
X195078139Y-123057745D01*
X194250000Y-122229605D01*
X193421861Y-123057745D01*
X193155370Y-123057745D01*
X193194646Y-122863799D01*
X193242255Y-122878139D01*
X194070395Y-122050000D01*
X194429605Y-122050000D01*
X195257745Y-122878139D01*
X195503864Y-122804005D01*
X195696965Y-122266777D01*
X195669778Y-121696546D01*
X195503864Y-121295995D01*
X195257745Y-121221861D01*
X194429605Y-122050000D01*
X194070395Y-122050000D01*
X193242255Y-121221861D01*
X193194833Y-121236145D01*
X193158351Y-121042255D01*
X193421861Y-121042255D01*
X194250000Y-121870395D01*
X195078139Y-121042255D01*
X195004005Y-120796136D01*
X194466777Y-120603035D01*
X193896546Y-120630222D01*
X193495995Y-120796136D01*
X193421861Y-121042255D01*
X193158351Y-121042255D01*
X193153162Y-121014683D01*
X193014090Y-120798559D01*
X192801890Y-120653569D01*
X192550000Y-120602560D01*
X190950000Y-120602560D01*
X190714683Y-120646838D01*
X190498559Y-120785910D01*
X190353569Y-120998110D01*
X190302560Y-121250000D01*
X163825105Y-121250000D01*
X163825162Y-121184833D01*
X163683117Y-120841057D01*
X163420327Y-120577808D01*
X163076799Y-120435162D01*
X162704833Y-120434838D01*
X162361057Y-120576883D01*
X162327882Y-120610000D01*
X162069061Y-120610000D01*
X162109838Y-120511799D01*
X162109879Y-120464923D01*
X164164802Y-118410000D01*
X164312537Y-118410000D01*
X164344673Y-118442192D01*
X164688201Y-118584838D01*
X165060167Y-118585162D01*
X165403943Y-118443117D01*
X165667192Y-118180327D01*
X165809838Y-117836799D01*
X165810162Y-117464833D01*
X165668117Y-117121057D01*
X165405327Y-116857808D01*
X165061799Y-116715162D01*
X164689833Y-116714838D01*
X164346057Y-116856883D01*
X164312882Y-116890000D01*
X163850000Y-116890000D01*
X163559160Y-116947852D01*
X163312599Y-117112599D01*
X161035320Y-119389878D01*
X160989833Y-119389838D01*
X160646057Y-119531883D01*
X160382808Y-119794673D01*
X160240162Y-120138201D01*
X160239838Y-120510167D01*
X160304549Y-120666780D01*
X160299161Y-120667852D01*
X160056489Y-120830000D01*
X158842463Y-120830000D01*
X158810327Y-120797808D01*
X158466799Y-120655162D01*
X158094833Y-120654838D01*
X157751057Y-120796883D01*
X157487808Y-121059673D01*
X157345162Y-121403201D01*
X157344838Y-121775167D01*
X139699969Y-121775167D01*
X137182547Y-119257745D01*
X146821861Y-119257745D01*
X146895995Y-119503864D01*
X147433223Y-119696965D01*
X148003454Y-119669778D01*
X148404005Y-119503864D01*
X148478139Y-119257745D01*
X147650000Y-118429605D01*
X146821861Y-119257745D01*
X137182547Y-119257745D01*
X135958025Y-118033223D01*
X146203035Y-118033223D01*
X146230222Y-118603454D01*
X146396136Y-119004005D01*
X146642255Y-119078139D01*
X147470395Y-118250000D01*
X147829605Y-118250000D01*
X148657745Y-119078139D01*
X148705167Y-119063855D01*
X148746838Y-119285317D01*
X148885910Y-119501441D01*
X149098110Y-119646431D01*
X149350000Y-119697440D01*
X150950000Y-119697440D01*
X151185317Y-119653162D01*
X151401441Y-119514090D01*
X151546431Y-119301890D01*
X151597440Y-119050000D01*
X151597440Y-117450000D01*
X151553162Y-117214683D01*
X151414090Y-116998559D01*
X151201890Y-116853569D01*
X150950000Y-116802560D01*
X149350000Y-116802560D01*
X149114683Y-116846838D01*
X148898559Y-116985910D01*
X148753569Y-117198110D01*
X148705354Y-117436201D01*
X148657745Y-117421861D01*
X147829605Y-118250000D01*
X147470395Y-118250000D01*
X146642255Y-117421861D01*
X146396136Y-117495995D01*
X146203035Y-118033223D01*
X135958025Y-118033223D01*
X135435122Y-117510320D01*
X135435162Y-117464833D01*
X135343195Y-117242255D01*
X146821861Y-117242255D01*
X147650000Y-118070395D01*
X148478139Y-117242255D01*
X148404005Y-116996136D01*
X147866777Y-116803035D01*
X147296546Y-116830222D01*
X146895995Y-116996136D01*
X146821861Y-117242255D01*
X135343195Y-117242255D01*
X135293117Y-117121057D01*
X135030327Y-116857808D01*
X134686799Y-116715162D01*
X134314833Y-116714838D01*
X133971057Y-116856883D01*
X133707808Y-117119673D01*
X133565162Y-117463201D01*
X133564838Y-117835167D01*
X115685000Y-117835167D01*
X115685000Y-112235750D01*
X174940000Y-112235750D01*
X174940000Y-112926310D01*
X175036673Y-113159699D01*
X175215302Y-113338327D01*
X175448691Y-113435000D01*
X176139250Y-113435000D01*
X176298000Y-113276250D01*
X176298000Y-112077000D01*
X176552000Y-112077000D01*
X176552000Y-113276250D01*
X176710750Y-113435000D01*
X177401309Y-113435000D01*
X177634698Y-113338327D01*
X177813327Y-113159699D01*
X177910000Y-112926310D01*
X177910000Y-112235750D01*
X177751250Y-112077000D01*
X176552000Y-112077000D01*
X176298000Y-112077000D01*
X175098750Y-112077000D01*
X174940000Y-112235750D01*
X115685000Y-112235750D01*
X115685000Y-106910167D01*
X164189838Y-106910167D01*
X164331883Y-107253943D01*
X164594673Y-107517192D01*
X164938201Y-107659838D01*
X165310167Y-107660162D01*
X165653943Y-107518117D01*
X165917192Y-107255327D01*
X166059838Y-106911799D01*
X166059874Y-106870000D01*
X174910907Y-106870000D01*
X175023946Y-107438285D01*
X175345853Y-107920054D01*
X175675026Y-108140000D01*
X175345853Y-108359946D01*
X175023946Y-108841715D01*
X174910907Y-109410000D01*
X175023946Y-109978285D01*
X175345853Y-110460054D01*
X175389777Y-110489403D01*
X175215302Y-110561673D01*
X175036673Y-110740301D01*
X174940000Y-110973690D01*
X174940000Y-111664250D01*
X175098750Y-111823000D01*
X176298000Y-111823000D01*
X176298000Y-111803000D01*
X176552000Y-111803000D01*
X176552000Y-111823000D01*
X177751250Y-111823000D01*
X177910000Y-111664250D01*
X177910000Y-110973690D01*
X177813327Y-110740301D01*
X177634698Y-110561673D01*
X177460223Y-110489403D01*
X177504147Y-110460054D01*
X177826054Y-109978285D01*
X177939093Y-109410000D01*
X177826054Y-108841715D01*
X177504147Y-108359946D01*
X177174974Y-108140000D01*
X177504147Y-107920054D01*
X177826054Y-107438285D01*
X177939093Y-106870000D01*
X177826054Y-106301715D01*
X177504147Y-105819946D01*
X177022378Y-105498039D01*
X176454093Y-105385000D01*
X176395907Y-105385000D01*
X175827622Y-105498039D01*
X175345853Y-105819946D01*
X175023946Y-106301715D01*
X174910907Y-106870000D01*
X166059874Y-106870000D01*
X166060162Y-106539833D01*
X165918117Y-106196057D01*
X165885000Y-106162882D01*
X165885000Y-103389802D01*
X168362401Y-100912401D01*
X168527148Y-100665839D01*
X168585000Y-100375000D01*
X168585000Y-96775000D01*
X168527148Y-96484161D01*
X168527148Y-96484160D01*
X168362401Y-96237599D01*
X168210122Y-96085320D01*
X168210162Y-96039833D01*
X168084277Y-95735167D01*
X175664838Y-95735167D01*
X175806883Y-96078943D01*
X176069673Y-96342192D01*
X176413201Y-96484838D01*
X176785167Y-96485162D01*
X177128943Y-96343117D01*
X177392192Y-96080327D01*
X177534838Y-95736799D01*
X177534879Y-95689923D01*
X178937401Y-94287401D01*
X179102148Y-94040840D01*
X179111746Y-93992586D01*
X179160000Y-93750000D01*
X179160000Y-92110167D01*
X188964838Y-92110167D01*
X189106883Y-92453943D01*
X189369673Y-92717192D01*
X189713201Y-92859838D01*
X190085167Y-92860162D01*
X190421422Y-92721224D01*
X199340000Y-101639802D01*
X199340000Y-110187537D01*
X199307808Y-110219673D01*
X199165162Y-110563201D01*
X199164838Y-110935167D01*
X199306883Y-111278943D01*
X199569673Y-111542192D01*
X199913201Y-111684838D01*
X200285167Y-111685162D01*
X200628943Y-111543117D01*
X200892192Y-111280327D01*
X201034838Y-110936799D01*
X201035162Y-110564833D01*
X200893117Y-110221057D01*
X200860000Y-110187882D01*
X200860000Y-109514873D01*
X208639812Y-109514873D01*
X208804646Y-109913800D01*
X209109595Y-110219282D01*
X209508233Y-110384811D01*
X209939873Y-110385188D01*
X210338800Y-110220354D01*
X210644282Y-109915405D01*
X210809811Y-109516767D01*
X210810188Y-109085127D01*
X210645354Y-108686200D01*
X210340405Y-108380718D01*
X209941767Y-108215189D01*
X209510127Y-108214812D01*
X209111200Y-108379646D01*
X208805718Y-108684595D01*
X208640189Y-109083233D01*
X208639812Y-109514873D01*
X200860000Y-109514873D01*
X200860000Y-105114873D01*
X208639812Y-105114873D01*
X208804646Y-105513800D01*
X209109595Y-105819282D01*
X209508233Y-105984811D01*
X209939873Y-105985188D01*
X210338800Y-105820354D01*
X210644282Y-105515405D01*
X210809811Y-105116767D01*
X210810188Y-104685127D01*
X210645354Y-104286200D01*
X210340405Y-103980718D01*
X209941767Y-103815189D01*
X209510127Y-103814812D01*
X209111200Y-103979646D01*
X208805718Y-104284595D01*
X208640189Y-104683233D01*
X208639812Y-105114873D01*
X200860000Y-105114873D01*
X200860000Y-101325000D01*
X200802148Y-101034161D01*
X200637401Y-100787599D01*
X197385552Y-97535750D01*
X210815000Y-97535750D01*
X210815000Y-98226310D01*
X210911673Y-98459699D01*
X211090302Y-98638327D01*
X211323691Y-98735000D01*
X212014250Y-98735000D01*
X212173000Y-98576250D01*
X212173000Y-97377000D01*
X212427000Y-97377000D01*
X212427000Y-98576250D01*
X212585750Y-98735000D01*
X213276309Y-98735000D01*
X213509698Y-98638327D01*
X213688327Y-98459699D01*
X213785000Y-98226310D01*
X213785000Y-97535750D01*
X213626250Y-97377000D01*
X212427000Y-97377000D01*
X212173000Y-97377000D01*
X210973750Y-97377000D01*
X210815000Y-97535750D01*
X197385552Y-97535750D01*
X192019802Y-92170000D01*
X210785907Y-92170000D01*
X210898946Y-92738285D01*
X211220853Y-93220054D01*
X211550026Y-93440000D01*
X211220853Y-93659946D01*
X210898946Y-94141715D01*
X210785907Y-94710000D01*
X210898946Y-95278285D01*
X211220853Y-95760054D01*
X211264777Y-95789403D01*
X211090302Y-95861673D01*
X210911673Y-96040301D01*
X210815000Y-96273690D01*
X210815000Y-96964250D01*
X210973750Y-97123000D01*
X212173000Y-97123000D01*
X212173000Y-97103000D01*
X212427000Y-97103000D01*
X212427000Y-97123000D01*
X213626250Y-97123000D01*
X213785000Y-96964250D01*
X213785000Y-96273690D01*
X213688327Y-96040301D01*
X213509698Y-95861673D01*
X213335223Y-95789403D01*
X213379147Y-95760054D01*
X213701054Y-95278285D01*
X213814093Y-94710000D01*
X213701054Y-94141715D01*
X213379147Y-93659946D01*
X213049974Y-93440000D01*
X213379147Y-93220054D01*
X213701054Y-92738285D01*
X213814093Y-92170000D01*
X213701054Y-91601715D01*
X213379147Y-91119946D01*
X213038447Y-90892298D01*
X213181358Y-90825183D01*
X213571645Y-90396924D01*
X213741476Y-89986890D01*
X213620155Y-89757000D01*
X212427000Y-89757000D01*
X212427000Y-89777000D01*
X212173000Y-89777000D01*
X212173000Y-89757000D01*
X210979845Y-89757000D01*
X210858524Y-89986890D01*
X211028355Y-90396924D01*
X211418642Y-90825183D01*
X211561553Y-90892298D01*
X211220853Y-91119946D01*
X210898946Y-91601715D01*
X210785907Y-92170000D01*
X192019802Y-92170000D01*
X191237401Y-91387599D01*
X190990839Y-91222852D01*
X190700000Y-91165000D01*
X190462463Y-91165000D01*
X190430327Y-91132808D01*
X190086799Y-90990162D01*
X189714833Y-90989838D01*
X189371057Y-91131883D01*
X189107808Y-91394673D01*
X188965162Y-91738201D01*
X188964838Y-92110167D01*
X179160000Y-92110167D01*
X179160000Y-88839802D01*
X181114680Y-86885122D01*
X181160167Y-86885162D01*
X181305770Y-86825000D01*
X184227560Y-86825000D01*
X184227560Y-89025000D01*
X184271838Y-89260317D01*
X184410910Y-89476441D01*
X184623110Y-89621431D01*
X184875000Y-89672440D01*
X187075000Y-89672440D01*
X187310317Y-89628162D01*
X187526441Y-89489090D01*
X187671431Y-89276890D01*
X187722440Y-89025000D01*
X187722440Y-86825000D01*
X187678162Y-86589683D01*
X187539090Y-86373559D01*
X187326890Y-86228569D01*
X187075000Y-86177560D01*
X184875000Y-86177560D01*
X184639683Y-86221838D01*
X184423559Y-86360910D01*
X184278569Y-86573110D01*
X184227560Y-86825000D01*
X181305770Y-86825000D01*
X181503943Y-86743117D01*
X181767192Y-86480327D01*
X181909838Y-86136799D01*
X181910162Y-85764833D01*
X181768117Y-85421057D01*
X181505327Y-85157808D01*
X181161799Y-85015162D01*
X180789833Y-85014838D01*
X180446057Y-85156883D01*
X180182808Y-85419673D01*
X180040162Y-85763201D01*
X180040121Y-85810077D01*
X177862599Y-87987599D01*
X177697852Y-88234161D01*
X177640000Y-88525000D01*
X177640000Y-93435198D01*
X176460320Y-94614878D01*
X176414833Y-94614838D01*
X176071057Y-94756883D01*
X175807808Y-95019673D01*
X175665162Y-95363201D01*
X175664838Y-95735167D01*
X168084277Y-95735167D01*
X168068117Y-95696057D01*
X167805327Y-95432808D01*
X167461799Y-95290162D01*
X167089833Y-95289838D01*
X166746057Y-95431883D01*
X166482808Y-95694673D01*
X166340162Y-96038201D01*
X166339838Y-96410167D01*
X166481883Y-96753943D01*
X166744673Y-97017192D01*
X167065000Y-97150204D01*
X167065000Y-100060198D01*
X164587599Y-102537599D01*
X164422852Y-102784161D01*
X164365000Y-103075000D01*
X164365000Y-106162537D01*
X164332808Y-106194673D01*
X164190162Y-106538201D01*
X164189838Y-106910167D01*
X115685000Y-106910167D01*
X115685000Y-102319814D01*
X136167688Y-102319814D01*
X136244922Y-102567696D01*
X136789938Y-102764387D01*
X137368738Y-102737537D01*
X137368763Y-102737527D01*
X137302325Y-103071530D01*
X137415365Y-103639815D01*
X137737272Y-104121584D01*
X137778416Y-104162727D01*
X138260185Y-104484635D01*
X138828470Y-104597674D01*
X139396754Y-104484635D01*
X139878523Y-104162727D01*
X139997164Y-103985167D01*
X150764838Y-103985167D01*
X150906883Y-104328943D01*
X151169673Y-104592192D01*
X151513201Y-104734838D01*
X151560077Y-104734879D01*
X152462599Y-105637401D01*
X152709161Y-105802148D01*
X153000000Y-105860000D01*
X162707972Y-105860000D01*
X162888201Y-105934838D01*
X163260167Y-105935162D01*
X163603943Y-105793117D01*
X163867192Y-105530327D01*
X164009838Y-105186799D01*
X164010162Y-104814833D01*
X163868117Y-104471057D01*
X163605327Y-104207808D01*
X163261799Y-104065162D01*
X162889833Y-104064838D01*
X162546057Y-104206883D01*
X162412707Y-104340000D01*
X153314802Y-104340000D01*
X152635122Y-103660320D01*
X152635162Y-103614833D01*
X152493117Y-103271057D01*
X152230327Y-103007808D01*
X151886799Y-102865162D01*
X151514833Y-102864838D01*
X151171057Y-103006883D01*
X150907808Y-103269673D01*
X150765162Y-103613201D01*
X150764838Y-103985167D01*
X139997164Y-103985167D01*
X140200431Y-103680958D01*
X140313470Y-103112674D01*
X140236235Y-102724388D01*
X140624521Y-102801623D01*
X141192805Y-102688584D01*
X141674574Y-102366676D01*
X141996482Y-101884907D01*
X142109521Y-101316623D01*
X142099761Y-101267554D01*
X142139894Y-101294976D01*
X142391056Y-101349460D01*
X142643627Y-101301936D01*
X142857809Y-101159891D01*
X144059891Y-99957809D01*
X144194976Y-99760106D01*
X144249460Y-99508944D01*
X144201936Y-99256373D01*
X144059891Y-99042191D01*
X142857809Y-97840109D01*
X142660106Y-97705024D01*
X142408944Y-97650540D01*
X142156373Y-97698064D01*
X142108463Y-97729837D01*
X142109521Y-97724521D01*
X141996482Y-97156236D01*
X141674574Y-96674467D01*
X141633431Y-96633323D01*
X141151662Y-96311416D01*
X140583377Y-96198376D01*
X140015092Y-96311416D01*
X139533323Y-96633323D01*
X139211416Y-97115092D01*
X139098376Y-97683377D01*
X139175612Y-98071663D01*
X138787326Y-97994427D01*
X138219041Y-98107467D01*
X137737272Y-98429374D01*
X137415365Y-98911143D01*
X137302325Y-99479428D01*
X137382265Y-99881311D01*
X137233754Y-99827715D01*
X136654954Y-99854565D01*
X136244928Y-100024414D01*
X136168158Y-100272758D01*
X137011846Y-101116446D01*
X137025989Y-101102304D01*
X137205594Y-101281909D01*
X137191451Y-101296051D01*
X137205594Y-101310194D01*
X137025989Y-101489799D01*
X137011846Y-101475656D01*
X136167688Y-102319814D01*
X115685000Y-102319814D01*
X115685000Y-101517959D01*
X135543510Y-101517959D01*
X135740201Y-102062975D01*
X135988083Y-102140209D01*
X136832241Y-101296051D01*
X135988553Y-100452363D01*
X135740209Y-100529133D01*
X135570360Y-100939159D01*
X135543510Y-101517959D01*
X115685000Y-101517959D01*
X115685000Y-86160000D01*
X129542560Y-86160000D01*
X129542560Y-87860000D01*
X129586838Y-88095317D01*
X129725910Y-88311441D01*
X129938110Y-88456431D01*
X129994454Y-88467841D01*
X129989946Y-88470853D01*
X129668039Y-88952622D01*
X129555000Y-89520907D01*
X129555000Y-89579093D01*
X129668039Y-90147378D01*
X129989946Y-90629147D01*
X130471715Y-90951054D01*
X131040000Y-91064093D01*
X131608285Y-90951054D01*
X132090054Y-90629147D01*
X132310000Y-90299974D01*
X132529946Y-90629147D01*
X133011715Y-90951054D01*
X133580000Y-91064093D01*
X134148285Y-90951054D01*
X134630054Y-90629147D01*
X134850000Y-90299974D01*
X135069946Y-90629147D01*
X135551715Y-90951054D01*
X136120000Y-91064093D01*
X136688285Y-90951054D01*
X137170054Y-90629147D01*
X137491961Y-90147378D01*
X137605000Y-89579093D01*
X137605000Y-89520907D01*
X137491961Y-88952622D01*
X137170054Y-88470853D01*
X136884422Y-88280000D01*
X137170054Y-88089147D01*
X137463212Y-87650403D01*
X163865195Y-87650403D01*
X164075691Y-88159842D01*
X164465118Y-88549949D01*
X164974189Y-88761334D01*
X165525403Y-88761815D01*
X166034842Y-88551319D01*
X166424949Y-88161892D01*
X166636334Y-87652821D01*
X166636815Y-87101607D01*
X166426319Y-86592168D01*
X166036892Y-86202061D01*
X165527821Y-85990676D01*
X164976607Y-85990195D01*
X164467168Y-86200691D01*
X164077061Y-86590118D01*
X163865676Y-87099189D01*
X163865195Y-87650403D01*
X137463212Y-87650403D01*
X137491961Y-87607378D01*
X137605000Y-87039093D01*
X137605000Y-86980907D01*
X137491961Y-86412622D01*
X137170054Y-85930853D01*
X136688285Y-85608946D01*
X136120000Y-85495907D01*
X135551715Y-85608946D01*
X135069946Y-85930853D01*
X134850000Y-86260026D01*
X134630054Y-85930853D01*
X134148285Y-85608946D01*
X133580000Y-85495907D01*
X133011715Y-85608946D01*
X132529946Y-85930853D01*
X132502150Y-85972452D01*
X132493162Y-85924683D01*
X132354090Y-85708559D01*
X132141890Y-85563569D01*
X131890000Y-85512560D01*
X130190000Y-85512560D01*
X129954683Y-85556838D01*
X129738559Y-85695910D01*
X129593569Y-85908110D01*
X129542560Y-86160000D01*
X115685000Y-86160000D01*
X115685000Y-84035167D01*
X144089838Y-84035167D01*
X144231883Y-84378943D01*
X144494673Y-84642192D01*
X144838201Y-84784838D01*
X145210167Y-84785162D01*
X145553943Y-84643117D01*
X145587118Y-84610000D01*
X155450000Y-84610000D01*
X155740839Y-84552148D01*
X155987401Y-84387401D01*
X156176409Y-84198393D01*
X160413185Y-84198393D01*
X160623681Y-84707832D01*
X161013108Y-85097939D01*
X161522179Y-85309324D01*
X162073393Y-85309805D01*
X162582832Y-85099309D01*
X162972939Y-84709882D01*
X163184324Y-84200811D01*
X163184805Y-83649597D01*
X162974309Y-83140158D01*
X162584882Y-82750051D01*
X162075811Y-82538666D01*
X161524597Y-82538185D01*
X161015158Y-82748681D01*
X160625051Y-83138108D01*
X160413666Y-83647179D01*
X160413185Y-84198393D01*
X156176409Y-84198393D01*
X162964802Y-77410000D01*
X179460198Y-77410000D01*
X192714878Y-90664680D01*
X192714838Y-90710167D01*
X192856883Y-91053943D01*
X193119673Y-91317192D01*
X193463201Y-91459838D01*
X193835167Y-91460162D01*
X194178943Y-91318117D01*
X194442192Y-91055327D01*
X194584838Y-90711799D01*
X194585162Y-90339833D01*
X194443117Y-89996057D01*
X194180327Y-89732808D01*
X193836799Y-89590162D01*
X193789923Y-89590121D01*
X192124802Y-87925000D01*
X194366009Y-87925000D01*
X194498078Y-88588956D01*
X194874179Y-89151830D01*
X195437053Y-89527931D01*
X196101009Y-89660000D01*
X196168991Y-89660000D01*
X196832947Y-89527931D01*
X197214312Y-89273110D01*
X210858524Y-89273110D01*
X210979845Y-89503000D01*
X212173000Y-89503000D01*
X212173000Y-88309181D01*
X212427000Y-88309181D01*
X212427000Y-89503000D01*
X213620155Y-89503000D01*
X213741476Y-89273110D01*
X213571645Y-88863076D01*
X213181358Y-88434817D01*
X212656892Y-88188514D01*
X212427000Y-88309181D01*
X212173000Y-88309181D01*
X211943108Y-88188514D01*
X211418642Y-88434817D01*
X211028355Y-88863076D01*
X210858524Y-89273110D01*
X197214312Y-89273110D01*
X197395821Y-89151830D01*
X197771922Y-88588956D01*
X197903991Y-87925000D01*
X197771922Y-87261044D01*
X197688204Y-87135750D01*
X203465000Y-87135750D01*
X203465000Y-88726310D01*
X203561673Y-88959699D01*
X203740302Y-89138327D01*
X203973691Y-89235000D01*
X205564250Y-89235000D01*
X205723000Y-89076250D01*
X205723000Y-86977000D01*
X205977000Y-86977000D01*
X205977000Y-89076250D01*
X206135750Y-89235000D01*
X207726309Y-89235000D01*
X207959698Y-89138327D01*
X208138327Y-88959699D01*
X208235000Y-88726310D01*
X208235000Y-87135750D01*
X208076250Y-86977000D01*
X205977000Y-86977000D01*
X205723000Y-86977000D01*
X203623750Y-86977000D01*
X203465000Y-87135750D01*
X197688204Y-87135750D01*
X197395821Y-86698170D01*
X196832947Y-86322069D01*
X196168991Y-86190000D01*
X196101009Y-86190000D01*
X195437053Y-86322069D01*
X194874179Y-86698170D01*
X194498078Y-87261044D01*
X194366009Y-87925000D01*
X192124802Y-87925000D01*
X184599802Y-80400000D01*
X200452560Y-80400000D01*
X200452560Y-83900000D01*
X200496838Y-84135317D01*
X200635910Y-84351441D01*
X200848110Y-84496431D01*
X201100000Y-84547440D01*
X203774663Y-84547440D01*
X203740302Y-84561673D01*
X203561673Y-84740301D01*
X203465000Y-84973690D01*
X203465000Y-86564250D01*
X203623750Y-86723000D01*
X205723000Y-86723000D01*
X205723000Y-84623750D01*
X205977000Y-84623750D01*
X205977000Y-86723000D01*
X208076250Y-86723000D01*
X208235000Y-86564250D01*
X208235000Y-84973690D01*
X208138327Y-84740301D01*
X207959698Y-84561673D01*
X207895304Y-84535000D01*
X208564250Y-84535000D01*
X208723000Y-84376250D01*
X208723000Y-82277000D01*
X208977000Y-82277000D01*
X208977000Y-84376250D01*
X209135750Y-84535000D01*
X210726309Y-84535000D01*
X210959698Y-84438327D01*
X211138327Y-84259699D01*
X211235000Y-84026310D01*
X211235000Y-82435750D01*
X211076250Y-82277000D01*
X208977000Y-82277000D01*
X208723000Y-82277000D01*
X206623750Y-82277000D01*
X206465000Y-82435750D01*
X206465000Y-84026310D01*
X206561673Y-84259699D01*
X206740302Y-84438327D01*
X206804696Y-84465000D01*
X206135750Y-84465000D01*
X205977000Y-84623750D01*
X205723000Y-84623750D01*
X205564250Y-84465000D01*
X204894622Y-84465000D01*
X205051441Y-84364090D01*
X205196431Y-84151890D01*
X205247440Y-83900000D01*
X205247440Y-80400000D01*
X205223674Y-80273690D01*
X206465000Y-80273690D01*
X206465000Y-81864250D01*
X206623750Y-82023000D01*
X208723000Y-82023000D01*
X208723000Y-79923750D01*
X208977000Y-79923750D01*
X208977000Y-82023000D01*
X211076250Y-82023000D01*
X211235000Y-81864250D01*
X211235000Y-80273690D01*
X211138327Y-80040301D01*
X210959698Y-79861673D01*
X210726309Y-79765000D01*
X209135750Y-79765000D01*
X208977000Y-79923750D01*
X208723000Y-79923750D01*
X208564250Y-79765000D01*
X206973691Y-79765000D01*
X206740302Y-79861673D01*
X206561673Y-80040301D01*
X206465000Y-80273690D01*
X205223674Y-80273690D01*
X205203162Y-80164683D01*
X205064090Y-79948559D01*
X204851890Y-79803569D01*
X204600000Y-79752560D01*
X201100000Y-79752560D01*
X200864683Y-79796838D01*
X200648559Y-79935910D01*
X200503569Y-80148110D01*
X200452560Y-80400000D01*
X184599802Y-80400000D01*
X180312401Y-76112599D01*
X180065839Y-75947852D01*
X179775000Y-75890000D01*
X162650000Y-75890000D01*
X162359161Y-75947852D01*
X162112599Y-76112599D01*
X155135198Y-83090000D01*
X145587463Y-83090000D01*
X145555327Y-83057808D01*
X145211799Y-82915162D01*
X144839833Y-82914838D01*
X144496057Y-83056883D01*
X144232808Y-83319673D01*
X144090162Y-83663201D01*
X144089838Y-84035167D01*
X115685000Y-84035167D01*
X115685000Y-80079694D01*
X120285226Y-80079694D01*
X120533538Y-80680655D01*
X120992927Y-81140846D01*
X121593453Y-81390206D01*
X122243694Y-81390774D01*
X122844655Y-81142462D01*
X123304846Y-80683073D01*
X123554206Y-80082547D01*
X123554334Y-79935167D01*
X149639838Y-79935167D01*
X149781883Y-80278943D01*
X150044673Y-80542192D01*
X150388201Y-80684838D01*
X150760167Y-80685162D01*
X151103943Y-80543117D01*
X151137118Y-80510000D01*
X156050000Y-80510000D01*
X156340839Y-80452148D01*
X156587401Y-80287401D01*
X164939680Y-71935122D01*
X164985167Y-71935162D01*
X165328943Y-71793117D01*
X165592192Y-71530327D01*
X165734838Y-71186799D01*
X165735162Y-70814833D01*
X165733235Y-70810167D01*
X191389838Y-70810167D01*
X191531883Y-71153943D01*
X191794673Y-71417192D01*
X192138201Y-71559838D01*
X192510167Y-71560162D01*
X192853943Y-71418117D01*
X193117192Y-71155327D01*
X193259838Y-70811799D01*
X193259879Y-70764923D01*
X195137401Y-68887401D01*
X195302148Y-68640839D01*
X195360000Y-68350000D01*
X195360000Y-62642163D01*
X201868703Y-62642163D01*
X201967302Y-62908965D01*
X202576842Y-63135401D01*
X203226637Y-63111341D01*
X203715218Y-62908965D01*
X203813817Y-62642163D01*
X202841260Y-61669605D01*
X201868703Y-62642163D01*
X195360000Y-62642163D01*
X195360000Y-61225582D01*
X201195859Y-61225582D01*
X201219919Y-61875377D01*
X201422295Y-62363958D01*
X201689097Y-62462557D01*
X202661655Y-61490000D01*
X203020865Y-61490000D01*
X203993423Y-62462557D01*
X204260225Y-62363958D01*
X204486661Y-61754418D01*
X204462601Y-61104623D01*
X204260225Y-60616042D01*
X203993423Y-60517443D01*
X203020865Y-61490000D01*
X202661655Y-61490000D01*
X201689097Y-60517443D01*
X201422295Y-60616042D01*
X201195859Y-61225582D01*
X195360000Y-61225582D01*
X195360000Y-60337837D01*
X201868703Y-60337837D01*
X202841260Y-61310395D01*
X203813817Y-60337837D01*
X203715218Y-60071035D01*
X203105678Y-59844599D01*
X202455883Y-59868659D01*
X201967302Y-60071035D01*
X201868703Y-60337837D01*
X195360000Y-60337837D01*
X195360000Y-56144873D01*
X208904812Y-56144873D01*
X209069646Y-56543800D01*
X209374595Y-56849282D01*
X209773233Y-57014811D01*
X210204873Y-57015188D01*
X210603800Y-56850354D01*
X210909282Y-56545405D01*
X211074811Y-56146767D01*
X211075188Y-55715127D01*
X210910354Y-55316200D01*
X210605405Y-55010718D01*
X210206767Y-54845189D01*
X209775127Y-54844812D01*
X209376200Y-55009646D01*
X209070718Y-55314595D01*
X208905189Y-55713233D01*
X208904812Y-56144873D01*
X195360000Y-56144873D01*
X195360000Y-52062463D01*
X195392192Y-52030327D01*
X195510723Y-51744873D01*
X208904812Y-51744873D01*
X209069646Y-52143800D01*
X209374595Y-52449282D01*
X209773233Y-52614811D01*
X210204873Y-52615188D01*
X210603800Y-52450354D01*
X210909282Y-52145405D01*
X211074811Y-51746767D01*
X211075188Y-51315127D01*
X210910354Y-50916200D01*
X210605405Y-50610718D01*
X210206767Y-50445189D01*
X209775127Y-50444812D01*
X209376200Y-50609646D01*
X209070718Y-50914595D01*
X208905189Y-51313233D01*
X208904812Y-51744873D01*
X195510723Y-51744873D01*
X195534838Y-51686799D01*
X195535162Y-51314833D01*
X195482524Y-51187440D01*
X196650000Y-51187440D01*
X196885317Y-51143162D01*
X197101441Y-51004090D01*
X197246431Y-50791890D01*
X197297440Y-50540000D01*
X197297440Y-48940000D01*
X197253162Y-48704683D01*
X197114090Y-48488559D01*
X197107452Y-48484023D01*
X197296965Y-47956777D01*
X197269778Y-47386546D01*
X197103864Y-46985995D01*
X196857745Y-46911861D01*
X196029605Y-47740000D01*
X196043748Y-47754142D01*
X195864143Y-47933748D01*
X195850000Y-47919605D01*
X195835858Y-47933748D01*
X195656252Y-47754142D01*
X195670395Y-47740000D01*
X194842255Y-46911861D01*
X194596136Y-46985995D01*
X194403035Y-47523223D01*
X194430222Y-48093454D01*
X194592384Y-48484947D01*
X194453569Y-48688110D01*
X194402560Y-48940000D01*
X194402560Y-50540000D01*
X194407782Y-50567751D01*
X194071057Y-50706883D01*
X193807808Y-50969673D01*
X193665162Y-51313201D01*
X193664838Y-51685167D01*
X193806883Y-52028943D01*
X193840000Y-52062118D01*
X193840000Y-68035198D01*
X192185320Y-69689878D01*
X192139833Y-69689838D01*
X191796057Y-69831883D01*
X191532808Y-70094673D01*
X191390162Y-70438201D01*
X191389838Y-70810167D01*
X165733235Y-70810167D01*
X165593117Y-70471057D01*
X165330327Y-70207808D01*
X164986799Y-70065162D01*
X164614833Y-70064838D01*
X164271057Y-70206883D01*
X164007808Y-70469673D01*
X163865162Y-70813201D01*
X163865121Y-70860077D01*
X155735198Y-78990000D01*
X151137463Y-78990000D01*
X151105327Y-78957808D01*
X150761799Y-78815162D01*
X150389833Y-78814838D01*
X150046057Y-78956883D01*
X149782808Y-79219673D01*
X149640162Y-79563201D01*
X149639838Y-79935167D01*
X123554334Y-79935167D01*
X123554774Y-79432306D01*
X123306462Y-78831345D01*
X122847073Y-78371154D01*
X122246547Y-78121794D01*
X121596306Y-78121226D01*
X120995345Y-78369538D01*
X120535154Y-78828927D01*
X120285794Y-79429453D01*
X120285226Y-80079694D01*
X115685000Y-80079694D01*
X115685000Y-76510000D01*
X142312560Y-76510000D01*
X142312560Y-78510000D01*
X142356838Y-78745317D01*
X142495910Y-78961441D01*
X142708110Y-79106431D01*
X142960000Y-79157440D01*
X144960000Y-79157440D01*
X145195317Y-79113162D01*
X145411441Y-78974090D01*
X145556431Y-78761890D01*
X145607440Y-78510000D01*
X145607440Y-76510000D01*
X145563162Y-76274683D01*
X145424090Y-76058559D01*
X145211890Y-75913569D01*
X144960000Y-75862560D01*
X142960000Y-75862560D01*
X142724683Y-75906838D01*
X142508559Y-76045910D01*
X142363569Y-76258110D01*
X142312560Y-76510000D01*
X115685000Y-76510000D01*
X115685000Y-74999694D01*
X120285226Y-74999694D01*
X120533538Y-75600655D01*
X120992927Y-76060846D01*
X121593453Y-76310206D01*
X122243694Y-76310774D01*
X122844655Y-76062462D01*
X123304846Y-75603073D01*
X123554206Y-75002547D01*
X123554774Y-74352306D01*
X123306462Y-73751345D01*
X123217804Y-73662532D01*
X142987073Y-73662532D01*
X143085736Y-73929387D01*
X143695461Y-74155908D01*
X144345460Y-74131856D01*
X144834264Y-73929387D01*
X144932927Y-73662532D01*
X143960000Y-72689605D01*
X142987073Y-73662532D01*
X123217804Y-73662532D01*
X122847073Y-73291154D01*
X122246547Y-73041794D01*
X121596306Y-73041226D01*
X120995345Y-73289538D01*
X120535154Y-73748927D01*
X120285794Y-74349453D01*
X120285226Y-74999694D01*
X115685000Y-74999694D01*
X115685000Y-72245461D01*
X142314092Y-72245461D01*
X142338144Y-72895460D01*
X142540613Y-73384264D01*
X142807468Y-73482927D01*
X143780395Y-72510000D01*
X144139605Y-72510000D01*
X145112532Y-73482927D01*
X145379387Y-73384264D01*
X145605908Y-72774539D01*
X145581856Y-72124540D01*
X145379387Y-71635736D01*
X145112532Y-71537073D01*
X144139605Y-72510000D01*
X143780395Y-72510000D01*
X142807468Y-71537073D01*
X142540613Y-71635736D01*
X142314092Y-72245461D01*
X115685000Y-72245461D01*
X115685000Y-71357468D01*
X142987073Y-71357468D01*
X143960000Y-72330395D01*
X144932927Y-71357468D01*
X144834264Y-71090613D01*
X144224539Y-70864092D01*
X143574540Y-70888144D01*
X143085736Y-71090613D01*
X142987073Y-71357468D01*
X115685000Y-71357468D01*
X115685000Y-68654187D01*
X138184752Y-68654187D01*
X138402757Y-69181800D01*
X138806077Y-69585824D01*
X139333309Y-69804750D01*
X139904187Y-69805248D01*
X140431800Y-69587243D01*
X140835824Y-69183923D01*
X141054750Y-68656691D01*
X141055059Y-68301887D01*
X141375000Y-68301887D01*
X141375000Y-68358113D01*
X141484233Y-68907264D01*
X141795302Y-69372811D01*
X142260849Y-69683880D01*
X142810000Y-69793113D01*
X143359151Y-69683880D01*
X143824698Y-69372811D01*
X144117122Y-68935167D01*
X151544838Y-68935167D01*
X151686883Y-69278943D01*
X151949673Y-69542192D01*
X152293201Y-69684838D01*
X152665167Y-69685162D01*
X153008943Y-69543117D01*
X153042118Y-69510000D01*
X158127537Y-69510000D01*
X158159673Y-69542192D01*
X158503201Y-69684838D01*
X158875167Y-69685162D01*
X159218943Y-69543117D01*
X159482192Y-69280327D01*
X159624838Y-68936799D01*
X159625162Y-68564833D01*
X159483117Y-68221057D01*
X159220327Y-67957808D01*
X158876799Y-67815162D01*
X158504833Y-67814838D01*
X158161057Y-67956883D01*
X158127882Y-67990000D01*
X153042463Y-67990000D01*
X153010327Y-67957808D01*
X152666799Y-67815162D01*
X152294833Y-67814838D01*
X151951057Y-67956883D01*
X151687808Y-68219673D01*
X151545162Y-68563201D01*
X151544838Y-68935167D01*
X144117122Y-68935167D01*
X144135767Y-68907264D01*
X144245000Y-68358113D01*
X144245000Y-68301887D01*
X144135767Y-67752736D01*
X143824698Y-67287189D01*
X143359151Y-66976120D01*
X142810000Y-66866887D01*
X142260849Y-66976120D01*
X141795302Y-67287189D01*
X141484233Y-67752736D01*
X141375000Y-68301887D01*
X141055059Y-68301887D01*
X141055248Y-68085813D01*
X140837243Y-67558200D01*
X140433923Y-67154176D01*
X139906691Y-66935250D01*
X139335813Y-66934752D01*
X138808200Y-67152757D01*
X138404176Y-67556077D01*
X138185250Y-68083309D01*
X138184752Y-68654187D01*
X115685000Y-68654187D01*
X115685000Y-64732000D01*
X146888560Y-64732000D01*
X146888560Y-66332000D01*
X146932838Y-66567317D01*
X147071910Y-66783441D01*
X147284110Y-66928431D01*
X147536000Y-66979440D01*
X149136000Y-66979440D01*
X149371317Y-66935162D01*
X149587441Y-66796090D01*
X149732431Y-66583890D01*
X149783440Y-66332000D01*
X149783440Y-65050000D01*
X185002560Y-65050000D01*
X185002560Y-66750000D01*
X185046838Y-66985317D01*
X185185910Y-67201441D01*
X185398110Y-67346431D01*
X185650000Y-67397440D01*
X187219194Y-67397440D01*
X187262599Y-67462401D01*
X188537599Y-68737401D01*
X188784160Y-68902148D01*
X189075000Y-68960000D01*
X191262537Y-68960000D01*
X191294673Y-68992192D01*
X191638201Y-69134838D01*
X192010167Y-69135162D01*
X192353943Y-68993117D01*
X192617192Y-68730327D01*
X192759838Y-68386799D01*
X192760162Y-68014833D01*
X192618117Y-67671057D01*
X192355327Y-67407808D01*
X192114446Y-67307785D01*
X192148285Y-67301054D01*
X192630054Y-66979147D01*
X192951961Y-66497378D01*
X193065000Y-65929093D01*
X193065000Y-65870907D01*
X192951961Y-65302622D01*
X192630054Y-64820853D01*
X192148285Y-64498946D01*
X191580000Y-64385907D01*
X191011715Y-64498946D01*
X190529946Y-64820853D01*
X190310000Y-65150026D01*
X190090054Y-64820853D01*
X189608285Y-64498946D01*
X189040000Y-64385907D01*
X188560000Y-64481385D01*
X188560000Y-64062506D01*
X188567192Y-64055327D01*
X188709838Y-63711799D01*
X188710162Y-63339833D01*
X188568117Y-62996057D01*
X188305327Y-62732808D01*
X187961799Y-62590162D01*
X187589833Y-62589838D01*
X187246057Y-62731883D01*
X186982808Y-62994673D01*
X186840162Y-63338201D01*
X186839838Y-63710167D01*
X186981883Y-64053943D01*
X187040000Y-64112162D01*
X187040000Y-64402560D01*
X185650000Y-64402560D01*
X185414683Y-64446838D01*
X185198559Y-64585910D01*
X185053569Y-64798110D01*
X185002560Y-65050000D01*
X149783440Y-65050000D01*
X149783440Y-64732000D01*
X149739162Y-64496683D01*
X149600090Y-64280559D01*
X149387890Y-64135569D01*
X149149799Y-64087354D01*
X149164139Y-64039745D01*
X148336000Y-63211605D01*
X147507861Y-64039745D01*
X147522145Y-64087167D01*
X147300683Y-64128838D01*
X147084559Y-64267910D01*
X146939569Y-64480110D01*
X146888560Y-64732000D01*
X115685000Y-64732000D01*
X115685000Y-62815223D01*
X146889035Y-62815223D01*
X146916222Y-63385454D01*
X147082136Y-63786005D01*
X147328255Y-63860139D01*
X148156395Y-63032000D01*
X148515605Y-63032000D01*
X149343745Y-63860139D01*
X149589864Y-63786005D01*
X149782965Y-63248777D01*
X149755778Y-62678546D01*
X149589864Y-62277995D01*
X149343745Y-62203861D01*
X148515605Y-63032000D01*
X148156395Y-63032000D01*
X147328255Y-62203861D01*
X147082136Y-62277995D01*
X146889035Y-62815223D01*
X115685000Y-62815223D01*
X115685000Y-62024255D01*
X147507861Y-62024255D01*
X148336000Y-62852395D01*
X149164139Y-62024255D01*
X149090005Y-61778136D01*
X148552777Y-61585035D01*
X147982546Y-61612222D01*
X147581995Y-61778136D01*
X147507861Y-62024255D01*
X115685000Y-62024255D01*
X115685000Y-58181887D01*
X138185000Y-58181887D01*
X138185000Y-58238113D01*
X138294233Y-58787264D01*
X138605302Y-59252811D01*
X139070849Y-59563880D01*
X139620000Y-59673113D01*
X140169151Y-59563880D01*
X140634698Y-59252811D01*
X140945767Y-58787264D01*
X141012020Y-58454187D01*
X141374752Y-58454187D01*
X141592757Y-58981800D01*
X141996077Y-59385824D01*
X142523309Y-59604750D01*
X143094187Y-59605248D01*
X143621800Y-59387243D01*
X144025824Y-58983923D01*
X144244750Y-58456691D01*
X144245248Y-57885813D01*
X144027243Y-57358200D01*
X143623923Y-56954176D01*
X143096691Y-56735250D01*
X142525813Y-56734752D01*
X141998200Y-56952757D01*
X141594176Y-57356077D01*
X141375250Y-57883309D01*
X141374752Y-58454187D01*
X141012020Y-58454187D01*
X141055000Y-58238113D01*
X141055000Y-58181887D01*
X140945767Y-57632736D01*
X140634698Y-57167189D01*
X140169151Y-56856120D01*
X139620000Y-56746887D01*
X139070849Y-56856120D01*
X138605302Y-57167189D01*
X138294233Y-57632736D01*
X138185000Y-58181887D01*
X115685000Y-58181887D01*
X115685000Y-55744398D01*
X166303250Y-55744398D01*
X166513746Y-56253837D01*
X166903173Y-56643944D01*
X167412244Y-56855329D01*
X167963458Y-56855810D01*
X168472897Y-56645314D01*
X168863004Y-56255887D01*
X169074389Y-55746816D01*
X169074391Y-55744398D01*
X171185130Y-55744398D01*
X171395626Y-56253837D01*
X171785053Y-56643944D01*
X172294124Y-56855329D01*
X172845338Y-56855810D01*
X173354777Y-56645314D01*
X173744884Y-56255887D01*
X173956269Y-55746816D01*
X173956750Y-55195602D01*
X173746254Y-54686163D01*
X173356827Y-54296056D01*
X172847756Y-54084671D01*
X172296542Y-54084190D01*
X171787103Y-54294686D01*
X171396996Y-54684113D01*
X171185611Y-55193184D01*
X171185130Y-55744398D01*
X169074391Y-55744398D01*
X169074870Y-55195602D01*
X168864374Y-54686163D01*
X168474947Y-54296056D01*
X167965876Y-54084671D01*
X167414662Y-54084190D01*
X166905223Y-54294686D01*
X166515116Y-54684113D01*
X166303731Y-55193184D01*
X166303250Y-55744398D01*
X115685000Y-55744398D01*
X115685000Y-46452340D01*
X116727265Y-46452340D01*
X117045501Y-46906203D01*
X118306434Y-47432936D01*
X119672956Y-47437035D01*
X120937027Y-46917878D01*
X120954499Y-46906203D01*
X121272735Y-46452340D01*
X119000000Y-44179605D01*
X116727265Y-46452340D01*
X115685000Y-46452340D01*
X115685000Y-44970093D01*
X116082122Y-45937027D01*
X116093797Y-45954499D01*
X116547660Y-46272735D01*
X118820395Y-44000000D01*
X119179605Y-44000000D01*
X121452340Y-46272735D01*
X121906203Y-45954499D01*
X122432936Y-44693566D01*
X122437035Y-43327044D01*
X122420076Y-43285750D01*
X124515000Y-43285750D01*
X124515000Y-43976309D01*
X124611673Y-44209698D01*
X124790301Y-44388327D01*
X125023690Y-44485000D01*
X125714250Y-44485000D01*
X125873000Y-44326250D01*
X125873000Y-43127000D01*
X124673750Y-43127000D01*
X124515000Y-43285750D01*
X122420076Y-43285750D01*
X121917878Y-42062973D01*
X121906203Y-42045501D01*
X121875098Y-42023691D01*
X124515000Y-42023691D01*
X124515000Y-42714250D01*
X124673750Y-42873000D01*
X125873000Y-42873000D01*
X125873000Y-41673750D01*
X126127000Y-41673750D01*
X126127000Y-42873000D01*
X126147000Y-42873000D01*
X126147000Y-43127000D01*
X126127000Y-43127000D01*
X126127000Y-44326250D01*
X126285750Y-44485000D01*
X126976310Y-44485000D01*
X127209699Y-44388327D01*
X127388327Y-44209698D01*
X127460597Y-44035223D01*
X127489946Y-44079147D01*
X127971715Y-44401054D01*
X128540000Y-44514093D01*
X129108285Y-44401054D01*
X129590054Y-44079147D01*
X129817702Y-43738447D01*
X129884817Y-43881358D01*
X130313076Y-44271645D01*
X130723110Y-44441476D01*
X130953000Y-44320155D01*
X130953000Y-43127000D01*
X130933000Y-43127000D01*
X130933000Y-42873000D01*
X130953000Y-42873000D01*
X130953000Y-41679845D01*
X131207000Y-41679845D01*
X131207000Y-42873000D01*
X131227000Y-42873000D01*
X131227000Y-43127000D01*
X131207000Y-43127000D01*
X131207000Y-44320155D01*
X131436890Y-44441476D01*
X131846924Y-44271645D01*
X132275183Y-43881358D01*
X132342298Y-43738447D01*
X132569946Y-44079147D01*
X133051715Y-44401054D01*
X133620000Y-44514093D01*
X134188285Y-44401054D01*
X134670054Y-44079147D01*
X134890000Y-43749974D01*
X135109946Y-44079147D01*
X135591715Y-44401054D01*
X136160000Y-44514093D01*
X136728285Y-44401054D01*
X137210054Y-44079147D01*
X137430000Y-43749974D01*
X137649946Y-44079147D01*
X138131715Y-44401054D01*
X138700000Y-44514093D01*
X139268285Y-44401054D01*
X139750054Y-44079147D01*
X139970000Y-43749974D01*
X140189946Y-44079147D01*
X140671715Y-44401054D01*
X141240000Y-44514093D01*
X141808285Y-44401054D01*
X142290054Y-44079147D01*
X142510000Y-43749974D01*
X142729946Y-44079147D01*
X143211715Y-44401054D01*
X143780000Y-44514093D01*
X144348285Y-44401054D01*
X144830054Y-44079147D01*
X145050000Y-43749974D01*
X145269946Y-44079147D01*
X145751715Y-44401054D01*
X146320000Y-44514093D01*
X146888285Y-44401054D01*
X147370054Y-44079147D01*
X147590000Y-43749974D01*
X147809946Y-44079147D01*
X148291715Y-44401054D01*
X148860000Y-44514093D01*
X149428285Y-44401054D01*
X149910054Y-44079147D01*
X150231961Y-43597378D01*
X150293947Y-43285750D01*
X181515000Y-43285750D01*
X181515000Y-43976309D01*
X181611673Y-44209698D01*
X181790301Y-44388327D01*
X182023690Y-44485000D01*
X182714250Y-44485000D01*
X182873000Y-44326250D01*
X182873000Y-43127000D01*
X181673750Y-43127000D01*
X181515000Y-43285750D01*
X150293947Y-43285750D01*
X150345000Y-43029093D01*
X150345000Y-42970907D01*
X150231961Y-42402622D01*
X149978768Y-42023691D01*
X181515000Y-42023691D01*
X181515000Y-42714250D01*
X181673750Y-42873000D01*
X182873000Y-42873000D01*
X182873000Y-41673750D01*
X183127000Y-41673750D01*
X183127000Y-42873000D01*
X183147000Y-42873000D01*
X183147000Y-43127000D01*
X183127000Y-43127000D01*
X183127000Y-44326250D01*
X183285750Y-44485000D01*
X183976310Y-44485000D01*
X184209699Y-44388327D01*
X184240000Y-44358026D01*
X184240000Y-50900000D01*
X184297852Y-51190839D01*
X184462599Y-51437401D01*
X187164878Y-54139680D01*
X187164838Y-54185167D01*
X187306883Y-54528943D01*
X187569673Y-54792192D01*
X187913201Y-54934838D01*
X188285167Y-54935162D01*
X188628943Y-54793117D01*
X188892192Y-54530327D01*
X189034838Y-54186799D01*
X189034970Y-54035118D01*
X189085167Y-54035162D01*
X189428943Y-53893117D01*
X189692192Y-53630327D01*
X189834838Y-53286799D01*
X189835162Y-52914833D01*
X189693117Y-52571057D01*
X189430327Y-52307808D01*
X189086799Y-52165162D01*
X189039923Y-52165121D01*
X186660000Y-49785198D01*
X186660000Y-48940000D01*
X188692560Y-48940000D01*
X188692560Y-50540000D01*
X188736838Y-50775317D01*
X188875910Y-50991441D01*
X189088110Y-51136431D01*
X189340000Y-51187440D01*
X190940000Y-51187440D01*
X191175317Y-51143162D01*
X191391441Y-51004090D01*
X191536431Y-50791890D01*
X191587440Y-50540000D01*
X191587440Y-48940000D01*
X191543162Y-48704683D01*
X191404090Y-48488559D01*
X191397452Y-48484023D01*
X191586965Y-47956777D01*
X191559778Y-47386546D01*
X191393864Y-46985995D01*
X191147745Y-46911861D01*
X190319605Y-47740000D01*
X190333748Y-47754142D01*
X190154143Y-47933748D01*
X190140000Y-47919605D01*
X190125858Y-47933748D01*
X189946252Y-47754142D01*
X189960395Y-47740000D01*
X189132255Y-46911861D01*
X188886136Y-46985995D01*
X188693035Y-47523223D01*
X188720222Y-48093454D01*
X188882384Y-48484947D01*
X188743569Y-48688110D01*
X188692560Y-48940000D01*
X186660000Y-48940000D01*
X186660000Y-46514802D01*
X186689041Y-46485761D01*
X186706883Y-46528943D01*
X186969673Y-46792192D01*
X187313201Y-46934838D01*
X187685167Y-46935162D01*
X188028943Y-46793117D01*
X188089911Y-46732255D01*
X189311861Y-46732255D01*
X190140000Y-47560395D01*
X190968139Y-46732255D01*
X195021861Y-46732255D01*
X195850000Y-47560395D01*
X196678139Y-46732255D01*
X196604005Y-46486136D01*
X196509981Y-46452340D01*
X208727265Y-46452340D01*
X209045501Y-46906203D01*
X210306434Y-47432936D01*
X211672956Y-47437035D01*
X212937027Y-46917878D01*
X212954499Y-46906203D01*
X213272735Y-46452340D01*
X211000000Y-44179605D01*
X208727265Y-46452340D01*
X196509981Y-46452340D01*
X196066777Y-46293035D01*
X195496546Y-46320222D01*
X195095995Y-46486136D01*
X195021861Y-46732255D01*
X190968139Y-46732255D01*
X190894005Y-46486136D01*
X190356777Y-46293035D01*
X189786546Y-46320222D01*
X189385995Y-46486136D01*
X189311861Y-46732255D01*
X188089911Y-46732255D01*
X188292192Y-46530327D01*
X188434838Y-46186799D01*
X188434861Y-46160000D01*
X198380000Y-46160000D01*
X198670839Y-46102148D01*
X198917401Y-45937401D01*
X200181846Y-44672956D01*
X207562965Y-44672956D01*
X208082122Y-45937027D01*
X208093797Y-45954499D01*
X208547660Y-46272735D01*
X210820395Y-44000000D01*
X208547660Y-41727265D01*
X208093797Y-42045501D01*
X207567064Y-43306434D01*
X207562965Y-44672956D01*
X200181846Y-44672956D01*
X200413592Y-44441210D01*
X200780000Y-44514093D01*
X201348285Y-44401054D01*
X201830054Y-44079147D01*
X202057702Y-43738447D01*
X202124817Y-43881358D01*
X202553076Y-44271645D01*
X202963110Y-44441476D01*
X203193000Y-44320155D01*
X203193000Y-43127000D01*
X203173000Y-43127000D01*
X203173000Y-42873000D01*
X203193000Y-42873000D01*
X203193000Y-41679845D01*
X203447000Y-41679845D01*
X203447000Y-42873000D01*
X203467000Y-42873000D01*
X203467000Y-43127000D01*
X203447000Y-43127000D01*
X203447000Y-44320155D01*
X203676890Y-44441476D01*
X204086924Y-44271645D01*
X204515183Y-43881358D01*
X204582298Y-43738447D01*
X204809946Y-44079147D01*
X205291715Y-44401054D01*
X205860000Y-44514093D01*
X206428285Y-44401054D01*
X206910054Y-44079147D01*
X207231961Y-43597378D01*
X207345000Y-43029093D01*
X207345000Y-42970907D01*
X207231961Y-42402622D01*
X206910054Y-41920853D01*
X206428285Y-41598946D01*
X205860000Y-41485907D01*
X205291715Y-41598946D01*
X204809946Y-41920853D01*
X204582298Y-42261553D01*
X204515183Y-42118642D01*
X204086924Y-41728355D01*
X203676890Y-41558524D01*
X203447000Y-41679845D01*
X203193000Y-41679845D01*
X202963110Y-41558524D01*
X202553076Y-41728355D01*
X202124817Y-42118642D01*
X202057702Y-42261553D01*
X201830054Y-41920853D01*
X201348285Y-41598946D01*
X200780000Y-41485907D01*
X200211715Y-41598946D01*
X199729946Y-41920853D01*
X199502298Y-42261553D01*
X199435183Y-42118642D01*
X199006924Y-41728355D01*
X198596890Y-41558524D01*
X198367000Y-41679845D01*
X198367000Y-42873000D01*
X198387000Y-42873000D01*
X198387000Y-43127000D01*
X198367000Y-43127000D01*
X198367000Y-43147000D01*
X198113000Y-43147000D01*
X198113000Y-43127000D01*
X198093000Y-43127000D01*
X198093000Y-42873000D01*
X198113000Y-42873000D01*
X198113000Y-41679845D01*
X197883110Y-41558524D01*
X197473076Y-41728355D01*
X197044817Y-42118642D01*
X196977702Y-42261553D01*
X196750054Y-41920853D01*
X196268285Y-41598946D01*
X195700000Y-41485907D01*
X195131715Y-41598946D01*
X194649946Y-41920853D01*
X194422298Y-42261553D01*
X194355183Y-42118642D01*
X193926924Y-41728355D01*
X193516890Y-41558524D01*
X193287000Y-41679845D01*
X193287000Y-42873000D01*
X193307000Y-42873000D01*
X193307000Y-43127000D01*
X193287000Y-43127000D01*
X193287000Y-44320155D01*
X193516890Y-44441476D01*
X193926924Y-44271645D01*
X194355183Y-43881358D01*
X194422298Y-43738447D01*
X194649946Y-44079147D01*
X195131715Y-44401054D01*
X195700000Y-44514093D01*
X196268285Y-44401054D01*
X196750054Y-44079147D01*
X196977702Y-43738447D01*
X197044817Y-43881358D01*
X197473076Y-44271645D01*
X197883110Y-44441476D01*
X198112998Y-44320156D01*
X198112998Y-44485000D01*
X198220198Y-44485000D01*
X198065198Y-44640000D01*
X190054802Y-44640000D01*
X190253592Y-44441210D01*
X190620000Y-44514093D01*
X191188285Y-44401054D01*
X191670054Y-44079147D01*
X191897702Y-43738447D01*
X191964817Y-43881358D01*
X192393076Y-44271645D01*
X192803110Y-44441476D01*
X193033000Y-44320155D01*
X193033000Y-43127000D01*
X193013000Y-43127000D01*
X193013000Y-42873000D01*
X193033000Y-42873000D01*
X193033000Y-41679845D01*
X192803110Y-41558524D01*
X192393076Y-41728355D01*
X191964817Y-42118642D01*
X191897702Y-42261553D01*
X191670054Y-41920853D01*
X191188285Y-41598946D01*
X190620000Y-41485907D01*
X190051715Y-41598946D01*
X189569946Y-41920853D01*
X189342298Y-42261553D01*
X189275183Y-42118642D01*
X188846924Y-41728355D01*
X188436890Y-41558524D01*
X188207000Y-41679845D01*
X188207000Y-42873000D01*
X188227000Y-42873000D01*
X188227000Y-43127000D01*
X188207000Y-43127000D01*
X188207000Y-43147000D01*
X187953000Y-43147000D01*
X187953000Y-43127000D01*
X187933000Y-43127000D01*
X187933000Y-42873000D01*
X187953000Y-42873000D01*
X187953000Y-41679845D01*
X187723110Y-41558524D01*
X187313076Y-41728355D01*
X186884817Y-42118642D01*
X186817702Y-42261553D01*
X186590054Y-41920853D01*
X186108285Y-41598946D01*
X185540000Y-41485907D01*
X184971715Y-41598946D01*
X184489946Y-41920853D01*
X184460597Y-41964777D01*
X184388327Y-41790302D01*
X184209699Y-41611673D01*
X183976310Y-41515000D01*
X183285750Y-41515000D01*
X183127000Y-41673750D01*
X182873000Y-41673750D01*
X182714250Y-41515000D01*
X182023690Y-41515000D01*
X181790301Y-41611673D01*
X181611673Y-41790302D01*
X181515000Y-42023691D01*
X149978768Y-42023691D01*
X149910054Y-41920853D01*
X149428285Y-41598946D01*
X148860000Y-41485907D01*
X148291715Y-41598946D01*
X147809946Y-41920853D01*
X147590000Y-42250026D01*
X147370054Y-41920853D01*
X146888285Y-41598946D01*
X146320000Y-41485907D01*
X145751715Y-41598946D01*
X145269946Y-41920853D01*
X145050000Y-42250026D01*
X144830054Y-41920853D01*
X144348285Y-41598946D01*
X143780000Y-41485907D01*
X143211715Y-41598946D01*
X142729946Y-41920853D01*
X142510000Y-42250026D01*
X142290054Y-41920853D01*
X141808285Y-41598946D01*
X141240000Y-41485907D01*
X140671715Y-41598946D01*
X140189946Y-41920853D01*
X139970000Y-42250026D01*
X139750054Y-41920853D01*
X139268285Y-41598946D01*
X138700000Y-41485907D01*
X138131715Y-41598946D01*
X137649946Y-41920853D01*
X137430000Y-42250026D01*
X137210054Y-41920853D01*
X136728285Y-41598946D01*
X136160000Y-41485907D01*
X135591715Y-41598946D01*
X135109946Y-41920853D01*
X134890000Y-42250026D01*
X134670054Y-41920853D01*
X134188285Y-41598946D01*
X133620000Y-41485907D01*
X133051715Y-41598946D01*
X132569946Y-41920853D01*
X132342298Y-42261553D01*
X132275183Y-42118642D01*
X131846924Y-41728355D01*
X131436890Y-41558524D01*
X131207000Y-41679845D01*
X130953000Y-41679845D01*
X130723110Y-41558524D01*
X130313076Y-41728355D01*
X129884817Y-42118642D01*
X129817702Y-42261553D01*
X129590054Y-41920853D01*
X129108285Y-41598946D01*
X128540000Y-41485907D01*
X127971715Y-41598946D01*
X127489946Y-41920853D01*
X127460597Y-41964777D01*
X127388327Y-41790302D01*
X127209699Y-41611673D01*
X126976310Y-41515000D01*
X126285750Y-41515000D01*
X126127000Y-41673750D01*
X125873000Y-41673750D01*
X125714250Y-41515000D01*
X125023690Y-41515000D01*
X124790301Y-41611673D01*
X124611673Y-41790302D01*
X124515000Y-42023691D01*
X121875098Y-42023691D01*
X121452340Y-41727265D01*
X119179605Y-44000000D01*
X118820395Y-44000000D01*
X116547660Y-41727265D01*
X116093797Y-42045501D01*
X115685000Y-43024110D01*
X115685000Y-40685000D01*
X118029907Y-40685000D01*
X117062973Y-41082122D01*
M02*
