G04 #@! TF.FileFunction,Soldermask,Bot*
%FSLAX46Y46*%
G04 Gerber Fmt 4.6, Leading zero omitted, Abs format (unit mm)*
G04 Created by KiCad (PCBNEW 4.0.7-e2-6376~58~ubuntu14.04.1) date Thu Dec 19 07:43:31 2019*
%MOMM*%
%LPD*%
G01*
G04 APERTURE LIST*
%ADD10C,0.100000*%
%ADD11C,2.000000*%
%ADD12R,1.000000X0.250000*%
%ADD13R,0.250000X1.000000*%
%ADD14R,1.600000X1.600000*%
%ADD15C,1.600000*%
%ADD16O,1.600000X1.600000*%
%ADD17R,1.700000X1.400000*%
%ADD18R,0.500000X0.800000*%
%ADD19R,0.400000X0.800000*%
%ADD20R,0.800000X0.500000*%
%ADD21R,0.800000X0.400000*%
%ADD22C,1.500000*%
%ADD23R,2.000000X2.000000*%
%ADD24R,1.200000X1.200000*%
%ADD25C,1.200000*%
%ADD26R,3.500000X1.800000*%
%ADD27C,1.998980*%
%ADD28R,1.400000X1.700000*%
%ADD29R,0.600000X1.550000*%
%ADD30R,3.800000X2.000000*%
%ADD31R,1.500000X2.000000*%
%ADD32R,1.550000X0.600000*%
%ADD33R,3.300000X1.700000*%
%ADD34R,1.900000X0.800000*%
%ADD35C,2.500000*%
%ADD36C,3.000000*%
%ADD37C,1.850000*%
%ADD38C,5.600000*%
%ADD39R,0.800000X1.900000*%
%ADD40R,2.300000X0.500000*%
%ADD41R,2.500000X2.000000*%
%ADD42C,0.900000*%
%ADD43R,1.700000X3.300000*%
%ADD44O,1.600000X2.300000*%
%ADD45O,2.300000X1.600000*%
%ADD46R,2.800000X1.200000*%
%ADD47R,2.800000X1.000000*%
%ADD48C,1.800000*%
%ADD49R,5.000000X1.800000*%
%ADD50R,5.000000X3.960000*%
%ADD51R,1.700000X1.700000*%
%ADD52O,1.700000X1.700000*%
%ADD53C,1.400000*%
%ADD54O,1.400000X1.400000*%
%ADD55R,2.300000X2.300000*%
%ADD56C,2.300000*%
%ADD57R,3.500120X3.500120*%
%ADD58R,2.200000X2.200000*%
%ADD59O,2.200000X2.200000*%
G04 APERTURE END LIST*
D10*
D11*
X94130000Y-62075000D03*
X96670000Y-62075000D03*
X91590000Y-62075000D03*
X89050000Y-62075000D03*
X86510000Y-62075000D03*
X99210000Y-62075000D03*
X101750000Y-62075000D03*
X104290000Y-62075000D03*
X86510000Y-100925000D03*
X89050000Y-100925000D03*
X91590000Y-100925000D03*
X94130000Y-100925000D03*
X96670000Y-100925000D03*
X99210000Y-100925000D03*
X101750000Y-100925000D03*
X104290000Y-100925000D03*
D12*
X102700000Y-79550000D03*
X102700000Y-80050000D03*
X102700000Y-80550000D03*
X102700000Y-81050000D03*
X102700000Y-81550000D03*
X102700000Y-82050000D03*
X102700000Y-82550000D03*
X102700000Y-83050000D03*
X102700000Y-83550000D03*
X102700000Y-84050000D03*
X102700000Y-84550000D03*
X102700000Y-85050000D03*
X102700000Y-85550000D03*
X102700000Y-86050000D03*
X102700000Y-86550000D03*
X102700000Y-87050000D03*
D13*
X100750000Y-89000000D03*
X100250000Y-89000000D03*
X99750000Y-89000000D03*
X99250000Y-89000000D03*
X98750000Y-89000000D03*
X98250000Y-89000000D03*
X97750000Y-89000000D03*
X97250000Y-89000000D03*
X96750000Y-89000000D03*
X96250000Y-89000000D03*
X95750000Y-89000000D03*
X95250000Y-89000000D03*
X94750000Y-89000000D03*
X94250000Y-89000000D03*
X93750000Y-89000000D03*
X93250000Y-89000000D03*
D12*
X91300000Y-87050000D03*
X91300000Y-86550000D03*
X91300000Y-86050000D03*
X91300000Y-85550000D03*
X91300000Y-85050000D03*
X91300000Y-84550000D03*
X91300000Y-84050000D03*
X91300000Y-83550000D03*
X91300000Y-83050000D03*
X91300000Y-82550000D03*
X91300000Y-82050000D03*
X91300000Y-81550000D03*
X91300000Y-81050000D03*
X91300000Y-80550000D03*
X91300000Y-80050000D03*
X91300000Y-79550000D03*
D13*
X93250000Y-77600000D03*
X93750000Y-77600000D03*
X94250000Y-77600000D03*
X94750000Y-77600000D03*
X95250000Y-77600000D03*
X95750000Y-77600000D03*
X96250000Y-77600000D03*
X96750000Y-77600000D03*
X97250000Y-77600000D03*
X97750000Y-77600000D03*
X98250000Y-77600000D03*
X98750000Y-77600000D03*
X99250000Y-77600000D03*
X99750000Y-77600000D03*
X100250000Y-77600000D03*
X100750000Y-77600000D03*
D14*
X147530000Y-110480000D03*
X145230000Y-110480000D03*
X132390000Y-102920000D03*
X132390000Y-105220000D03*
D15*
X88500000Y-120325000D03*
D16*
X88500000Y-130485000D03*
D17*
X82300000Y-117900000D03*
X82300000Y-115500000D03*
D18*
X89200000Y-64700000D03*
D19*
X90800000Y-64700000D03*
X90000000Y-64700000D03*
D18*
X91600000Y-64700000D03*
D19*
X90000000Y-66500000D03*
D18*
X89200000Y-66500000D03*
D19*
X90800000Y-66500000D03*
D18*
X91600000Y-66500000D03*
D20*
X82425000Y-97950000D03*
D21*
X82425000Y-96350000D03*
X82425000Y-97150000D03*
D20*
X82425000Y-95550000D03*
D21*
X84225000Y-97150000D03*
D20*
X84225000Y-97950000D03*
D21*
X84225000Y-96350000D03*
D20*
X84225000Y-95550000D03*
D18*
X69200000Y-50700000D03*
D19*
X70800000Y-50700000D03*
X70000000Y-50700000D03*
D18*
X71600000Y-50700000D03*
D19*
X70000000Y-52500000D03*
D18*
X69200000Y-52500000D03*
D19*
X70800000Y-52500000D03*
D18*
X71600000Y-52500000D03*
D22*
X117200000Y-78400000D03*
X122080000Y-78400000D03*
D14*
X117970000Y-60080000D03*
X120270000Y-60080000D03*
X117200000Y-69775000D03*
X114900000Y-69775000D03*
D23*
X133100000Y-95400000D03*
D11*
X138100000Y-95400000D03*
D14*
X118980000Y-101660000D03*
X118980000Y-99360000D03*
X75740000Y-116030000D03*
X73440000Y-116030000D03*
X117930000Y-74220000D03*
X115630000Y-74220000D03*
X76250000Y-53700000D03*
X73950000Y-53700000D03*
X122600000Y-74220000D03*
X120300000Y-74220000D03*
X93800000Y-94950000D03*
X93800000Y-92650000D03*
D24*
X91500000Y-119625000D03*
D25*
X93500000Y-119625000D03*
D14*
X79000000Y-115450000D03*
X79000000Y-117750000D03*
D26*
X73000000Y-119725000D03*
X68000000Y-119725000D03*
D27*
X122975000Y-123801260D03*
X122975000Y-113641260D03*
D17*
X90800000Y-94900000D03*
X90800000Y-92500000D03*
D28*
X85750000Y-78200000D03*
X83350000Y-78200000D03*
D15*
X85300000Y-130525000D03*
D16*
X85300000Y-120365000D03*
D17*
X79600000Y-130350000D03*
X79600000Y-127950000D03*
D29*
X71280000Y-116350000D03*
X70010000Y-116350000D03*
X68740000Y-116350000D03*
X67470000Y-116350000D03*
X67470000Y-110950000D03*
X68740000Y-110950000D03*
X70010000Y-110950000D03*
X71280000Y-110950000D03*
D30*
X116700000Y-132050000D03*
D31*
X116700000Y-125750000D03*
X119000000Y-125750000D03*
X114400000Y-125750000D03*
D32*
X76900000Y-125305000D03*
X76900000Y-124035000D03*
X76900000Y-122765000D03*
X76900000Y-121495000D03*
X82300000Y-121495000D03*
X82300000Y-122765000D03*
X82300000Y-124035000D03*
X82300000Y-125305000D03*
D14*
X157800000Y-82550000D03*
X157800000Y-80250000D03*
X157800000Y-88350000D03*
X157800000Y-86050000D03*
X145400000Y-78950000D03*
X147700000Y-78950000D03*
X129400000Y-80100000D03*
X129400000Y-82400000D03*
D33*
X153150000Y-102400000D03*
X147650000Y-102400000D03*
D28*
X146700000Y-48800000D03*
X149100000Y-48800000D03*
D17*
X96600000Y-66800000D03*
X96600000Y-64400000D03*
D34*
X138700000Y-109250000D03*
X138700000Y-107350000D03*
X141700000Y-108300000D03*
D28*
X129000000Y-42600000D03*
X126600000Y-42600000D03*
D11*
X75250000Y-111200000D03*
X75250000Y-106700000D03*
X81750000Y-111200000D03*
X81750000Y-106700000D03*
X84750000Y-111200000D03*
X84750000Y-106700000D03*
X91250000Y-111200000D03*
X91250000Y-106700000D03*
X94250000Y-111200000D03*
X94250000Y-106700000D03*
X100750000Y-111200000D03*
X100750000Y-106700000D03*
X103750000Y-111200000D03*
X103750000Y-106700000D03*
X110250000Y-111200000D03*
X110250000Y-106700000D03*
D35*
X134900000Y-112800000D03*
X132400000Y-130300000D03*
X137400000Y-130300000D03*
X142400000Y-130300000D03*
X139900000Y-112800000D03*
D36*
X145800000Y-119800000D03*
X129000000Y-119800000D03*
D14*
X129360000Y-130510000D03*
X129360000Y-128210000D03*
X137400000Y-123150000D03*
X137400000Y-125450000D03*
X132260000Y-117370000D03*
X132260000Y-115070000D03*
D37*
X74720000Y-43430000D03*
X74720000Y-45970000D03*
X77260000Y-43430000D03*
X77260000Y-45970000D03*
X79800000Y-43430000D03*
X79800000Y-45970000D03*
X82340000Y-43430000D03*
X82340000Y-45970000D03*
X84880000Y-43430000D03*
X84880000Y-45970000D03*
D27*
X67800000Y-126545000D03*
X72880000Y-126545000D03*
D38*
X160000000Y-70000000D03*
X70000000Y-70000000D03*
X70000000Y-105000000D03*
X160000000Y-105000000D03*
D14*
X78450000Y-110550000D03*
X78450000Y-108250000D03*
X88000000Y-110550000D03*
X88000000Y-108250000D03*
X97525000Y-110550000D03*
X97525000Y-108250000D03*
X107175000Y-110550000D03*
X107175000Y-108250000D03*
X116425000Y-110550000D03*
X116425000Y-108250000D03*
D11*
X113250000Y-111200000D03*
X113250000Y-106700000D03*
X119750000Y-111200000D03*
X119750000Y-106700000D03*
D39*
X113670000Y-95910000D03*
X115570000Y-95910000D03*
X114620000Y-98910000D03*
D14*
X153100000Y-46950000D03*
X153100000Y-44650000D03*
D40*
X72425000Y-81325000D03*
X72425000Y-80525000D03*
X72425000Y-79725000D03*
X72425000Y-78925000D03*
X72425000Y-78125000D03*
D41*
X72325000Y-84175000D03*
X66825000Y-84175000D03*
X72325000Y-75275000D03*
X66825000Y-75275000D03*
D42*
X69825000Y-81925000D03*
X69825000Y-77525000D03*
D20*
X78950000Y-85400000D03*
D21*
X78950000Y-83800000D03*
X78950000Y-84600000D03*
D20*
X78950000Y-83000000D03*
D21*
X80750000Y-84600000D03*
D20*
X80750000Y-85400000D03*
D21*
X80750000Y-83800000D03*
D20*
X80750000Y-83000000D03*
D14*
X138500000Y-51650000D03*
X140800000Y-51650000D03*
X138350000Y-102100000D03*
X140650000Y-102100000D03*
X140250000Y-79200000D03*
X140250000Y-81500000D03*
D17*
X153100000Y-49300000D03*
X153100000Y-51700000D03*
D14*
X115840000Y-54370000D03*
X113540000Y-54370000D03*
X112600000Y-63000000D03*
X110300000Y-63000000D03*
X127220000Y-88680000D03*
X129520000Y-88680000D03*
X128700000Y-74650000D03*
X128700000Y-72350000D03*
X154000000Y-66150000D03*
X154000000Y-63850000D03*
X154000000Y-58850000D03*
X154000000Y-61150000D03*
X137800000Y-43850000D03*
X137800000Y-46150000D03*
X155900000Y-49550000D03*
X155900000Y-47250000D03*
D43*
X119800000Y-69500000D03*
X119800000Y-64000000D03*
D33*
X103560000Y-54370000D03*
X109060000Y-54370000D03*
D43*
X132400000Y-74550000D03*
X132400000Y-80050000D03*
D34*
X146270000Y-60100000D03*
X146270000Y-58200000D03*
X149270000Y-59150000D03*
X146900000Y-45650000D03*
X146900000Y-43750000D03*
X149900000Y-44700000D03*
D44*
X119100000Y-43080000D03*
X108940000Y-43080000D03*
X119100000Y-50700000D03*
X108940000Y-50700000D03*
X106400000Y-43080000D03*
X106400000Y-50700000D03*
D45*
X123080000Y-57050000D03*
X123080000Y-67210000D03*
X130700000Y-57050000D03*
X130700000Y-67210000D03*
X123080000Y-69750000D03*
X130700000Y-69750000D03*
X134380000Y-57050000D03*
X134380000Y-67210000D03*
X142000000Y-57050000D03*
X142000000Y-67210000D03*
X134380000Y-69750000D03*
X142000000Y-69750000D03*
D44*
X155400000Y-91580000D03*
X145240000Y-91580000D03*
X155400000Y-99200000D03*
X145240000Y-99200000D03*
X142700000Y-91580000D03*
X142700000Y-99200000D03*
D27*
X98046000Y-48292000D03*
X98046000Y-42704000D03*
X146750000Y-73751260D03*
X146750000Y-63591260D03*
D39*
X117250000Y-66950000D03*
X115350000Y-66950000D03*
X116300000Y-63950000D03*
X112450000Y-60150000D03*
X110550000Y-60150000D03*
X111500000Y-57150000D03*
X133350000Y-87150000D03*
X131450000Y-87150000D03*
X132400000Y-84150000D03*
X121650000Y-43100000D03*
X123550000Y-43100000D03*
X122600000Y-46100000D03*
D34*
X126600000Y-46950000D03*
X126600000Y-45050000D03*
X129600000Y-46000000D03*
D39*
X134450000Y-45700000D03*
X132550000Y-45700000D03*
X133500000Y-42700000D03*
D46*
X148000000Y-55770000D03*
D47*
X148000000Y-54050000D03*
X151600000Y-54050000D03*
D10*
G36*
X153000000Y-56450000D02*
X150200000Y-56450000D01*
X150200000Y-55450000D01*
X153000000Y-55450000D01*
X153000000Y-56450000D01*
X153000000Y-56450000D01*
G37*
D34*
X134000000Y-50350000D03*
X134000000Y-52250000D03*
X131000000Y-51300000D03*
X154500000Y-80450000D03*
X154500000Y-82350000D03*
X151500000Y-81400000D03*
D39*
X144150000Y-85500000D03*
X142250000Y-85500000D03*
X143200000Y-82500000D03*
D28*
X150000000Y-85400000D03*
X147600000Y-85400000D03*
X142250000Y-88300000D03*
X144650000Y-88300000D03*
D14*
X142400000Y-45800000D03*
D15*
X142400000Y-43800000D03*
D48*
X159143000Y-65080000D03*
X159143000Y-54920000D03*
D49*
X160650000Y-60000000D03*
D50*
X160650000Y-56380000D03*
X160650000Y-63620000D03*
D48*
X159143000Y-62540000D03*
X159143000Y-57460000D03*
X159143000Y-60000000D03*
D17*
X154500000Y-86000000D03*
X154500000Y-88400000D03*
D51*
X142000000Y-76150000D03*
D52*
X142000000Y-73610000D03*
D53*
X124600000Y-49440000D03*
D54*
X126500000Y-49440000D03*
D55*
X160500000Y-49230000D03*
D56*
X160500000Y-44160000D03*
D55*
X161000000Y-98230000D03*
D56*
X161000000Y-93160000D03*
D53*
X159900000Y-76100000D03*
D54*
X161800000Y-76100000D03*
D53*
X150100000Y-66100000D03*
D54*
X150100000Y-64200000D03*
D53*
X152600000Y-76100000D03*
D54*
X154500000Y-76100000D03*
D57*
X153799860Y-127000000D03*
X159799340Y-127000000D03*
X156799600Y-131699000D03*
D53*
X136350000Y-54400000D03*
D54*
X128730000Y-54400000D03*
D51*
X68475000Y-96325000D03*
D52*
X68475000Y-93785000D03*
X68475000Y-91245000D03*
X68475000Y-88705000D03*
D51*
X137150000Y-87600000D03*
D52*
X137150000Y-85060000D03*
X137150000Y-82520000D03*
X137150000Y-79980000D03*
X137150000Y-77440000D03*
D28*
X76870000Y-102070000D03*
X74470000Y-102070000D03*
X71320000Y-99750000D03*
X68920000Y-99750000D03*
D53*
X109380000Y-98900000D03*
D54*
X111280000Y-98900000D03*
D53*
X130360000Y-110570000D03*
D54*
X132260000Y-110570000D03*
D53*
X128700000Y-106080000D03*
D54*
X128700000Y-98460000D03*
D53*
X123000000Y-107570000D03*
D54*
X123000000Y-99950000D03*
D17*
X127800000Y-111610000D03*
X127800000Y-114010000D03*
D53*
X111310000Y-67610000D03*
D54*
X111310000Y-75230000D03*
D53*
X107840000Y-65510000D03*
D54*
X107840000Y-73130000D03*
D14*
X94590000Y-55080000D03*
X94590000Y-52780000D03*
D53*
X96950000Y-57630000D03*
D54*
X104570000Y-57630000D03*
D53*
X129510000Y-85500000D03*
D54*
X121890000Y-85500000D03*
D53*
X75438000Y-91948000D03*
D54*
X75438000Y-84328000D03*
D23*
X95500000Y-129825000D03*
D11*
X95500000Y-124825000D03*
D23*
X156060000Y-113650000D03*
D11*
X161060000Y-113650000D03*
D23*
X106200000Y-129825000D03*
D11*
X106200000Y-124825000D03*
D14*
X104440000Y-71990000D03*
X104440000Y-74290000D03*
D51*
X98250000Y-93740000D03*
D53*
X111280000Y-94380000D03*
D54*
X103660000Y-94380000D03*
D58*
X152520000Y-120590000D03*
D59*
X162680000Y-120590000D03*
M02*
