M48
;DRILL file {KiCad 4.0.7-e2-6376~58~ubuntu14.04.1} date Thu Dec 19 07:43:41 2019
;FORMAT={-:-/ absolute / inch / decimal}
FMAT,2
INCH,TZ
T1C0.016
T2C0.024
T3C0.028
T4C0.031
T5C0.039
T6C0.039
T7C0.043
T8C0.051
T9C0.055
T10C0.087
T11C0.126
T12C0.035
%
G90
G05
M72
T1
X2.7622Y-1.7854
X2.7953Y-3.7185
X2.8339Y-3.8516
X2.8551Y-3.5992
X2.8563Y-3.4921
X2.935Y-4.8205
X2.9626Y-3.0748
X2.9634Y-3.7854
X2.9634Y-3.8874
X3.0008Y-4.102
X3.0079Y-3.7047
X3.0748Y-4.9811
X3.0878Y-3.4661
X3.0961Y-3.6748
X3.0965Y-2.1132
X3.124Y-2.8071
X3.124Y-2.9366
X3.1429Y-3.7933
X3.1724Y-4.8469
X3.1945Y-3.7933
X3.2008Y-3.0787
X3.2098Y-3.6748
X3.2114Y-4.102
X3.2276Y-3.5772
X3.2366Y-5.0118
X3.2622Y-2.9441
X3.2756Y-2.8248
X3.2791Y-2.3453
X3.3228Y-3.7047
X3.339Y-3.5756
X3.352Y-3.4634
X3.3535Y-2.8646
X3.3913Y-2.9445
X3.4087Y-2.5654
X3.4102Y-2.7346
X3.4409Y-3.4634
X3.45Y-2.6516
X3.4858Y-2.3441
X3.5335Y-2.9547
X3.5358Y-2.8882
X3.5394Y-2.7441
X3.6346Y-2.987
X3.6516Y-2.7441
X3.6858Y-2.3465
X3.6882Y-2.6516
X3.6886Y-2.5406
X3.6988Y-3.252
X3.6988Y-3.4016
X3.7031Y-3.1902
X3.7185Y-2.7846
X3.7307Y-3.3264
X3.7311Y-1.9705
X3.7323Y-1.824
X3.7579Y-3.1791
X3.774Y-3.7382
X3.8179Y-2.8622
X3.8228Y-3.326
X3.8339Y-3.1701
X3.835Y-2.0768
X3.8528Y-2.1913
X3.8543Y-2.7047
X3.8555Y-2.3461
X3.8563Y-2.8642
X3.8878Y-2.9815
X3.9043Y-2.5535
X3.9201Y-3.3736
X3.9205Y-3.1555
X3.9469Y-2.9815
X3.9614Y-2.0433
X3.9827Y-3.178
X3.9835Y-2.6378
X3.987Y-2.3339
X3.9945Y-3.7783
X3.9965Y-2.8327
X4.0051Y-3.4642
X4.0087Y-2.2409
X4.0102Y-1.824
X4.0622Y-1.9713
X4.0669Y-1.7122
X4.0772Y-2.5441
X4.102Y-2.7236
X4.1264Y-3.4976
X4.1453Y-3.6358
X4.1839Y-2.6425
X4.198Y-1.8248
X4.2339Y-3.7772
X4.237Y-2.4484
X4.2697Y-3.4953
X4.2827Y-2.2346
X4.2882Y-4.0028
X4.2941Y-3.5787
X4.3209Y-3.6409
X4.389Y-1.6937
X4.3906Y-1.8244
X4.4331Y-2.5665
X4.4445Y-4.0028
X4.4543Y-1.9567
X4.4654Y-2.8311
X4.4665Y-3.4976
X4.4882Y-2.6783
X4.5177Y-1.6937
X4.5181Y-2.2354
X4.5244Y-2.3846
X4.526Y-1.8248
X4.55Y-3.6547
X4.5622Y-2.0264
X4.5941Y-4.0024
X4.5984Y-3.522
X4.6Y-1.9543
X4.6142Y-2.8311
X4.6425Y-3.7681
X4.6457Y-2.2752
X4.6693Y-1.8252
X4.6728Y-2.628
X4.6843Y-4.0736
X4.6862Y-3.6547
X4.7031Y-2.2232
X4.7469Y-1.7886
X4.7661Y-3.7346
X4.8181Y-2.0878
X4.8555Y-3.8268
X4.8563Y-4.0736
X4.8575Y-2.3677
X4.8858Y-4.3626
X4.8886Y-4.2823
X4.9213Y-2.0945
X4.9236Y-2.5366
X4.9728Y-2.2161
X4.9831Y-3.0343
X4.9839Y-2.8846
X4.9843Y-3.1547
X4.985Y-3.2882
X4.9929Y-2.6075
X4.9929Y-2.7472
X5.0315Y-4.3173
X5.0579Y-2.3677
X5.0579Y-2.5354
X5.0665Y-1.876
X5.0854Y-3.0402
X5.1543Y-1.7319
X5.272Y-2.8217
X5.2756Y-1.9201
X5.2961Y-2.3673
X5.298Y-2.5535
X5.3882Y-2.9476
X5.4055Y-2.2791
X5.4087Y-1.9201
X5.4331Y-3.576
X5.4358Y-2.8217
X5.452Y-2.3673
X5.452Y-2.4803
X5.4961Y-2.1961
X5.4988Y-2.739
X5.511Y-1.7642
X5.5551Y-1.9201
X5.5693Y-2.1193
X5.5886Y-2.4555
X5.589Y-2.3673
X5.6429Y-3.1083
X5.6634Y-2.5728
X5.6823Y-3.7862
X5.6846Y-2.8776
X5.6882Y-2.0874
X5.6921Y-1.9535
X5.6925Y-2.1953
X5.6988Y-1.7665
X5.7244Y-3.0059
X5.7244Y-3.1878
X5.7661Y-3.2882
X5.7799Y-2.6366
X5.8087Y-3.487
X5.8118Y-3.6146
X5.8224Y-3.7776
X5.8295Y-3.876
X5.8685Y-2.2654
X5.8783Y-2.4264
X5.8992Y-2.0724
X5.9154Y-1.8496
X5.9185Y-3.6185
X5.9232Y-3.2862
X5.9402Y-3.0744
X5.9445Y-1.6457
X5.9878Y-3.537
X5.989Y-3.4209
X5.989Y-3.7146
X5.9937Y-3.8752
X6.0736Y-3.0783
X6.0886Y-2.2193
X6.1071Y-3.7799
X6.1378Y-1.676
X6.2118Y-3.5736
X6.2177Y-1.9559
X6.2311Y-3.6854
X6.285Y-3.135
X6.285Y-3.3173
X6.3697Y-3.7591
T2
X3.6024Y-4.7096
X3.6811Y-4.7096
T3
X2.97Y-3.32
X2.97Y-3.62
X3.8169Y-2.2689
X4.0811Y-3.7157
X4.1169Y-2.2689
X4.2457Y-2.5791
X4.2457Y-2.8791
X4.3063Y-3.8937
X4.3811Y-3.7157
X4.3811Y-3.8937
X4.3823Y-2.6618
X4.3823Y-2.9618
X4.7988Y-3.3661
X4.8425Y-3.935
X4.8425Y-4.235
X4.9055Y-1.9465
X4.9803Y-1.9465
X5.0669Y-3.8764
X5.0669Y-4.1764
X5.0681Y-2.1417
X5.0988Y-3.3661
X5.1323Y-4.3531
X5.2071Y-4.3531
X5.3681Y-2.1417
X5.9094Y-2.5276
X5.9094Y-2.6024
X6.0079Y-2.9961
X6.0827Y-2.9961
X6.2953Y-2.9961
X6.3701Y-2.9961
T4
X3.3583Y-4.7388
X3.3583Y-5.1388
X3.4843Y-4.7372
X3.4843Y-5.1372
X4.6142Y-3.0866
X4.8063Y-3.0866
X5.6063Y-1.7244
X5.6063Y-1.8031
T5
X2.6959Y-3.4923
X2.6959Y-3.5923
X2.6959Y-3.6923
X2.6959Y-3.7923
X2.9417Y-1.7098
X2.9417Y-1.8098
X3.0417Y-1.7098
X3.0417Y-1.8098
X3.1417Y-1.7098
X3.1417Y-1.8098
X3.2417Y-1.7098
X3.2417Y-1.8098
X3.3417Y-1.7098
X3.3417Y-1.8098
X3.4059Y-2.4439
X3.4059Y-3.9734
X3.5059Y-2.4439
X3.5059Y-3.9734
X3.6059Y-2.4439
X3.6059Y-3.9734
X3.7059Y-2.4439
X3.7059Y-3.9734
X3.7598Y-4.9144
X3.7598Y-5.1112
X3.8059Y-2.4439
X3.8059Y-3.9734
X3.8681Y-3.6906
X3.9059Y-2.4439
X3.9059Y-3.9734
X4.0059Y-2.4439
X4.0059Y-3.9734
X4.1059Y-2.4439
X4.1059Y-3.9734
X4.1811Y-4.9144
X4.1811Y-5.1112
X4.189Y-1.6961
X4.189Y-1.9961
X4.289Y-1.6961
X4.289Y-1.9961
X4.689Y-1.6961
X4.689Y-1.9961
X4.8457Y-2.2461
X4.8457Y-2.6461
X4.8457Y-2.7461
X5.1457Y-2.2461
X5.1457Y-2.6461
X5.1457Y-2.7461
X5.2402Y-3.7559
X5.2906Y-2.2461
X5.2906Y-2.6461
X5.2906Y-2.7461
X5.3996Y-3.0488
X5.3996Y-3.1488
X5.3996Y-3.2488
X5.3996Y-3.3488
X5.3996Y-3.4488
X5.437Y-3.7559
X5.5906Y-2.2461
X5.5906Y-2.6461
X5.5906Y-2.7461
X5.5906Y-2.898
X5.5906Y-2.998
X5.6181Y-3.6055
X5.6181Y-3.9055
X5.7181Y-3.6055
X5.7181Y-3.9055
X6.1181Y-3.6055
X6.1181Y-3.9055
X6.1441Y-4.4744
X6.3409Y-4.4744
T6
X2.6693Y-4.9821
X2.8693Y-4.9821
X3.8601Y-1.6813
X3.8601Y-1.9013
X4.8415Y-4.4741
X4.8415Y-4.8741
X5.7776Y-2.5036
X5.7776Y-2.9036
T7
X2.9626Y-4.2008
X2.9626Y-4.378
X3.2185Y-4.2008
X3.2185Y-4.378
X3.3366Y-4.2008
X3.3366Y-4.378
X3.5925Y-4.2008
X3.5925Y-4.378
X3.7106Y-4.2008
X3.7106Y-4.378
X3.9665Y-4.2008
X3.9665Y-4.378
X4.0846Y-4.2008
X4.0846Y-4.378
X4.3406Y-4.2008
X4.3406Y-4.378
X4.4587Y-4.2008
X4.4587Y-4.378
X4.7146Y-4.2008
X4.7146Y-4.378
X6.0047Y-4.7476
X6.2655Y-2.1622
X6.2655Y-2.2622
X6.2655Y-2.3622
X6.2655Y-2.4622
X6.2655Y-2.5622
X6.4047Y-4.7476
T8
X6.3189Y-1.7386
X6.3189Y-1.9382
X6.3386Y-3.6677
X6.3386Y-3.8673
T9
X5.2126Y-5.1299
X5.311Y-4.4409
X5.4094Y-5.1299
X5.5079Y-4.4409
X5.6063Y-5.1299
T10
X5.0787Y-4.7165
X5.7402Y-4.7165
T11
X2.7559Y-2.7559
X2.7559Y-4.1339
X6.2992Y-2.7559
X6.2992Y-4.1339
T12
X2.749Y-3.0522
X2.749Y-3.2254
T6
X6.0551Y-5.0393G85X6.0551Y-4.9607
G05
X6.2126Y-5.185G85X6.1339Y-5.185
G05
X6.2913Y-5.0393G85X6.2913Y-4.9607
G05
T0
M30
