G04 #@! TF.FileFunction,Soldermask,Top*
%FSLAX46Y46*%
G04 Gerber Fmt 4.6, Leading zero omitted, Abs format (unit mm)*
G04 Created by KiCad (PCBNEW 4.0.7-e2-6376~58~ubuntu14.04.1) date Thu Dec 19 07:43:31 2019*
%MOMM*%
%LPD*%
G01*
G04 APERTURE LIST*
%ADD10C,0.100000*%
%ADD11C,2.000000*%
%ADD12C,1.600000*%
%ADD13O,1.600000X1.600000*%
%ADD14C,1.500000*%
%ADD15R,2.000000X2.000000*%
%ADD16R,1.200000X1.200000*%
%ADD17C,1.200000*%
%ADD18C,1.998980*%
%ADD19C,2.500000*%
%ADD20C,3.000000*%
%ADD21C,1.850000*%
%ADD22C,5.600000*%
%ADD23C,0.900000*%
%ADD24O,1.600000X2.300000*%
%ADD25O,2.300000X1.600000*%
%ADD26R,1.600000X1.600000*%
%ADD27C,1.800000*%
%ADD28R,5.000000X3.960000*%
%ADD29R,1.700000X1.700000*%
%ADD30O,1.700000X1.700000*%
%ADD31C,1.400000*%
%ADD32O,1.400000X1.400000*%
%ADD33R,2.300000X2.300000*%
%ADD34C,2.300000*%
%ADD35R,3.500120X3.500120*%
%ADD36R,1.200000X0.750000*%
%ADD37R,0.750000X1.200000*%
%ADD38R,2.200000X2.200000*%
%ADD39O,2.200000X2.200000*%
G04 APERTURE END LIST*
D10*
D11*
X94130000Y-62075000D03*
X96670000Y-62075000D03*
X91590000Y-62075000D03*
X89050000Y-62075000D03*
X86510000Y-62075000D03*
X99210000Y-62075000D03*
X101750000Y-62075000D03*
X104290000Y-62075000D03*
X86510000Y-100925000D03*
X89050000Y-100925000D03*
X91590000Y-100925000D03*
X94130000Y-100925000D03*
X96670000Y-100925000D03*
X99210000Y-100925000D03*
X101750000Y-100925000D03*
X104290000Y-100925000D03*
D12*
X88500000Y-120325000D03*
D13*
X88500000Y-130485000D03*
D14*
X117200000Y-78400000D03*
X122080000Y-78400000D03*
D15*
X133100000Y-95400000D03*
D11*
X138100000Y-95400000D03*
D16*
X91500000Y-119625000D03*
D17*
X93500000Y-119625000D03*
D18*
X122975000Y-123801260D03*
X122975000Y-113641260D03*
D12*
X85300000Y-130525000D03*
D13*
X85300000Y-120365000D03*
D11*
X75250000Y-111200000D03*
X75250000Y-106700000D03*
X81750000Y-111200000D03*
X81750000Y-106700000D03*
X84750000Y-111200000D03*
X84750000Y-106700000D03*
X91250000Y-111200000D03*
X91250000Y-106700000D03*
X94250000Y-111200000D03*
X94250000Y-106700000D03*
X100750000Y-111200000D03*
X100750000Y-106700000D03*
X103750000Y-111200000D03*
X103750000Y-106700000D03*
X110250000Y-111200000D03*
X110250000Y-106700000D03*
D19*
X134900000Y-112800000D03*
X132400000Y-130300000D03*
X137400000Y-130300000D03*
X142400000Y-130300000D03*
X139900000Y-112800000D03*
D20*
X145800000Y-119800000D03*
X129000000Y-119800000D03*
D21*
X74720000Y-43430000D03*
X74720000Y-45970000D03*
X77260000Y-43430000D03*
X77260000Y-45970000D03*
X79800000Y-43430000D03*
X79800000Y-45970000D03*
X82340000Y-43430000D03*
X82340000Y-45970000D03*
X84880000Y-43430000D03*
X84880000Y-45970000D03*
D18*
X67800000Y-126545000D03*
X72880000Y-126545000D03*
D22*
X160000000Y-70000000D03*
X70000000Y-70000000D03*
X70000000Y-105000000D03*
X160000000Y-105000000D03*
D11*
X113250000Y-111200000D03*
X113250000Y-106700000D03*
X119750000Y-111200000D03*
X119750000Y-106700000D03*
D23*
X69825000Y-81925000D03*
X69825000Y-77525000D03*
D24*
X119100000Y-43080000D03*
X108940000Y-43080000D03*
X119100000Y-50700000D03*
X108940000Y-50700000D03*
X106400000Y-43080000D03*
X106400000Y-50700000D03*
D25*
X123080000Y-57050000D03*
X123080000Y-67210000D03*
X130700000Y-57050000D03*
X130700000Y-67210000D03*
X123080000Y-69750000D03*
X130700000Y-69750000D03*
X134380000Y-57050000D03*
X134380000Y-67210000D03*
X142000000Y-57050000D03*
X142000000Y-67210000D03*
X134380000Y-69750000D03*
X142000000Y-69750000D03*
D24*
X155400000Y-91580000D03*
X145240000Y-91580000D03*
X155400000Y-99200000D03*
X145240000Y-99200000D03*
X142700000Y-91580000D03*
X142700000Y-99200000D03*
D18*
X98046000Y-48292000D03*
X98046000Y-42704000D03*
X146750000Y-73751260D03*
X146750000Y-63591260D03*
D26*
X142400000Y-45800000D03*
D12*
X142400000Y-43800000D03*
D27*
X159143000Y-65080000D03*
X159143000Y-54920000D03*
D28*
X160650000Y-56380000D03*
X160650000Y-63620000D03*
D27*
X159143000Y-62540000D03*
X159143000Y-57460000D03*
X159143000Y-60000000D03*
D29*
X142000000Y-76150000D03*
D30*
X142000000Y-73610000D03*
D31*
X124600000Y-49440000D03*
D32*
X126500000Y-49440000D03*
D33*
X160500000Y-49230000D03*
D34*
X160500000Y-44160000D03*
D33*
X161000000Y-98230000D03*
D34*
X161000000Y-93160000D03*
D31*
X159900000Y-76100000D03*
D32*
X161800000Y-76100000D03*
D31*
X150100000Y-66100000D03*
D32*
X150100000Y-64200000D03*
D31*
X152600000Y-76100000D03*
D32*
X154500000Y-76100000D03*
D35*
X153799860Y-127000000D03*
X159799340Y-127000000D03*
X156799600Y-131699000D03*
D31*
X136350000Y-54400000D03*
D32*
X128730000Y-54400000D03*
D36*
X97100000Y-86400000D03*
X95200000Y-86400000D03*
X97100000Y-82600000D03*
X95200000Y-82600000D03*
D29*
X68475000Y-96325000D03*
D30*
X68475000Y-93785000D03*
X68475000Y-91245000D03*
X68475000Y-88705000D03*
D29*
X137150000Y-87600000D03*
D30*
X137150000Y-85060000D03*
X137150000Y-82520000D03*
X137150000Y-79980000D03*
X137150000Y-77440000D03*
D37*
X99580000Y-83590000D03*
X99580000Y-81690000D03*
D31*
X109380000Y-98900000D03*
D32*
X111280000Y-98900000D03*
D31*
X130360000Y-110570000D03*
D32*
X132260000Y-110570000D03*
D31*
X128700000Y-106080000D03*
D32*
X128700000Y-98460000D03*
D31*
X123000000Y-107570000D03*
D32*
X123000000Y-99950000D03*
D31*
X111310000Y-67610000D03*
D32*
X111310000Y-75230000D03*
D31*
X107840000Y-65510000D03*
D32*
X107840000Y-73130000D03*
D31*
X96950000Y-57630000D03*
D32*
X104570000Y-57630000D03*
D31*
X129510000Y-85500000D03*
D32*
X121890000Y-85500000D03*
D31*
X75438000Y-91948000D03*
D32*
X75438000Y-84328000D03*
D15*
X95500000Y-129825000D03*
D11*
X95500000Y-124825000D03*
D15*
X156060000Y-113650000D03*
D11*
X161060000Y-113650000D03*
D15*
X106200000Y-129825000D03*
D11*
X106200000Y-124825000D03*
D29*
X98250000Y-93740000D03*
D31*
X111280000Y-94380000D03*
D32*
X103660000Y-94380000D03*
D38*
X152520000Y-120590000D03*
D39*
X162680000Y-120590000D03*
M02*
